solid OpenSCAD_Model
  facet normal -1 0 0
    outer loop
      vertex -1.2 -121.5 483
      vertex -1.2 -106.5 489
      vertex -1.2 -106.5 483
    endloop
  endfacet
  facet normal -1 -0 0
    outer loop
      vertex -1.2 -106.5 489
      vertex -1.2 -121.5 483
      vertex -1.2 -121.5 489
    endloop
  endfacet
  facet normal -0 0 1
    outer loop
      vertex -1.2 -106.5 489
      vertex 112.2 -121.5 489
      vertex 112.2 -106.5 489
    endloop
  endfacet
  facet normal 0 0 1
    outer loop
      vertex 112.2 -121.5 489
      vertex -1.2 -106.5 489
      vertex -1.2 -121.5 489
    endloop
  endfacet
  facet normal 1 -0 0
    outer loop
      vertex 112.2 -121.5 489
      vertex 112.2 -106.5 483
      vertex 112.2 -106.5 489
    endloop
  endfacet
  facet normal 1 0 0
    outer loop
      vertex 112.2 -106.5 483
      vertex 112.2 -121.5 489
      vertex 112.2 -121.5 483
    endloop
  endfacet
  facet normal 0 0 -1
    outer loop
      vertex 112.2 -121.5 483
      vertex 111 -120.425 483
      vertex 112.2 -106.5 483
    endloop
  endfacet
  facet normal 0 0 -1
    outer loop
      vertex 112.2 -121.5 483
      vertex 0 -120.425 483
      vertex 111 -120.425 483
    endloop
  endfacet
  facet normal 0 0 -1
    outer loop
      vertex -1.2 -106.5 483
      vertex 0 -120.425 483
      vertex -1.2 -121.5 483
    endloop
  endfacet
  facet normal 0 0 -1
    outer loop
      vertex -1.2 -121.5 483
      vertex 0 -120.425 483
      vertex 112.2 -121.5 483
    endloop
  endfacet
  facet normal 0 0 -1
    outer loop
      vertex 111 -107.543 483
      vertex 112.2 -106.5 483
      vertex 111 -120.425 483
    endloop
  endfacet
  facet normal 0 0 -1
    outer loop
      vertex 0 -107.543 483
      vertex 112.2 -106.5 483
      vertex 111 -107.543 483
    endloop
  endfacet
  facet normal 0 0 -1
    outer loop
      vertex 0 -107.543 483
      vertex -1.2 -106.5 483
      vertex 112.2 -106.5 483
    endloop
  endfacet
  facet normal 0 0 -1
    outer loop
      vertex 0 -120.425 483
      vertex -1.2 -106.5 483
      vertex 0 -107.543 483
    endloop
  endfacet
  facet normal 0 -1 0
    outer loop
      vertex -1.2 -121.5 483
      vertex 112.2 -121.5 489
      vertex -1.2 -121.5 489
    endloop
  endfacet
  facet normal 0 -1 -0
    outer loop
      vertex 112.2 -121.5 489
      vertex -1.2 -121.5 483
      vertex 112.2 -121.5 483
    endloop
  endfacet
  facet normal 0 1 -0
    outer loop
      vertex 112.2 -106.5 483
      vertex -1.2 -106.5 489
      vertex 112.2 -106.5 489
    endloop
  endfacet
  facet normal 0 1 0
    outer loop
      vertex -1.2 -106.5 489
      vertex 112.2 -106.5 483
      vertex -1.2 -106.5 483
    endloop
  endfacet
  facet normal 1 0 0
    outer loop
      vertex 0 -108.832 488.172
      vertex 0 -120.425 483
      vertex 0 -107.543 483
    endloop
  endfacet
  facet normal 1 0 -0
    outer loop
      vertex 0 -120.425 483
      vertex 0 -108.832 488.172
      vertex 0 -120.961 485.148
    endloop
  endfacet
  facet normal 0 0.241921 -0.970296
    outer loop
      vertex 0 -120.961 485.148
      vertex 111 -108.832 488.172
      vertex 111 -120.961 485.148
    endloop
  endfacet
  facet normal 0 0.241921 -0.970296
    outer loop
      vertex 111 -108.832 488.172
      vertex 0 -120.961 485.148
      vertex 0 -108.832 488.172
    endloop
  endfacet
  facet normal -1 0 0
    outer loop
      vertex 111 -120.425 483
      vertex 111 -108.832 488.172
      vertex 111 -107.543 483
    endloop
  endfacet
  facet normal -1 0 0
    outer loop
      vertex 111 -108.832 488.172
      vertex 111 -120.425 483
      vertex 111 -120.961 485.148
    endloop
  endfacet
  facet normal 0 -0.970296 -0.241923
    outer loop
      vertex 0 -107.543 483
      vertex 111 -108.832 488.172
      vertex 0 -108.832 488.172
    endloop
  endfacet
  facet normal 0 -0.970296 -0.241923
    outer loop
      vertex 111 -108.832 488.172
      vertex 0 -107.543 483
      vertex 111 -107.543 483
    endloop
  endfacet
  facet normal 0 0.970296 0.241922
    outer loop
      vertex 111 -120.425 483
      vertex 0 -120.961 485.148
      vertex 111 -120.961 485.148
    endloop
  endfacet
  facet normal 0 0.970296 0.241922
    outer loop
      vertex 0 -120.961 485.148
      vertex 111 -120.425 483
      vertex 0 -120.425 483
    endloop
  endfacet
endsolid OpenSCAD_Model
