solid OpenSCAD_Model
  facet normal -1 0 0
    outer loop
      vertex -30.75 0 3
      vertex -30.75 17 9
      vertex -30.75 17 3
    endloop
  endfacet
  facet normal -1 -0 0
    outer loop
      vertex -30.75 17 9
      vertex -30.75 0 3
      vertex -30.75 0 9
    endloop
  endfacet
  facet normal -0 0 1
    outer loop
      vertex -30.75 17 9
      vertex -26.4 0 9
      vertex -26.4 17 9
    endloop
  endfacet
  facet normal 0 0 1
    outer loop
      vertex -26.4 0 9
      vertex -30.75 17 9
      vertex -30.75 0 9
    endloop
  endfacet
  facet normal -0 0 1
    outer loop
      vertex -14.4 17 9
      vertex -9.75 0 9
      vertex -9.75 17 9
    endloop
  endfacet
  facet normal 0 0 1
    outer loop
      vertex -9.75 0 9
      vertex -14.4 17 9
      vertex -14.4 0 9
    endloop
  endfacet
  facet normal 1 -0 0
    outer loop
      vertex -9.75 0 9
      vertex -9.75 17 6
      vertex -9.75 17 9
    endloop
  endfacet
  facet normal 1 0 0
    outer loop
      vertex -9.75 17 6
      vertex -9.75 0 9
      vertex -9.75 0 6
    endloop
  endfacet
  facet normal 0 1 0
    outer loop
      vertex 49.25 17 9
      vertex 48.1 17 7.7
      vertex 44.6 17 9
    endloop
  endfacet
  facet normal 0 1 0
    outer loop
      vertex 49.25 17 9
      vertex 48.1 17 6
      vertex 48.1 17 7.7
    endloop
  endfacet
  facet normal 0 1 0
    outer loop
      vertex 49.25 17 3
      vertex 29.4 17 6
      vertex 48.1 17 6
    endloop
  endfacet
  facet normal 0 1 0
    outer loop
      vertex 15.25 17 3
      vertex 29.4 17 6
      vertex 49.25 17 3
    endloop
  endfacet
  facet normal 0 1 0
    outer loop
      vertex 28.25 17 6
      vertex 15.25 17 3
      vertex -9.75 17 6
    endloop
  endfacet
  facet normal 0 1 -0
    outer loop
      vertex 3.25 17 3
      vertex -9.75 17 6
      vertex 15.25 17 3
    endloop
  endfacet
  facet normal 0 1 0
    outer loop
      vertex 29.4 17 6
      vertex 15.25 17 3
      vertex 28.25 17 6
    endloop
  endfacet
  facet normal 0 1 -0
    outer loop
      vertex 49.25 17 3
      vertex 48.1 17 6
      vertex 49.25 17 9
    endloop
  endfacet
  facet normal 0 1 0
    outer loop
      vertex 44.6 17 9
      vertex 48.1 17 7.7
      vertex 44.6 17 7.7
    endloop
  endfacet
  facet normal 0 1 0
    outer loop
      vertex 29.4 17 7.7
      vertex 32.6 17 9
      vertex 32.6 17 7.7
    endloop
  endfacet
  facet normal 0 1 0
    outer loop
      vertex 32.6 17 9
      vertex 29.4 17 7.7
      vertex 28.25 17 9
    endloop
  endfacet
  facet normal 0 1 0
    outer loop
      vertex 28.25 17 6
      vertex 29.4 17 7.7
      vertex 29.4 17 6
    endloop
  endfacet
  facet normal 0 1 0
    outer loop
      vertex 29.4 17 7.7
      vertex 28.25 17 6
      vertex 28.25 17 9
    endloop
  endfacet
  facet normal 0 1 0
    outer loop
      vertex -9.75 17 9
      vertex -10.9 17 7.7
      vertex -14.4 17 9
    endloop
  endfacet
  facet normal 0 1 -0
    outer loop
      vertex -9.75 17 6
      vertex -10.9 17 7.7
      vertex -9.75 17 9
    endloop
  endfacet
  facet normal 0 1 0
    outer loop
      vertex -10.9 17 7.7
      vertex -9.75 17 6
      vertex -10.9 17 6
    endloop
  endfacet
  facet normal 0 1 0
    outer loop
      vertex -14.4 17 9
      vertex -10.9 17 7.7
      vertex -14.4 17 7.7
    endloop
  endfacet
  facet normal 0 1 0
    outer loop
      vertex -29.6 17 7.7
      vertex -26.4 17 9
      vertex -26.4 17 7.7
    endloop
  endfacet
  facet normal 0 1 0
    outer loop
      vertex -26.4 17 9
      vertex -29.6 17 7.7
      vertex -30.75 17 9
    endloop
  endfacet
  facet normal 0 1 -0
    outer loop
      vertex -29.6 17 6
      vertex -30.75 17 9
      vertex -29.6 17 7.7
    endloop
  endfacet
  facet normal 0 1 0
    outer loop
      vertex -9.75 17 6
      vertex 3.25 17 3
      vertex -10.9 17 6
    endloop
  endfacet
  facet normal 0 1 0
    outer loop
      vertex -30.75 17 3
      vertex -10.9 17 6
      vertex 3.25 17 3
    endloop
  endfacet
  facet normal 0 1 0
    outer loop
      vertex -29.6 17 6
      vertex -30.75 17 3
      vertex -30.75 17 9
    endloop
  endfacet
  facet normal 0 1 0
    outer loop
      vertex -10.9 17 6
      vertex -30.75 17 3
      vertex -29.6 17 6
    endloop
  endfacet
  facet normal 0 1 -0
    outer loop
      vertex 18.5 17 0
      vertex 15.25 17 1.7
      vertex 18.5 17 1.7
    endloop
  endfacet
  facet normal 0 1 0
    outer loop
      vertex 15.25 17 1.7
      vertex 18.5 17 0
      vertex 3.25 17 1.7
    endloop
  endfacet
  facet normal 0 1 0
    outer loop
      vertex 0 17 0
      vertex 3.25 17 1.7
      vertex 18.5 17 0
    endloop
  endfacet
  facet normal 0 1 0
    outer loop
      vertex 3.25 17 1.7
      vertex 0 17 0
      vertex 0 17 1.7
    endloop
  endfacet
  facet normal 0 1 -0
    outer loop
      vertex 15.25 17 1.7
      vertex 3.25 17 3
      vertex 15.25 17 3
    endloop
  endfacet
  facet normal 0 1 0
    outer loop
      vertex 3.25 17 3
      vertex 15.25 17 1.7
      vertex 3.25 17 1.7
    endloop
  endfacet
  facet normal -0 0 1
    outer loop
      vertex -9.75 17 6
      vertex 28.25 0 6
      vertex 28.25 17 6
    endloop
  endfacet
  facet normal 0 0 1
    outer loop
      vertex 28.25 0 6
      vertex -9.75 17 6
      vertex -9.75 0 6
    endloop
  endfacet
  facet normal -0 0 1
    outer loop
      vertex 29.4 17 6
      vertex 48.1 0 6
      vertex 48.1 17 6
    endloop
  endfacet
  facet normal 0 0 1
    outer loop
      vertex 48.1 0 6
      vertex 29.4 17 6
      vertex 29.4 0 6
    endloop
  endfacet
  facet normal -0 0 1
    outer loop
      vertex -29.6 17 6
      vertex -10.9 0 6
      vertex -10.9 17 6
    endloop
  endfacet
  facet normal 0 0 1
    outer loop
      vertex -10.9 0 6
      vertex -29.6 17 6
      vertex -29.6 0 6
    endloop
  endfacet
  facet normal 0 -1 0
    outer loop
      vertex -30.75 0 9
      vertex -29.6 0 7.7
      vertex -26.4 0 9
    endloop
  endfacet
  facet normal 0 -1 0
    outer loop
      vertex -30.75 0 9
      vertex -29.6 0 6
      vertex -29.6 0 7.7
    endloop
  endfacet
  facet normal 0 -1 0
    outer loop
      vertex -30.75 0 3
      vertex -10.9 0 6
      vertex -29.6 0 6
    endloop
  endfacet
  facet normal 0 -1 0
    outer loop
      vertex 3.25 0 3
      vertex -10.9 0 6
      vertex -30.75 0 3
    endloop
  endfacet
  facet normal 0 -1 0
    outer loop
      vertex -9.75 0 6
      vertex 3.25 0 3
      vertex 28.25 0 6
    endloop
  endfacet
  facet normal 0 -1 0
    outer loop
      vertex 15.25 0 3
      vertex 28.25 0 6
      vertex 3.25 0 3
    endloop
  endfacet
  facet normal 0 -1 0
    outer loop
      vertex -10.9 0 6
      vertex 3.25 0 3
      vertex -9.75 0 6
    endloop
  endfacet
  facet normal 0 -1 0
    outer loop
      vertex -30.75 0 3
      vertex -29.6 0 6
      vertex -30.75 0 9
    endloop
  endfacet
  facet normal 0 -1 -0
    outer loop
      vertex -26.4 0 9
      vertex -29.6 0 7.7
      vertex -26.4 0 7.7
    endloop
  endfacet
  facet normal 0 -1 0
    outer loop
      vertex -10.9 0 7.7
      vertex -14.4 0 9
      vertex -14.4 0 7.7
    endloop
  endfacet
  facet normal 0 -1 0
    outer loop
      vertex -14.4 0 9
      vertex -10.9 0 7.7
      vertex -9.75 0 9
    endloop
  endfacet
  facet normal 0 -1 0
    outer loop
      vertex -9.75 0 6
      vertex -10.9 0 7.7
      vertex -10.9 0 6
    endloop
  endfacet
  facet normal 0 -1 0
    outer loop
      vertex -10.9 0 7.7
      vertex -9.75 0 6
      vertex -9.75 0 9
    endloop
  endfacet
  facet normal 0 -1 0
    outer loop
      vertex 28.25 0 9
      vertex 29.4 0 7.7
      vertex 32.6 0 9
    endloop
  endfacet
  facet normal 0 -1 0
    outer loop
      vertex 28.25 0 6
      vertex 29.4 0 7.7
      vertex 28.25 0 9
    endloop
  endfacet
  facet normal 0 -1 -0
    outer loop
      vertex 29.4 0 7.7
      vertex 28.25 0 6
      vertex 29.4 0 6
    endloop
  endfacet
  facet normal 0 -1 -0
    outer loop
      vertex 32.6 0 9
      vertex 29.4 0 7.7
      vertex 32.6 0 7.7
    endloop
  endfacet
  facet normal 0 -1 0
    outer loop
      vertex 48.1 0 7.7
      vertex 44.6 0 9
      vertex 44.6 0 7.7
    endloop
  endfacet
  facet normal 0 -1 0
    outer loop
      vertex 44.6 0 9
      vertex 48.1 0 7.7
      vertex 49.25 0 9
    endloop
  endfacet
  facet normal 0 -1 0
    outer loop
      vertex 48.1 0 6
      vertex 49.25 0 9
      vertex 48.1 0 7.7
    endloop
  endfacet
  facet normal 0 -1 -0
    outer loop
      vertex 28.25 0 6
      vertex 15.25 0 3
      vertex 29.4 0 6
    endloop
  endfacet
  facet normal 0 -1 0
    outer loop
      vertex 49.25 0 3
      vertex 29.4 0 6
      vertex 15.25 0 3
    endloop
  endfacet
  facet normal 0 -1 0
    outer loop
      vertex 48.1 0 6
      vertex 49.25 0 3
      vertex 49.25 0 9
    endloop
  endfacet
  facet normal 0 -1 0
    outer loop
      vertex 29.4 0 6
      vertex 49.25 0 3
      vertex 48.1 0 6
    endloop
  endfacet
  facet normal 0 -1 0
    outer loop
      vertex 0 0 0
      vertex 3.25 0 1.7
      vertex 0 0 1.7
    endloop
  endfacet
  facet normal 0 -1 -0
    outer loop
      vertex 3.25 0 1.7
      vertex 0 0 0
      vertex 15.25 0 1.7
    endloop
  endfacet
  facet normal 0 -1 0
    outer loop
      vertex 18.5 0 0
      vertex 15.25 0 1.7
      vertex 0 0 0
    endloop
  endfacet
  facet normal 0 -1 0
    outer loop
      vertex 15.25 0 1.7
      vertex 18.5 0 0
      vertex 18.5 0 1.7
    endloop
  endfacet
  facet normal 0 -1 0
    outer loop
      vertex 3.25 0 1.7
      vertex 15.25 0 3
      vertex 3.25 0 3
    endloop
  endfacet
  facet normal 0 -1 -0
    outer loop
      vertex 15.25 0 3
      vertex 3.25 0 1.7
      vertex 15.25 0 1.7
    endloop
  endfacet
  facet normal 1 -0 0
    outer loop
      vertex -29.6 0 7.7
      vertex -29.6 17 6
      vertex -29.6 17 7.7
    endloop
  endfacet
  facet normal 1 0 0
    outer loop
      vertex -29.6 17 6
      vertex -29.6 0 7.7
      vertex -29.6 0 6
    endloop
  endfacet
  facet normal 0 0 -1
    outer loop
      vertex -29.6 0 7.7
      vertex -26.4 17 7.7
      vertex -26.4 0 7.7
    endloop
  endfacet
  facet normal -0 0 -1
    outer loop
      vertex -26.4 17 7.7
      vertex -29.6 0 7.7
      vertex -29.6 17 7.7
    endloop
  endfacet
  facet normal 0 0 -1
    outer loop
      vertex -14.4 0 7.7
      vertex -10.9 17 7.7
      vertex -10.9 0 7.7
    endloop
  endfacet
  facet normal -0 0 -1
    outer loop
      vertex -10.9 17 7.7
      vertex -14.4 0 7.7
      vertex -14.4 17 7.7
    endloop
  endfacet
  facet normal -1 0 0
    outer loop
      vertex -10.9 0 6
      vertex -10.9 17 7.7
      vertex -10.9 17 6
    endloop
  endfacet
  facet normal -1 -0 0
    outer loop
      vertex -10.9 17 7.7
      vertex -10.9 0 6
      vertex -10.9 0 7.7
    endloop
  endfacet
  facet normal 1 -0 0
    outer loop
      vertex -26.4 0 9
      vertex -26.4 17 7.7
      vertex -26.4 17 9
    endloop
  endfacet
  facet normal 1 0 0
    outer loop
      vertex -26.4 17 7.7
      vertex -26.4 0 9
      vertex -26.4 0 7.7
    endloop
  endfacet
  facet normal -1 0 0
    outer loop
      vertex -14.4 0 7.7
      vertex -14.4 17 9
      vertex -14.4 17 7.7
    endloop
  endfacet
  facet normal -1 -0 0
    outer loop
      vertex -14.4 17 9
      vertex -14.4 0 7.7
      vertex -14.4 0 9
    endloop
  endfacet
  facet normal -1 0 0
    outer loop
      vertex 28.25 0 6
      vertex 28.25 17 9
      vertex 28.25 17 6
    endloop
  endfacet
  facet normal -1 -0 0
    outer loop
      vertex 28.25 17 9
      vertex 28.25 0 6
      vertex 28.25 0 9
    endloop
  endfacet
  facet normal -0 0 1
    outer loop
      vertex 28.25 17 9
      vertex 32.6 0 9
      vertex 32.6 17 9
    endloop
  endfacet
  facet normal 0 0 1
    outer loop
      vertex 32.6 0 9
      vertex 28.25 17 9
      vertex 28.25 0 9
    endloop
  endfacet
  facet normal -0 0 1
    outer loop
      vertex 44.6 17 9
      vertex 49.25 0 9
      vertex 49.25 17 9
    endloop
  endfacet
  facet normal 0 0 1
    outer loop
      vertex 49.25 0 9
      vertex 44.6 17 9
      vertex 44.6 0 9
    endloop
  endfacet
  facet normal 1 -0 0
    outer loop
      vertex 49.25 0 9
      vertex 49.25 17 3
      vertex 49.25 17 9
    endloop
  endfacet
  facet normal 1 0 0
    outer loop
      vertex 49.25 17 3
      vertex 49.25 0 9
      vertex 49.25 0 3
    endloop
  endfacet
  facet normal 1 -0 0
    outer loop
      vertex 29.4 0 7.7
      vertex 29.4 17 6
      vertex 29.4 17 7.7
    endloop
  endfacet
  facet normal 1 0 0
    outer loop
      vertex 29.4 17 6
      vertex 29.4 0 7.7
      vertex 29.4 0 6
    endloop
  endfacet
  facet normal 0 0 -1
    outer loop
      vertex 29.4 0 7.7
      vertex 32.6 17 7.7
      vertex 32.6 0 7.7
    endloop
  endfacet
  facet normal -0 0 -1
    outer loop
      vertex 32.6 17 7.7
      vertex 29.4 0 7.7
      vertex 29.4 17 7.7
    endloop
  endfacet
  facet normal 0 0 -1
    outer loop
      vertex 44.6 0 7.7
      vertex 48.1 17 7.7
      vertex 48.1 0 7.7
    endloop
  endfacet
  facet normal -0 0 -1
    outer loop
      vertex 48.1 17 7.7
      vertex 44.6 0 7.7
      vertex 44.6 17 7.7
    endloop
  endfacet
  facet normal -1 0 0
    outer loop
      vertex 48.1 0 6
      vertex 48.1 17 7.7
      vertex 48.1 17 6
    endloop
  endfacet
  facet normal -1 -0 0
    outer loop
      vertex 48.1 17 7.7
      vertex 48.1 0 6
      vertex 48.1 0 7.7
    endloop
  endfacet
  facet normal 1 -0 0
    outer loop
      vertex 32.6 0 9
      vertex 32.6 17 7.7
      vertex 32.6 17 9
    endloop
  endfacet
  facet normal 1 0 0
    outer loop
      vertex 32.6 17 7.7
      vertex 32.6 0 9
      vertex 32.6 0 7.7
    endloop
  endfacet
  facet normal -1 0 0
    outer loop
      vertex 44.6 0 7.7
      vertex 44.6 17 9
      vertex 44.6 17 7.7
    endloop
  endfacet
  facet normal -1 -0 0
    outer loop
      vertex 44.6 17 9
      vertex 44.6 0 7.7
      vertex 44.6 0 9
    endloop
  endfacet
  facet normal -1 0 0
    outer loop
      vertex 0 0 0
      vertex 0 17 1.7
      vertex 0 17 0
    endloop
  endfacet
  facet normal -1 -0 0
    outer loop
      vertex 0 17 1.7
      vertex 0 0 0
      vertex 0 0 1.7
    endloop
  endfacet
  facet normal -0 0 1
    outer loop
      vertex 0 17 1.7
      vertex 3.25 0 1.7
      vertex 3.25 17 1.7
    endloop
  endfacet
  facet normal 0 0 1
    outer loop
      vertex 3.25 0 1.7
      vertex 0 17 1.7
      vertex 0 0 1.7
    endloop
  endfacet
  facet normal -0 0 1
    outer loop
      vertex 15.25 17 1.7
      vertex 18.5 0 1.7
      vertex 18.5 17 1.7
    endloop
  endfacet
  facet normal 0 0 1
    outer loop
      vertex 18.5 0 1.7
      vertex 15.25 17 1.7
      vertex 15.25 0 1.7
    endloop
  endfacet
  facet normal 1 -0 0
    outer loop
      vertex 18.5 0 1.7
      vertex 18.5 17 0
      vertex 18.5 17 1.7
    endloop
  endfacet
  facet normal 1 0 0
    outer loop
      vertex 18.5 17 0
      vertex 18.5 0 1.7
      vertex 18.5 0 0
    endloop
  endfacet
  facet normal 0 0 -1
    outer loop
      vertex 0 0 0
      vertex 18.5 17 0
      vertex 18.5 0 0
    endloop
  endfacet
  facet normal -0 0 -1
    outer loop
      vertex 18.5 17 0
      vertex 0 0 0
      vertex 0 17 0
    endloop
  endfacet
  facet normal -1 0 0
    outer loop
      vertex 3.25 0 1.7
      vertex 3.25 17 3
      vertex 3.25 17 1.7
    endloop
  endfacet
  facet normal -1 -0 0
    outer loop
      vertex 3.25 17 3
      vertex 3.25 0 1.7
      vertex 3.25 0 3
    endloop
  endfacet
  facet normal 0 0 -1
    outer loop
      vertex -30.75 0 3
      vertex 3.25 17 3
      vertex 3.25 0 3
    endloop
  endfacet
  facet normal -0 0 -1
    outer loop
      vertex 3.25 17 3
      vertex -30.75 0 3
      vertex -30.75 17 3
    endloop
  endfacet
  facet normal 0 0 -1
    outer loop
      vertex 15.25 0 3
      vertex 49.25 17 3
      vertex 49.25 0 3
    endloop
  endfacet
  facet normal -0 0 -1
    outer loop
      vertex 49.25 17 3
      vertex 15.25 0 3
      vertex 15.25 17 3
    endloop
  endfacet
  facet normal 1 -0 0
    outer loop
      vertex 15.25 0 3
      vertex 15.25 17 1.7
      vertex 15.25 17 3
    endloop
  endfacet
  facet normal 1 0 0
    outer loop
      vertex 15.25 17 1.7
      vertex 15.25 0 3
      vertex 15.25 0 1.7
    endloop
  endfacet
endsolid OpenSCAD_Model
