solid OpenSCAD_Model
  facet normal -1 0 0
    outer loop
      vertex -12.5 -25 0
      vertex -12.5 -5 40
      vertex -12.5 -5 0
    endloop
  endfacet
  facet normal -1 -0 0
    outer loop
      vertex -12.5 -5 40
      vertex -12.5 -25 0
      vertex -12.5 -25 40
    endloop
  endfacet
  facet normal -0 0 1
    outer loop
      vertex -12.5 -5 40
      vertex -11.4467 -25 40
      vertex -11.4467 -5 40
    endloop
  endfacet
  facet normal 0 0 1
    outer loop
      vertex -11.4467 -25 40
      vertex -12.5 -5 40
      vertex -12.5 -25 40
    endloop
  endfacet
  facet normal -0 0 1
    outer loop
      vertex 11.4467 -5 40
      vertex 12.5 -25 40
      vertex 12.5 -5 40
    endloop
  endfacet
  facet normal 0 0 1
    outer loop
      vertex 12.5 -25 40
      vertex 11.4467 -5 40
      vertex 11.4467 -25 40
    endloop
  endfacet
  facet normal 1 -0 0
    outer loop
      vertex 12.5 -25 40
      vertex 12.5 -5 0
      vertex 12.5 -5 40
    endloop
  endfacet
  facet normal 1 0 0
    outer loop
      vertex 12.5 -5 0
      vertex 12.5 -25 40
      vertex 12.5 -25 0
    endloop
  endfacet
  facet normal 0 1 0
    outer loop
      vertex 12.5 -5 40
      vertex 11.4193 -5 39.9158
      vertex 11.4467 -5 40
    endloop
  endfacet
  facet normal 0 1 0
    outer loop
      vertex 12.5 -5 40
      vertex 10.1127 -5 37.6527
      vertex 11.4193 -5 39.9158
    endloop
  endfacet
  facet normal 0 1 -0
    outer loop
      vertex 11.25 -5 35
      vertex 10.1127 -5 37.6527
      vertex 12.5 -5 40
    endloop
  endfacet
  facet normal 0 1 0
    outer loop
      vertex 10.1127 -5 37.6527
      vertex 11.25 -5 35
      vertex 10.302 -5 35
    endloop
  endfacet
  facet normal 0 1 -0
    outer loop
      vertex 12.5 -5 0
      vertex 11.25 -5 35
      vertex 12.5 -5 40
    endloop
  endfacet
  facet normal 0 1 0
    outer loop
      vertex 11.25 -5 3
      vertex 12.5 -5 0
      vertex -11.25 -5 3
    endloop
  endfacet
  facet normal 0 1 0
    outer loop
      vertex 11.25 -5 35
      vertex 12.5 -5 0
      vertex 11.25 -5 3
    endloop
  endfacet
  facet normal 0 1 0
    outer loop
      vertex 10.1127 -5 37.6527
      vertex 10.302 -5 35
      vertex 8.36413 -5 35.7107
    endloop
  endfacet
  facet normal 0 1 -0
    outer loop
      vertex 10.2774 -5 34.9326
      vertex 8.36413 -5 35.7107
      vertex 10.302 -5 35
    endloop
  endfacet
  facet normal 0 1 -0
    outer loop
      vertex 9.10144 -5 33.1221
      vertex 8.36413 -5 35.7107
      vertex 10.2774 -5 34.9326
    endloop
  endfacet
  facet normal 0 1 0
    outer loop
      vertex 8.36413 -5 35.7107
      vertex 9.10144 -5 33.1221
      vertex 6.25 -5 34.1747
    endloop
  endfacet
  facet normal 0 1 -0
    outer loop
      vertex 7.52772 -5 31.5686
      vertex 6.25 -5 34.1747
      vertex 9.10144 -5 33.1221
    endloop
  endfacet
  facet normal 0 1 0
    outer loop
      vertex 5.625 -5 30.3397
      vertex 6.25 -5 34.1747
      vertex 7.52772 -5 31.5686
    endloop
  endfacet
  facet normal 0 1 0
    outer loop
      vertex 3.47644 -5 29.4894
      vertex 3.86271 -5 33.1118
      vertex 5.625 -5 30.3397
    endloop
  endfacet
  facet normal 0 1 0
    outer loop
      vertex 6.25 -5 34.1747
      vertex 5.625 -5 30.3397
      vertex 3.86271 -5 33.1118
    endloop
  endfacet
  facet normal 0 1 0
    outer loop
      vertex -8.36413 -5 35.7107
      vertex -10.2774 -5 34.9326
      vertex -10.302 -5 35
    endloop
  endfacet
  facet normal 0 1 0
    outer loop
      vertex -9.10144 -5 33.1221
      vertex -8.36413 -5 35.7107
      vertex -6.25 -5 34.1747
    endloop
  endfacet
  facet normal 0 1 0
    outer loop
      vertex -8.36413 -5 35.7107
      vertex -9.10144 -5 33.1221
      vertex -10.2774 -5 34.9326
    endloop
  endfacet
  facet normal 0 1 -0
    outer loop
      vertex -5.625 -5 30.3397
      vertex -6.25 -5 34.1747
      vertex -3.86271 -5 33.1118
    endloop
  endfacet
  facet normal 0 1 -0
    outer loop
      vertex -3.47644 -5 29.4894
      vertex -3.86271 -5 33.1118
      vertex -1.30661 -5 32.5685
    endloop
  endfacet
  facet normal 0 1 0
    outer loop
      vertex 3.86271 -5 33.1118
      vertex 3.47644 -5 29.4894
      vertex 1.30661 -5 32.5685
    endloop
  endfacet
  facet normal 0 1 0
    outer loop
      vertex 1.17594 -5 29.0548
      vertex 1.30661 -5 32.5685
      vertex 3.47644 -5 29.4894
    endloop
  endfacet
  facet normal 0 1 0
    outer loop
      vertex 1.30661 -5 32.5685
      vertex 1.17594 -5 29.0548
      vertex -1.30661 -5 32.5685
    endloop
  endfacet
  facet normal 0 1 -0
    outer loop
      vertex -1.17594 -5 29.0548
      vertex -1.30661 -5 32.5685
      vertex 1.17594 -5 29.0548
    endloop
  endfacet
  facet normal 0 1 0
    outer loop
      vertex -6.25 -5 34.1747
      vertex -7.52772 -5 31.5686
      vertex -9.10144 -5 33.1221
    endloop
  endfacet
  facet normal 0 1 0
    outer loop
      vertex -6.25 -5 34.1747
      vertex -5.625 -5 30.3397
      vertex -7.52772 -5 31.5686
    endloop
  endfacet
  facet normal 0 1 0
    outer loop
      vertex -3.86271 -5 33.1118
      vertex -3.47644 -5 29.4894
      vertex -5.625 -5 30.3397
    endloop
  endfacet
  facet normal 0 1 0
    outer loop
      vertex -1.30661 -5 32.5685
      vertex -1.17594 -5 29.0548
      vertex -3.47644 -5 29.4894
    endloop
  endfacet
  facet normal 0 1 0
    outer loop
      vertex -11.4193 -5 39.9158
      vertex -12.5 -5 40
      vertex -11.4467 -5 40
    endloop
  endfacet
  facet normal 0 1 0
    outer loop
      vertex -10.1127 -5 37.6527
      vertex -12.5 -5 40
      vertex -11.4193 -5 39.9158
    endloop
  endfacet
  facet normal 0 1 0
    outer loop
      vertex -10.302 -5 35
      vertex -10.1127 -5 37.6527
      vertex -8.36413 -5 35.7107
    endloop
  endfacet
  facet normal 0 1 0
    outer loop
      vertex -11.25 -5 35
      vertex -10.1127 -5 37.6527
      vertex -10.302 -5 35
    endloop
  endfacet
  facet normal 0 1 0
    outer loop
      vertex -10.1127 -5 37.6527
      vertex -11.25 -5 35
      vertex -12.5 -5 40
    endloop
  endfacet
  facet normal 0 1 0
    outer loop
      vertex -12.5 -5 0
      vertex -11.25 -5 35
      vertex -11.25 -5 3
    endloop
  endfacet
  facet normal 0 1 0
    outer loop
      vertex -11.25 -5 35
      vertex -12.5 -5 0
      vertex -12.5 -5 40
    endloop
  endfacet
  facet normal 0 1 0
    outer loop
      vertex -12.5 -5 0
      vertex -11.25 -5 3
      vertex 12.5 -5 0
    endloop
  endfacet
  facet normal 0 0 -1
    outer loop
      vertex -12.5 -25 0
      vertex 12.5 -5 0
      vertex 12.5 -25 0
    endloop
  endfacet
  facet normal -0 0 -1
    outer loop
      vertex 12.5 -5 0
      vertex -12.5 -25 0
      vertex -12.5 -5 0
    endloop
  endfacet
  facet normal 0 -1 0
    outer loop
      vertex -12.5 -25 40
      vertex -11.4193 -25 39.9158
      vertex -11.4467 -25 40
    endloop
  endfacet
  facet normal 0 -1 0
    outer loop
      vertex -12.5 -25 40
      vertex -10.1127 -25 37.6527
      vertex -11.4193 -25 39.9158
    endloop
  endfacet
  facet normal 0 -1 0
    outer loop
      vertex -11.25 -25 35
      vertex -10.1127 -25 37.6527
      vertex -12.5 -25 40
    endloop
  endfacet
  facet normal 0 -1 0
    outer loop
      vertex -10.1127 -25 37.6527
      vertex -11.25 -25 35
      vertex -10.302 -25 35
    endloop
  endfacet
  facet normal 0 -1 0
    outer loop
      vertex -12.5 -25 0
      vertex -11.25 -25 35
      vertex -12.5 -25 40
    endloop
  endfacet
  facet normal 0 -1 -0
    outer loop
      vertex -11.25 -25 3
      vertex -12.5 -25 0
      vertex 11.25 -25 3
    endloop
  endfacet
  facet normal 0 -1 -0
    outer loop
      vertex -11.25 -25 35
      vertex -12.5 -25 0
      vertex -11.25 -25 3
    endloop
  endfacet
  facet normal 0 -1 -0
    outer loop
      vertex -10.1127 -25 37.6527
      vertex -10.302 -25 35
      vertex -8.36413 -25 35.7107
    endloop
  endfacet
  facet normal 0 -1 0
    outer loop
      vertex -10.2774 -25 34.9326
      vertex -8.36413 -25 35.7107
      vertex -10.302 -25 35
    endloop
  endfacet
  facet normal 0 -1 0
    outer loop
      vertex -9.10144 -25 33.1221
      vertex -8.36413 -25 35.7107
      vertex -10.2774 -25 34.9326
    endloop
  endfacet
  facet normal 0 -1 -0
    outer loop
      vertex -8.36413 -25 35.7107
      vertex -9.10144 -25 33.1221
      vertex -6.25 -25 34.1747
    endloop
  endfacet
  facet normal 0 -1 0
    outer loop
      vertex -7.52772 -25 31.5686
      vertex -6.25 -25 34.1747
      vertex -9.10144 -25 33.1221
    endloop
  endfacet
  facet normal 0 -1 0
    outer loop
      vertex -5.625 -25 30.3397
      vertex -6.25 -25 34.1747
      vertex -7.52772 -25 31.5686
    endloop
  endfacet
  facet normal 0 -1 0
    outer loop
      vertex -3.47644 -25 29.4894
      vertex -3.86271 -25 33.1118
      vertex -5.625 -25 30.3397
    endloop
  endfacet
  facet normal 0 -1 0
    outer loop
      vertex -6.25 -25 34.1747
      vertex -5.625 -25 30.3397
      vertex -3.86271 -25 33.1118
    endloop
  endfacet
  facet normal 0 -1 0
    outer loop
      vertex 8.36413 -25 35.7107
      vertex 10.2774 -25 34.9326
      vertex 10.302 -25 35
    endloop
  endfacet
  facet normal 0 -1 0
    outer loop
      vertex 9.10144 -25 33.1221
      vertex 8.36413 -25 35.7107
      vertex 6.25 -25 34.1747
    endloop
  endfacet
  facet normal 0 -1 0
    outer loop
      vertex 8.36413 -25 35.7107
      vertex 9.10144 -25 33.1221
      vertex 10.2774 -25 34.9326
    endloop
  endfacet
  facet normal 0 -1 0
    outer loop
      vertex 5.625 -25 30.3397
      vertex 6.25 -25 34.1747
      vertex 3.86271 -25 33.1118
    endloop
  endfacet
  facet normal 0 -1 0
    outer loop
      vertex 3.47644 -25 29.4894
      vertex 3.86271 -25 33.1118
      vertex 1.30661 -25 32.5685
    endloop
  endfacet
  facet normal 0 -1 0
    outer loop
      vertex -3.86271 -25 33.1118
      vertex -3.47644 -25 29.4894
      vertex -1.30661 -25 32.5685
    endloop
  endfacet
  facet normal 0 -1 0
    outer loop
      vertex -1.17594 -25 29.0548
      vertex -1.30661 -25 32.5685
      vertex -3.47644 -25 29.4894
    endloop
  endfacet
  facet normal 0 -1 0
    outer loop
      vertex -1.30661 -25 32.5685
      vertex -1.17594 -25 29.0548
      vertex 1.30661 -25 32.5685
    endloop
  endfacet
  facet normal 0 -1 0
    outer loop
      vertex 1.17594 -25 29.0548
      vertex 1.30661 -25 32.5685
      vertex -1.17594 -25 29.0548
    endloop
  endfacet
  facet normal 0 -1 0
    outer loop
      vertex 6.25 -25 34.1747
      vertex 7.52772 -25 31.5686
      vertex 9.10144 -25 33.1221
    endloop
  endfacet
  facet normal 0 -1 -0
    outer loop
      vertex 6.25 -25 34.1747
      vertex 5.625 -25 30.3397
      vertex 7.52772 -25 31.5686
    endloop
  endfacet
  facet normal 0 -1 -0
    outer loop
      vertex 3.86271 -25 33.1118
      vertex 3.47644 -25 29.4894
      vertex 5.625 -25 30.3397
    endloop
  endfacet
  facet normal 0 -1 -0
    outer loop
      vertex 1.30661 -25 32.5685
      vertex 1.17594 -25 29.0548
      vertex 3.47644 -25 29.4894
    endloop
  endfacet
  facet normal 0 -1 0
    outer loop
      vertex 11.4193 -25 39.9158
      vertex 12.5 -25 40
      vertex 11.4467 -25 40
    endloop
  endfacet
  facet normal 0 -1 0
    outer loop
      vertex 10.1127 -25 37.6527
      vertex 12.5 -25 40
      vertex 11.4193 -25 39.9158
    endloop
  endfacet
  facet normal 0 -1 0
    outer loop
      vertex 10.302 -25 35
      vertex 10.1127 -25 37.6527
      vertex 8.36413 -25 35.7107
    endloop
  endfacet
  facet normal 0 -1 0
    outer loop
      vertex 11.25 -25 35
      vertex 10.1127 -25 37.6527
      vertex 10.302 -25 35
    endloop
  endfacet
  facet normal 0 -1 0
    outer loop
      vertex 10.1127 -25 37.6527
      vertex 11.25 -25 35
      vertex 12.5 -25 40
    endloop
  endfacet
  facet normal 0 -1 0
    outer loop
      vertex 12.5 -25 0
      vertex 11.25 -25 35
      vertex 11.25 -25 3
    endloop
  endfacet
  facet normal 0 -1 0
    outer loop
      vertex 11.25 -25 35
      vertex 12.5 -25 0
      vertex 12.5 -25 40
    endloop
  endfacet
  facet normal 0 -1 0
    outer loop
      vertex 12.5 -25 0
      vertex 11.25 -25 3
      vertex -12.5 -25 0
    endloop
  endfacet
  facet normal -0.207913 0 0.978147
    outer loop
      vertex 1.30661 -5 32.5685
      vertex 3.86271 -25 33.1118
      vertex 3.86271 -5 33.1118
    endloop
  endfacet
  facet normal -0.207913 0 0.978147
    outer loop
      vertex 3.86271 -25 33.1118
      vertex 1.30661 -5 32.5685
      vertex 1.30661 -25 32.5685
    endloop
  endfacet
  facet normal 0.406737 0 0.913545
    outer loop
      vertex -6.25 -5 34.1747
      vertex -3.86271 -25 33.1118
      vertex -3.86271 -5 33.1118
    endloop
  endfacet
  facet normal 0.406737 0 0.913545
    outer loop
      vertex -3.86271 -25 33.1118
      vertex -6.25 -5 34.1747
      vertex -6.25 -25 34.1747
    endloop
  endfacet
  facet normal -0.866025 0 0.5
    outer loop
      vertex 10.1127 -25 37.6527
      vertex 11.4193 -5 39.9158
      vertex 10.1127 -5 37.6527
    endloop
  endfacet
  facet normal -0.866025 0 0.5
    outer loop
      vertex 11.4193 -5 39.9158
      vertex 10.1127 -25 37.6527
      vertex 11.4193 -25 39.9158
    endloop
  endfacet
  facet normal -0 0 1
    outer loop
      vertex -1.30661 -5 32.5685
      vertex 1.30661 -25 32.5685
      vertex 1.30661 -5 32.5685
    endloop
  endfacet
  facet normal 0 0 1
    outer loop
      vertex 1.30661 -25 32.5685
      vertex -1.30661 -5 32.5685
      vertex -1.30661 -25 32.5685
    endloop
  endfacet
  facet normal 0.743145 -0 0.669131
    outer loop
      vertex -10.1127 -25 37.6527
      vertex -8.36413 -5 35.7107
      vertex -10.1127 -5 37.6527
    endloop
  endfacet
  facet normal 0.743145 0 0.669131
    outer loop
      vertex -8.36413 -5 35.7107
      vertex -10.1127 -25 37.6527
      vertex -8.36413 -25 35.7107
    endloop
  endfacet
  facet normal 0.951058 -0 0.309013
    outer loop
      vertex -11.4467 -25 40
      vertex -11.4193 -5 39.9158
      vertex -11.4467 -5 40
    endloop
  endfacet
  facet normal 0.951058 0 0.309013
    outer loop
      vertex -11.4193 -5 39.9158
      vertex -11.4467 -25 40
      vertex -11.4193 -25 39.9158
    endloop
  endfacet
  facet normal -0.406737 0 0.913545
    outer loop
      vertex 3.86271 -5 33.1118
      vertex 6.25 -25 34.1747
      vertex 6.25 -5 34.1747
    endloop
  endfacet
  facet normal -0.406737 0 0.913545
    outer loop
      vertex 6.25 -25 34.1747
      vertex 3.86271 -5 33.1118
      vertex 3.86271 -25 33.1118
    endloop
  endfacet
  facet normal -0.587785 0 0.809017
    outer loop
      vertex 6.25 -5 34.1747
      vertex 8.36413 -25 35.7107
      vertex 8.36413 -5 35.7107
    endloop
  endfacet
  facet normal -0.587785 0 0.809017
    outer loop
      vertex 8.36413 -25 35.7107
      vertex 6.25 -5 34.1747
      vertex 6.25 -25 34.1747
    endloop
  endfacet
  facet normal -0.743145 0 0.669131
    outer loop
      vertex 8.36413 -25 35.7107
      vertex 10.1127 -5 37.6527
      vertex 8.36413 -5 35.7107
    endloop
  endfacet
  facet normal -0.743145 0 0.669131
    outer loop
      vertex 10.1127 -5 37.6527
      vertex 8.36413 -25 35.7107
      vertex 10.1127 -25 37.6527
    endloop
  endfacet
  facet normal 0.207913 0 0.978147
    outer loop
      vertex -3.86271 -5 33.1118
      vertex -1.30661 -25 32.5685
      vertex -1.30661 -5 32.5685
    endloop
  endfacet
  facet normal 0.207913 0 0.978147
    outer loop
      vertex -1.30661 -25 32.5685
      vertex -3.86271 -5 33.1118
      vertex -3.86271 -25 33.1118
    endloop
  endfacet
  facet normal 0.587785 0 0.809017
    outer loop
      vertex -8.36413 -5 35.7107
      vertex -6.25 -25 34.1747
      vertex -6.25 -5 34.1747
    endloop
  endfacet
  facet normal 0.587785 0 0.809017
    outer loop
      vertex -6.25 -25 34.1747
      vertex -8.36413 -5 35.7107
      vertex -8.36413 -25 35.7107
    endloop
  endfacet
  facet normal 0.866025 -0 0.5
    outer loop
      vertex -11.4193 -25 39.9158
      vertex -10.1127 -5 37.6527
      vertex -11.4193 -5 39.9158
    endloop
  endfacet
  facet normal 0.866025 0 0.5
    outer loop
      vertex -10.1127 -5 37.6527
      vertex -11.4193 -25 39.9158
      vertex -10.1127 -25 37.6527
    endloop
  endfacet
  facet normal -0.951058 0 0.309013
    outer loop
      vertex 11.4193 -25 39.9158
      vertex 11.4467 -5 40
      vertex 11.4193 -5 39.9158
    endloop
  endfacet
  facet normal -0.951058 0 0.309013
    outer loop
      vertex 11.4467 -5 40
      vertex 11.4193 -25 39.9158
      vertex 11.4467 -25 40
    endloop
  endfacet
  facet normal 1 -0 0
    outer loop
      vertex -11.25 -25 35
      vertex -11.25 -5 3
      vertex -11.25 -5 35
    endloop
  endfacet
  facet normal 1 0 0
    outer loop
      vertex -11.25 -5 3
      vertex -11.25 -25 35
      vertex -11.25 -25 3
    endloop
  endfacet
  facet normal 0 0 -1
    outer loop
      vertex -11.25 -25 35
      vertex -10.302 -5 35
      vertex -10.302 -25 35
    endloop
  endfacet
  facet normal -0 0 -1
    outer loop
      vertex -10.302 -5 35
      vertex -11.25 -25 35
      vertex -11.25 -5 35
    endloop
  endfacet
  facet normal 0 0 -1
    outer loop
      vertex 10.302 -25 35
      vertex 11.25 -5 35
      vertex 11.25 -25 35
    endloop
  endfacet
  facet normal -0 0 -1
    outer loop
      vertex 11.25 -5 35
      vertex 10.302 -25 35
      vertex 10.302 -5 35
    endloop
  endfacet
  facet normal -1 0 0
    outer loop
      vertex 11.25 -25 3
      vertex 11.25 -5 35
      vertex 11.25 -5 3
    endloop
  endfacet
  facet normal -1 -0 0
    outer loop
      vertex 11.25 -5 35
      vertex 11.25 -25 3
      vertex 11.25 -25 35
    endloop
  endfacet
  facet normal -0 0 1
    outer loop
      vertex -11.25 -5 3
      vertex 11.25 -25 3
      vertex 11.25 -5 3
    endloop
  endfacet
  facet normal 0 0 1
    outer loop
      vertex 11.25 -25 3
      vertex -11.25 -5 3
      vertex -11.25 -25 3
    endloop
  endfacet
  facet normal 0.185655 0 -0.982615
    outer loop
      vertex 1.17594 -25 29.0548
      vertex 3.47644 -5 29.4894
      vertex 3.47644 -25 29.4894
    endloop
  endfacet
  facet normal 0.185655 0 -0.982615
    outer loop
      vertex 3.47644 -5 29.4894
      vertex 1.17594 -25 29.0548
      vertex 1.17594 -5 29.0548
    endloop
  endfacet
  facet normal -0.367988 0 -0.929831
    outer loop
      vertex -5.625 -25 30.3397
      vertex -3.47644 -5 29.4894
      vertex -3.47644 -25 29.4894
    endloop
  endfacet
  facet normal -0.367988 0 -0.929831
    outer loop
      vertex -3.47644 -5 29.4894
      vertex -5.625 -25 30.3397
      vertex -5.625 -5 30.3397
    endloop
  endfacet
  facet normal 0.838628 0 -0.544705
    outer loop
      vertex 10.2774 -25 34.9326
      vertex 9.10144 -5 33.1221
      vertex 10.2774 -5 34.9326
    endloop
  endfacet
  facet normal 0.838628 0 -0.544705
    outer loop
      vertex 9.10144 -5 33.1221
      vertex 10.2774 -25 34.9326
      vertex 9.10144 -25 33.1221
    endloop
  endfacet
  facet normal 0 0 -1
    outer loop
      vertex -1.17594 -25 29.0548
      vertex 1.17594 -5 29.0548
      vertex 1.17594 -25 29.0548
    endloop
  endfacet
  facet normal -0 0 -1
    outer loop
      vertex 1.17594 -5 29.0548
      vertex -1.17594 -25 29.0548
      vertex -1.17594 -5 29.0548
    endloop
  endfacet
  facet normal -0.702541 0 -0.711643
    outer loop
      vertex -9.10144 -25 33.1221
      vertex -7.52772 -5 31.5686
      vertex -7.52772 -25 31.5686
    endloop
  endfacet
  facet normal -0.702541 0 -0.711643
    outer loop
      vertex -7.52772 -5 31.5686
      vertex -9.10144 -25 33.1221
      vertex -9.10144 -5 33.1221
    endloop
  endfacet
  facet normal -0.939221 0 -0.343313
    outer loop
      vertex -10.2774 -25 34.9326
      vertex -10.302 -5 35
      vertex -10.2774 -5 34.9326
    endloop
  endfacet
  facet normal -0.939221 -0 -0.343313
    outer loop
      vertex -10.302 -5 35
      vertex -10.2774 -25 34.9326
      vertex -10.302 -25 35
    endloop
  endfacet
  facet normal 0.367988 0 -0.929831
    outer loop
      vertex 3.47644 -25 29.4894
      vertex 5.625 -5 30.3397
      vertex 5.625 -25 30.3397
    endloop
  endfacet
  facet normal 0.367988 0 -0.929831
    outer loop
      vertex 5.625 -5 30.3397
      vertex 3.47644 -25 29.4894
      vertex 3.47644 -5 29.4894
    endloop
  endfacet
  facet normal 0.542516 0 -0.840046
    outer loop
      vertex 5.625 -25 30.3397
      vertex 7.52772 -5 31.5686
      vertex 7.52772 -25 31.5686
    endloop
  endfacet
  facet normal 0.542516 0 -0.840046
    outer loop
      vertex 7.52772 -5 31.5686
      vertex 5.625 -25 30.3397
      vertex 5.625 -5 30.3397
    endloop
  endfacet
  facet normal 0.702541 0 -0.711643
    outer loop
      vertex 7.52772 -25 31.5686
      vertex 9.10144 -5 33.1221
      vertex 9.10144 -25 33.1221
    endloop
  endfacet
  facet normal 0.702541 0 -0.711643
    outer loop
      vertex 9.10144 -5 33.1221
      vertex 7.52772 -25 31.5686
      vertex 7.52772 -5 31.5686
    endloop
  endfacet
  facet normal -0.185655 0 -0.982615
    outer loop
      vertex -3.47644 -25 29.4894
      vertex -1.17594 -5 29.0548
      vertex -1.17594 -25 29.0548
    endloop
  endfacet
  facet normal -0.185655 0 -0.982615
    outer loop
      vertex -1.17594 -5 29.0548
      vertex -3.47644 -25 29.4894
      vertex -3.47644 -5 29.4894
    endloop
  endfacet
  facet normal -0.542516 0 -0.840046
    outer loop
      vertex -7.52772 -25 31.5686
      vertex -5.625 -5 30.3397
      vertex -5.625 -25 30.3397
    endloop
  endfacet
  facet normal -0.542516 0 -0.840046
    outer loop
      vertex -5.625 -5 30.3397
      vertex -7.52772 -25 31.5686
      vertex -7.52772 -5 31.5686
    endloop
  endfacet
  facet normal -0.838628 0 -0.544705
    outer loop
      vertex -9.10144 -25 33.1221
      vertex -10.2774 -5 34.9326
      vertex -9.10144 -5 33.1221
    endloop
  endfacet
  facet normal -0.838628 -0 -0.544705
    outer loop
      vertex -10.2774 -5 34.9326
      vertex -9.10144 -25 33.1221
      vertex -10.2774 -25 34.9326
    endloop
  endfacet
  facet normal 0.939221 0 -0.343313
    outer loop
      vertex 10.302 -25 35
      vertex 10.2774 -5 34.9326
      vertex 10.302 -5 35
    endloop
  endfacet
  facet normal 0.939221 0 -0.343313
    outer loop
      vertex 10.2774 -5 34.9326
      vertex 10.302 -25 35
      vertex 10.2774 -25 34.9326
    endloop
  endfacet
endsolid OpenSCAD_Model
