solid OpenSCAD_Model
  facet normal -1 0 0
    outer loop
      vertex 0 0 -4.51431e-07
      vertex 0 -0.281001 0.105062
      vertex 0 0 0
    endloop
  endfacet
  facet normal -1 0 0
    outer loop
      vertex 0 0 0
      vertex 0 8.5 0.144815
      vertex 0 8.5 0
    endloop
  endfacet
  facet normal -1 0 0
    outer loop
      vertex 0 8.5 0.144815
      vertex 0 1.40083 3.74669
      vertex 0 8.5 5.14796
    endloop
  endfacet
  facet normal -1 0 -0
    outer loop
      vertex 0 3.5468 9.35
      vertex 0 8.5 5.14796
      vertex 0 1.40083 3.74669
    endloop
  endfacet
  facet normal -1 0 0
    outer loop
      vertex 0 8.5 5.14796
      vertex 0 3.5468 9.35
      vertex 0 8.5 9.35
    endloop
  endfacet
  facet normal -1 -0 0
    outer loop
      vertex 0 3.5468 9.35
      vertex 0 1.40083 3.74669
      vertex 0 3.50207 9.36672
    endloop
  endfacet
  facet normal -1 -0 0
    outer loop
      vertex 0 8.5 0.144815
      vertex 0 0 0
      vertex 0 1.40083 3.74669
    endloop
  endfacet
  facet normal -1 -0 0
    outer loop
      vertex 0 1.40083 3.74669
      vertex 0 0 0
      vertex 0 1.11983 3.85175
    endloop
  endfacet
  facet normal -1 0 0
    outer loop
      vertex 0 1.11983 3.85175
      vertex 0 0 0
      vertex 0 -0.281001 0.105062
    endloop
  endfacet
  facet normal -1 0 0
    outer loop
      vertex 0 8.5 0.144815
      vertex 0 12.3914 0
      vertex 0 8.56907 0
    endloop
  endfacet
  facet normal -1 0 0
    outer loop
      vertex 0 12.3914 0
      vertex 0 8.5 0.144815
      vertex 0 9.66983 5.70595
    endloop
  endfacet
  facet normal -1 0 0
    outer loop
      vertex 0 9.66983 5.70595
      vertex 0 8.5 0.144815
      vertex 0 8.5 5.14796
    endloop
  endfacet
  facet normal -0 0.350208 0.936672
    outer loop
      vertex 0 3.5468 9.35
      vertex 2 3.50207 9.36672
      vertex 2 3.5468 9.35
    endloop
  endfacet
  facet normal 0 0.350208 0.936672
    outer loop
      vertex 2 3.50207 9.36672
      vertex 0 3.5468 9.35
      vertex 0 3.50207 9.36672
    endloop
  endfacet
  facet normal -0 0.350208 0.936672
    outer loop
      vertex 21 3.5468 9.35
      vertex 23 3.50207 9.36672
      vertex 23 3.5468 9.35
    endloop
  endfacet
  facet normal 0 0.350208 0.936672
    outer loop
      vertex 23 3.50207 9.36672
      vertex 21 3.5468 9.35
      vertex 21 3.50207 9.36672
    endloop
  endfacet
  facet normal 1 -0 0
    outer loop
      vertex 23 3.5468 9.35
      vertex 23 8.5 5.14796
      vertex 23 8.5 9.35
    endloop
  endfacet
  facet normal 1 0 0
    outer loop
      vertex 23 8.5 5.14796
      vertex 23 1.40083 3.74669
      vertex 23 8.5 0.144815
    endloop
  endfacet
  facet normal 1 0 0
    outer loop
      vertex 23 8.5 5.14796
      vertex 23 3.5468 9.35
      vertex 23 1.40083 3.74669
    endloop
  endfacet
  facet normal 1 0 0
    outer loop
      vertex 23 1.40083 3.74669
      vertex 23 3.5468 9.35
      vertex 23 3.50207 9.36672
    endloop
  endfacet
  facet normal 1 0 0
    outer loop
      vertex 23 0 0
      vertex 23 8.5 0.144815
      vertex 23 1.40083 3.74669
    endloop
  endfacet
  facet normal 1 0 0
    outer loop
      vertex 23 0 0
      vertex 23 1.40083 3.74669
      vertex 23 1.11983 3.85175
    endloop
  endfacet
  facet normal 1 0 0
    outer loop
      vertex 23 8.5 0.144815
      vertex 23 0 0
      vertex 23 8.5 0
    endloop
  endfacet
  facet normal 1 0 0
    outer loop
      vertex 23 0 0
      vertex 23 -0.281001 0.105062
      vertex 23 0 -4.51431e-07
    endloop
  endfacet
  facet normal 1 -0 0
    outer loop
      vertex 23 -0.281001 0.105062
      vertex 23 0 0
      vertex 23 1.11983 3.85175
    endloop
  endfacet
  facet normal 1 -0 0
    outer loop
      vertex 23 8.5 0.144815
      vertex 23 12.3914 0
      vertex 23 9.66983 5.70595
    endloop
  endfacet
  facet normal 1 0 0
    outer loop
      vertex 23 8.5 0.144815
      vertex 23 9.66983 5.70595
      vertex 23 8.5 5.14796
    endloop
  endfacet
  facet normal 1 0 0
    outer loop
      vertex 23 12.3914 0
      vertex 23 8.5 0.144815
      vertex 23 8.56907 0
    endloop
  endfacet
  facet normal 0 -0.936672 0.350207
    outer loop
      vertex 0 1.40083 3.74669
      vertex 2 3.50207 9.36672
      vertex 0 3.50207 9.36672
    endloop
  endfacet
  facet normal 0 -0.936672 0.350207
    outer loop
      vertex 2 3.50207 9.36672
      vertex 0 1.40083 3.74669
      vertex 2 1.40083 3.74669
    endloop
  endfacet
  facet normal 0 -0.936672 0.350207
    outer loop
      vertex 21 1.40083 3.74669
      vertex 23 3.50207 9.36672
      vertex 21 3.50207 9.36672
    endloop
  endfacet
  facet normal 0 -0.936672 0.350207
    outer loop
      vertex 23 3.50207 9.36672
      vertex 21 1.40083 3.74669
      vertex 23 1.40083 3.74669
    endloop
  endfacet
  facet normal 0 -0.902584 -0.430513
    outer loop
      vertex 0 8.56907 0
      vertex 5 8.5 0.144815
      vertex 0 8.5 0.144815
    endloop
  endfacet
  facet normal 0 -0.902584 -0.430513
    outer loop
      vertex 5 8.5 0.144815
      vertex 0 8.56907 0
      vertex 5 8.56907 0
    endloop
  endfacet
  facet normal 1 -0 0
    outer loop
      vertex 5 8.5 0.144815
      vertex 5 12.3914 0
      vertex 5 9.66983 5.70595
    endloop
  endfacet
  facet normal 1 0 0
    outer loop
      vertex 5 8.5 0.144815
      vertex 5 9.66983 5.70595
      vertex 5 8.5 5.14796
    endloop
  endfacet
  facet normal 1 0 0
    outer loop
      vertex 5 12.3914 0
      vertex 5 8.5 0.144815
      vertex 5 8.56907 0
    endloop
  endfacet
  facet normal 0 -0.430511 0.902585
    outer loop
      vertex 0 9.66983 5.70595
      vertex 5 8.5 5.14796
      vertex 5 9.66983 5.70595
    endloop
  endfacet
  facet normal 0 -0.430511 0.902585
    outer loop
      vertex 5 8.5 5.14796
      vertex 0 9.66983 5.70595
      vertex 0 8.5 5.14796
    endloop
  endfacet
  facet normal 0 0.902585 0.430511
    outer loop
      vertex 5 12.3914 0
      vertex 0 9.66983 5.70595
      vertex 5 9.66983 5.70595
    endloop
  endfacet
  facet normal 0 0.902585 0.430511
    outer loop
      vertex 0 9.66983 5.70595
      vertex 5 12.3914 0
      vertex 0 12.3914 0
    endloop
  endfacet
  facet normal 0 -0.430511 0.902585
    outer loop
      vertex 18 9.66983 5.70595
      vertex 23 8.5 5.14796
      vertex 23 9.66983 5.70595
    endloop
  endfacet
  facet normal 0 -0.430511 0.902585
    outer loop
      vertex 23 8.5 5.14796
      vertex 18 9.66983 5.70595
      vertex 18 8.5 5.14796
    endloop
  endfacet
  facet normal -1 0 0
    outer loop
      vertex 18 8.5 0.144815
      vertex 18 12.3914 0
      vertex 18 8.56907 0
    endloop
  endfacet
  facet normal -1 0 0
    outer loop
      vertex 18 12.3914 0
      vertex 18 8.5 0.144815
      vertex 18 9.66983 5.70595
    endloop
  endfacet
  facet normal -1 0 0
    outer loop
      vertex 18 9.66983 5.70595
      vertex 18 8.5 0.144815
      vertex 18 8.5 5.14796
    endloop
  endfacet
  facet normal 0 0.902585 0.430511
    outer loop
      vertex 23 12.3914 0
      vertex 18 9.66983 5.70595
      vertex 23 9.66983 5.70595
    endloop
  endfacet
  facet normal 0 0.902585 0.430511
    outer loop
      vertex 18 9.66983 5.70595
      vertex 23 12.3914 0
      vertex 18 12.3914 0
    endloop
  endfacet
  facet normal 0 -0.902584 -0.430513
    outer loop
      vertex 18 8.56907 0
      vertex 23 8.5 0.144815
      vertex 18 8.5 0.144815
    endloop
  endfacet
  facet normal 0 -0.902584 -0.430513
    outer loop
      vertex 23 8.5 0.144815
      vertex 18 8.56907 0
      vertex 23 8.56907 0
    endloop
  endfacet
  facet normal 0 0.350203 0.936674
    outer loop
      vertex 2 1.40083 3.74669
      vertex 0 1.40083 3.74669
      vertex 2 1.35877 3.76241
    endloop
  endfacet
  facet normal 0 0.350203 0.936674
    outer loop
      vertex 21 1.35877 3.76241
      vertex 23 1.40083 3.74669
      vertex 21 1.40083 3.74669
    endloop
  endfacet
  facet normal -9.71617e-08 0.350207 0.936672
    outer loop
      vertex 23 1.40083 3.74669
      vertex 21 1.35877 3.76241
      vertex 23 1.11983 3.85175
    endloop
  endfacet
  facet normal -0 0.350208 0.936672
    outer loop
      vertex 2 1.35877 3.76241
      vertex 23 1.11983 3.85175
      vertex 21 1.35877 3.76241
    endloop
  endfacet
  facet normal 0 0.350208 0.936672
    outer loop
      vertex 2 1.35877 3.76241
      vertex 0 1.11983 3.85175
      vertex 23 1.11983 3.85175
    endloop
  endfacet
  facet normal 9.71617e-08 0.350207 0.936672
    outer loop
      vertex 0 1.11983 3.85175
      vertex 2 1.35877 3.76241
      vertex 0 1.40083 3.74669
    endloop
  endfacet
  facet normal 0 -0.350207 -0.936672
    outer loop
      vertex 0 -0.281001 0.105062
      vertex 23 0 -4.51431e-07
      vertex 23 -0.281001 0.105062
    endloop
  endfacet
  facet normal -0 -0.350207 -0.936672
    outer loop
      vertex 23 0 -4.51431e-07
      vertex 0 -0.281001 0.105062
      vertex 0 0 -4.51431e-07
    endloop
  endfacet
  facet normal 0 -0.936672 0.350207
    outer loop
      vertex 0 -0.281001 0.105062
      vertex 23 1.11983 3.85175
      vertex 0 1.11983 3.85175
    endloop
  endfacet
  facet normal 0 -0.936672 0.350207
    outer loop
      vertex 23 1.11983 3.85175
      vertex 0 -0.281001 0.105062
      vertex 23 -0.281001 0.105062
    endloop
  endfacet
  facet normal 0 0 1
    outer loop
      vertex 23 8.5 9.35
      vertex 21 4.93554 9.35
      vertex 23 3.5468 9.35
    endloop
  endfacet
  facet normal 0 0 1
    outer loop
      vertex 23 8.5 9.35
      vertex 2 4.93554 9.35
      vertex 21 4.93554 9.35
    endloop
  endfacet
  facet normal -0 0 1
    outer loop
      vertex 0 8.5 9.35
      vertex 2 4.93554 9.35
      vertex 23 8.5 9.35
    endloop
  endfacet
  facet normal 0 0 1
    outer loop
      vertex 0 3.5468 9.35
      vertex 2 4.93554 9.35
      vertex 0 8.5 9.35
    endloop
  endfacet
  facet normal 0 0 1
    outer loop
      vertex 2 4.93554 9.35
      vertex 0 3.5468 9.35
      vertex 2 3.5468 9.35
    endloop
  endfacet
  facet normal 0 0 1
    outer loop
      vertex 23 3.5468 9.35
      vertex 21 4.93554 9.35
      vertex 21 3.5468 9.35
    endloop
  endfacet
  facet normal 0 1 0
    outer loop
      vertex 23 8.5 0.144815
      vertex 23 8.5 0
      vertex 18 8.5 0.144815
    endloop
  endfacet
  facet normal 0 1 0
    outer loop
      vertex 14.75 8.5 0.679999
      vertex 18 8.5 5.14796
      vertex 15.79 8.5 0.679999
    endloop
  endfacet
  facet normal 0 1 -0
    outer loop
      vertex 18 8.5 0.144815
      vertex 15.79 8.5 0.679999
      vertex 18 8.5 5.14796
    endloop
  endfacet
  facet normal 0 1 0
    outer loop
      vertex 18 8.5 0.144815
      vertex 15.79 8.5 0
      vertex 15.79 8.5 0.679999
    endloop
  endfacet
  facet normal 0 1 0
    outer loop
      vertex 15.79 8.5 0
      vertex 18 8.5 0.144815
      vertex 23 8.5 0
    endloop
  endfacet
  facet normal 0 1 0
    outer loop
      vertex 18 8.5 5.14796
      vertex 23 8.5 9.35
      vertex 23 8.5 5.14796
    endloop
  endfacet
  facet normal 0 1 0
    outer loop
      vertex 23 8.5 9.35
      vertex 18 8.5 5.14796
      vertex 0 8.5 9.35
    endloop
  endfacet
  facet normal 0 1 -0
    outer loop
      vertex 5 8.5 5.14796
      vertex 0 8.5 9.35
      vertex 18 8.5 5.14796
    endloop
  endfacet
  facet normal 0 1 0
    outer loop
      vertex 0 8.5 9.35
      vertex 5 8.5 5.14796
      vertex 0 8.5 5.14796
    endloop
  endfacet
  facet normal 0 1 0
    outer loop
      vertex 18 8.5 5.14796
      vertex 14.75 8.5 0.679999
      vertex 5 8.5 5.14796
    endloop
  endfacet
  facet normal 0 1 0
    outer loop
      vertex 14.75 8.5 0.679999
      vertex 5 8.5 0.144815
      vertex 5 8.5 5.14796
    endloop
  endfacet
  facet normal 0 1 -0
    outer loop
      vertex 14.75 8.5 0
      vertex 5 8.5 0.144815
      vertex 14.75 8.5 0.679999
    endloop
  endfacet
  facet normal 0 1 0
    outer loop
      vertex 0 8.5 0
      vertex 5 8.5 0.144815
      vertex 14.75 8.5 0
    endloop
  endfacet
  facet normal 0 1 0
    outer loop
      vertex 5 8.5 0.144815
      vertex 0 8.5 0
      vertex 0 8.5 0.144815
    endloop
  endfacet
  facet normal 0 0 -1
    outer loop
      vertex 23 0 0
      vertex 15.79 0.7 0
      vertex 23 8.5 0
    endloop
  endfacet
  facet normal 0 0 -1
    outer loop
      vertex 23 0 0
      vertex 14.75 0.7 0
      vertex 15.79 0.7 0
    endloop
  endfacet
  facet normal 0 0 -1
    outer loop
      vertex 0 0 0
      vertex 14.75 0.7 0
      vertex 23 0 0
    endloop
  endfacet
  facet normal 0 0 -1
    outer loop
      vertex 0 8.5 0
      vertex 14.75 0.7 0
      vertex 0 0 0
    endloop
  endfacet
  facet normal 0 0 -1
    outer loop
      vertex 14.75 0.7 0
      vertex 0 8.5 0
      vertex 14.75 8.5 0
    endloop
  endfacet
  facet normal -0 0 -1
    outer loop
      vertex 23 8.5 0
      vertex 15.79 0.7 0
      vertex 15.79 8.5 0
    endloop
  endfacet
  facet normal 0 0 -1
    outer loop
      vertex 0 8.56907 0
      vertex 5 12.3914 0
      vertex 5 8.56907 0
    endloop
  endfacet
  facet normal -0 0 -1
    outer loop
      vertex 5 12.3914 0
      vertex 0 8.56907 0
      vertex 0 12.3914 0
    endloop
  endfacet
  facet normal 0 0 -1
    outer loop
      vertex 18 8.56907 0
      vertex 23 12.3914 0
      vertex 23 8.56907 0
    endloop
  endfacet
  facet normal -0 0 -1
    outer loop
      vertex 23 12.3914 0
      vertex 18 8.56907 0
      vertex 18 12.3914 0
    endloop
  endfacet
  facet normal 1 -0 0
    outer loop
      vertex 2 3.5468 9.35
      vertex 2 2.55023 2.79641
      vertex 2 4.93554 9.35
    endloop
  endfacet
  facet normal 1 0 0
    outer loop
      vertex 2 1.40083 3.74669
      vertex 2 3.5468 9.35
      vertex 2 3.50207 9.36672
    endloop
  endfacet
  facet normal 1 0 0
    outer loop
      vertex 2 3.5468 9.35
      vertex 2 1.40083 3.74669
      vertex 2 2.55023 2.79641
    endloop
  endfacet
  facet normal 1 0 0
    outer loop
      vertex 2 1.18767 3.29234
      vertex 2 1.40083 3.74669
      vertex 2 1.35877 3.76241
    endloop
  endfacet
  facet normal 1 0 0
    outer loop
      vertex 2 1.40083 3.74669
      vertex 2 1.18767 3.29234
      vertex 2 2.55023 2.79641
    endloop
  endfacet
  facet normal -1 0 0
    outer loop
      vertex 21 2.55023 2.79641
      vertex 21 3.5468 9.35
      vertex 21 4.93554 9.35
    endloop
  endfacet
  facet normal -1 0 0
    outer loop
      vertex 21 1.40083 3.74669
      vertex 21 3.5468 9.35
      vertex 21 2.55023 2.79641
    endloop
  endfacet
  facet normal -1 -0 0
    outer loop
      vertex 21 3.5468 9.35
      vertex 21 1.40083 3.74669
      vertex 21 3.50207 9.36672
    endloop
  endfacet
  facet normal -1 0 0
    outer loop
      vertex 21 1.18767 3.29234
      vertex 21 1.40083 3.74669
      vertex 21 2.55023 2.79641
    endloop
  endfacet
  facet normal -1 -0 0
    outer loop
      vertex 21 1.40083 3.74669
      vertex 21 1.18767 3.29234
      vertex 21 1.35877 3.76241
    endloop
  endfacet
  facet normal 0 -0.939693 0.34202
    outer loop
      vertex 2 2.55023 2.79641
      vertex 21 4.93554 9.35
      vertex 2 4.93554 9.35
    endloop
  endfacet
  facet normal 0 -0.939693 0.34202
    outer loop
      vertex 21 4.93554 9.35
      vertex 2 2.55023 2.79641
      vertex 21 2.55023 2.79641
    endloop
  endfacet
  facet normal 2.12993e-08 0.342021 0.939692
    outer loop
      vertex 15.79 1.66692 3.11791
      vertex 21 2.55023 2.79641
      vertex 15.79 2.3153 2.88192
    endloop
  endfacet
  facet normal 0 0.342021 0.939692
    outer loop
      vertex 21 2.55023 2.79641
      vertex 14.75 2.3153 2.88192
      vertex 15.79 2.3153 2.88192
    endloop
  endfacet
  facet normal -8.7035e-09 0.342021 0.939692
    outer loop
      vertex 14.75 2.3153 2.88192
      vertex 2 2.55023 2.79641
      vertex 14.75 1.66692 3.11791
    endloop
  endfacet
  facet normal -0 0.342021 0.939692
    outer loop
      vertex 2 2.55023 2.79641
      vertex 14.75 2.3153 2.88192
      vertex 21 2.55023 2.79641
    endloop
  endfacet
  facet normal 2.52298e-09 0.342021 0.939692
    outer loop
      vertex 21 2.55023 2.79641
      vertex 15.79 1.66692 3.11791
      vertex 21 1.18767 3.29234
    endloop
  endfacet
  facet normal -0 0.342021 0.939692
    outer loop
      vertex 14.75 1.66692 3.11791
      vertex 21 1.18767 3.29234
      vertex 15.79 1.66692 3.11791
    endloop
  endfacet
  facet normal -1.03096e-09 0.342021 0.939692
    outer loop
      vertex 2 1.18767 3.29234
      vertex 14.75 1.66692 3.11791
      vertex 2 2.55023 2.79641
    endloop
  endfacet
  facet normal 0 0.342021 0.939692
    outer loop
      vertex 14.75 1.66692 3.11791
      vertex 2 1.18767 3.29234
      vertex 21 1.18767 3.29234
    endloop
  endfacet
  facet normal 0 0.939693 -0.34202
    outer loop
      vertex 21 1.18767 3.29234
      vertex 2 1.35877 3.76241
      vertex 21 1.35877 3.76241
    endloop
  endfacet
  facet normal 0 0.939693 -0.34202
    outer loop
      vertex 2 1.35877 3.76241
      vertex 21 1.18767 3.29234
      vertex 2 1.18767 3.29234
    endloop
  endfacet
  facet normal 0 1 -0
    outer loop
      vertex 23 0 -4.51431e-07
      vertex 0 0 0
      vertex 23 0 0
    endloop
  endfacet
  facet normal 0 1 0
    outer loop
      vertex 0 0 0
      vertex 23 0 -4.51431e-07
      vertex 0 0 -4.51431e-07
    endloop
  endfacet
  facet normal 1 0 0
    outer loop
      vertex 14.75 1.66692 3.11791
      vertex 14.75 1.51387 0.679999
      vertex 14.75 2.3153 2.88192
    endloop
  endfacet
  facet normal 1 0 -0
    outer loop
      vertex 14.75 1.51387 0.679999
      vertex 14.75 1.66692 3.11791
      vertex 14.75 0.779588 0.679999
    endloop
  endfacet
  facet normal 1 -0 0
    outer loop
      vertex 14.75 1.51387 0.679999
      vertex 14.75 8.5 0
      vertex 14.75 8.5 0.679999
    endloop
  endfacet
  facet normal 1 0 0
    outer loop
      vertex 14.75 0.7 0
      vertex 14.75 1.51387 0.679999
      vertex 14.75 0.779588 0.679999
    endloop
  endfacet
  facet normal 1 0 0
    outer loop
      vertex 14.75 0.7 0
      vertex 14.75 0.779588 0.679999
      vertex 14.75 0.7 0.679999
    endloop
  endfacet
  facet normal 1 0 0
    outer loop
      vertex 14.75 1.51387 0.679999
      vertex 14.75 0.7 0
      vertex 14.75 8.5 0
    endloop
  endfacet
  facet normal -1 0 0
    outer loop
      vertex 15.79 8.5 0
      vertex 15.79 1.51387 0.679999
      vertex 15.79 8.5 0.679999
    endloop
  endfacet
  facet normal -1 0 0
    outer loop
      vertex 15.79 0.7 0
      vertex 15.79 1.51387 0.679999
      vertex 15.79 8.5 0
    endloop
  endfacet
  facet normal -1 -0 0
    outer loop
      vertex 15.79 1.51387 0.679999
      vertex 15.79 0.7 0
      vertex 15.79 0.779588 0.679999
    endloop
  endfacet
  facet normal -1 -0 0
    outer loop
      vertex 15.79 0.779588 0.679999
      vertex 15.79 0.7 0
      vertex 15.79 0.7 0.679999
    endloop
  endfacet
  facet normal -1 0 0
    outer loop
      vertex 15.79 1.51387 0.679999
      vertex 15.79 1.66692 3.11791
      vertex 15.79 2.3153 2.88192
    endloop
  endfacet
  facet normal -1 0 0
    outer loop
      vertex 15.79 1.66692 3.11791
      vertex 15.79 1.51387 0.679999
      vertex 15.79 0.779588 0.679999
    endloop
  endfacet
  facet normal 0 0.939693 -0.34202
    outer loop
      vertex 15.79 0.779588 0.679999
      vertex 14.75 1.66692 3.11791
      vertex 15.79 1.66692 3.11791
    endloop
  endfacet
  facet normal 0 0.939693 -0.34202
    outer loop
      vertex 14.75 1.66692 3.11791
      vertex 15.79 0.779588 0.679999
      vertex 14.75 0.779588 0.679999
    endloop
  endfacet
  facet normal 0 -0.939693 0.34202
    outer loop
      vertex 14.75 1.51387 0.679999
      vertex 15.79 2.3153 2.88192
      vertex 14.75 2.3153 2.88192
    endloop
  endfacet
  facet normal 0 -0.939693 0.34202
    outer loop
      vertex 15.79 2.3153 2.88192
      vertex 14.75 1.51387 0.679999
      vertex 15.79 1.51387 0.679999
    endloop
  endfacet
  facet normal 0 0 -1
    outer loop
      vertex 14.75 0.7 0.679999
      vertex 15.79 0.779588 0.679999
      vertex 15.79 0.7 0.679999
    endloop
  endfacet
  facet normal -0 0 -1
    outer loop
      vertex 15.79 0.779588 0.679999
      vertex 14.75 0.7 0.679999
      vertex 14.75 0.779588 0.679999
    endloop
  endfacet
  facet normal 0 0 -1
    outer loop
      vertex 14.75 1.51387 0.679999
      vertex 15.79 8.5 0.679999
      vertex 15.79 1.51387 0.679999
    endloop
  endfacet
  facet normal -0 0 -1
    outer loop
      vertex 15.79 8.5 0.679999
      vertex 14.75 1.51387 0.679999
      vertex 14.75 8.5 0.679999
    endloop
  endfacet
  facet normal 0 1 -0
    outer loop
      vertex 15.79 0.7 0
      vertex 14.75 0.7 0.679999
      vertex 15.79 0.7 0.679999
    endloop
  endfacet
  facet normal 0 1 0
    outer loop
      vertex 14.75 0.7 0.679999
      vertex 15.79 0.7 0
      vertex 14.75 0.7 0
    endloop
  endfacet
endsolid OpenSCAD_Model
