solid OpenSCAD_Model
  facet normal -1 0 0
    outer loop
      vertex 0 -20 3.6
      vertex 0 -18.1687 6
      vertex 0 -19.0489 3.29098
    endloop
  endfacet
  facet normal -1 -0 0
    outer loop
      vertex 0 -18.1687 6
      vertex 0 -20 3.6
      vertex 0 -19 6.67768
    endloop
  endfacet
  facet normal -1 0 0
    outer loop
      vertex 0 15.1 -18.5
      vertex 0 19 3
      vertex 0 19 -21.5
    endloop
  endfacet
  facet normal -1 -0 0
    outer loop
      vertex 0 17.59 3
      vertex 0 16 2.7667
      vertex 0 17.59 6
    endloop
  endfacet
  facet normal -1 -0 0
    outer loop
      vertex 0 19 3
      vertex 0 15.1 0.149655
      vertex 0 17.59 3
    endloop
  endfacet
  facet normal -1 0 0
    outer loop
      vertex 0 19 3
      vertex 0 15.1 -18.5
      vertex 0 15.1 0.149655
    endloop
  endfacet
  facet normal -1 0 0
    outer loop
      vertex 0 19 -21.5
      vertex 0 -15.11 -18.5
      vertex 0 15.1 -18.5
    endloop
  endfacet
  facet normal -1 0 0
    outer loop
      vertex 0 -15.11 -18.5
      vertex 0 -15.1123 0.15
      vertex 0 -15.11 0.15
    endloop
  endfacet
  facet normal -1 0 0
    outer loop
      vertex 0 -19 3
      vertex 0 -15.1123 0.15
      vertex 0 -15.11 -18.5
    endloop
  endfacet
  facet normal -1 0 0
    outer loop
      vertex 0 -17.51 6
      vertex 0 -16 2.7389
      vertex 0 -17.51 3
    endloop
  endfacet
  facet normal -1 -0 -0
    outer loop
      vertex 0 -17.51 3
      vertex 0 -15.1123 0.15
      vertex 0 -19 3
    endloop
  endfacet
  facet normal -1 0 0
    outer loop
      vertex 0 -19 -21.5
      vertex 0 -15.11 -18.5
      vertex 0 19 -21.5
    endloop
  endfacet
  facet normal -1 0 0
    outer loop
      vertex 0 -19 3
      vertex 0 -15.11 -18.5
      vertex 0 -19 -21.5
    endloop
  endfacet
  facet normal -1 0 0
    outer loop
      vertex 0 -15.1123 0.15
      vertex 0 -17.51 3
      vertex 0 -16 2.7389
    endloop
  endfacet
  facet normal -1 0 0
    outer loop
      vertex 0 18.239 6
      vertex 0 20.0511 3.65902
      vertex 0 19.1 3.35
    endloop
  endfacet
  facet normal -1 0 0
    outer loop
      vertex 0 20.0511 3.65902
      vertex 0 18.239 6
      vertex 0 19 6.89384
    endloop
  endfacet
  facet normal -1 0 0
    outer loop
      vertex 0 17.59 6
      vertex 0 19 6.89384
      vertex 0 18.239 6
    endloop
  endfacet
  facet normal -1 -0 0
    outer loop
      vertex 0 19 6.89384
      vertex 0 17.59 6
      vertex 0 19 7.5
    endloop
  endfacet
  facet normal -1 0 0
    outer loop
      vertex 0 17.59 6
      vertex 0 16 7.5
      vertex 0 19 7.5
    endloop
  endfacet
  facet normal -1 0 0
    outer loop
      vertex 0 16 7.5
      vertex 0 17.59 6
      vertex 0 16 2.7667
    endloop
  endfacet
  facet normal -1 0 0
    outer loop
      vertex 0 17.59 3
      vertex 0 15.1 0.149655
      vertex 0 16 2.7667
    endloop
  endfacet
  facet normal -1 0 0
    outer loop
      vertex 0 16 2.7667
      vertex 0 15.1 0.149655
      vertex 0 15.099 0.15
    endloop
  endfacet
  facet normal -1 -0 0
    outer loop
      vertex 0 -15.109 0.151135
      vertex 0 -15.1123 0.15
      vertex 0 -16 2.7389
    endloop
  endfacet
  facet normal -1 0 0
    outer loop
      vertex 0 -16 2.7389
      vertex 0 -17.51 6
      vertex 0 -16 7.5
    endloop
  endfacet
  facet normal -1 0 0
    outer loop
      vertex 0 -19 7.5
      vertex 0 -17.51 6
      vertex 0 -18.1687 6
    endloop
  endfacet
  facet normal -1 0 0
    outer loop
      vertex 0 -19 7.5
      vertex 0 -18.1687 6
      vertex 0 -19 6.67768
    endloop
  endfacet
  facet normal -1 0 0
    outer loop
      vertex 0 -17.51 6
      vertex 0 -19 7.5
      vertex 0 -16 7.5
    endloop
  endfacet
  facet normal -0 0 1
    outer loop
      vertex 0 19 7.5
      vertex 5.6 16 7.5
      vertex 5.6 19 7.5
    endloop
  endfacet
  facet normal 0 0 1
    outer loop
      vertex 5.6 16 7.5
      vertex 0 19 7.5
      vertex 0 16 7.5
    endloop
  endfacet
  facet normal 1 0 0
    outer loop
      vertex 5.6 -16 7.5
      vertex 5.6 -17.51 6
      vertex 5.6 -16 2.7389
    endloop
  endfacet
  facet normal 1 -0 0
    outer loop
      vertex 5.6 -19 7.5
      vertex 5.6 -17.51 6
      vertex 5.6 -16 7.5
    endloop
  endfacet
  facet normal 1 0 0
    outer loop
      vertex 5.6 -17.51 6
      vertex 5.6 -19 7.5
      vertex 5.6 -18.1687 6
    endloop
  endfacet
  facet normal 1 -0 0
    outer loop
      vertex 5.6 -19 6.67768
      vertex 5.6 -18.1687 6
      vertex 5.6 -19 7.5
    endloop
  endfacet
  facet normal 1 0 0
    outer loop
      vertex 5.6 -20 3.6
      vertex 5.6 -18.1687 6
      vertex 5.6 -19 6.67768
    endloop
  endfacet
  facet normal 1 0 0
    outer loop
      vertex 5.6 -18.1687 6
      vertex 5.6 -20 3.6
      vertex 5.6 -19.0489 3.29098
    endloop
  endfacet
  facet normal 1 0 0
    outer loop
      vertex 5.6 -15.109 0.151135
      vertex 5.6 -16 2.7389
      vertex 5.6 -15.1123 0.15
    endloop
  endfacet
  facet normal 1 0 0
    outer loop
      vertex 5.6 -15.11 0.15
      vertex 5.6 -15.1123 0.15
      vertex 5.6 -15.11 -18.5
    endloop
  endfacet
  facet normal 1 0 0
    outer loop
      vertex 5.6 17.59 6
      vertex 5.6 19 6.89384
      vertex 5.6 19 7.5
    endloop
  endfacet
  facet normal 1 0 0
    outer loop
      vertex 5.6 19 6.89384
      vertex 5.6 17.59 6
      vertex 5.6 18.239 6
    endloop
  endfacet
  facet normal 1 0 0
    outer loop
      vertex 5.6 16 2.7667
      vertex 5.6 17.59 6
      vertex 5.6 16 7.5
    endloop
  endfacet
  facet normal 1 -0 0
    outer loop
      vertex 5.6 16 7.5
      vertex 5.6 17.59 6
      vertex 5.6 19 7.5
    endloop
  endfacet
  facet normal 1 -0 0
    outer loop
      vertex 5.6 18.239 6
      vertex 5.6 20.0511 3.65902
      vertex 5.6 19 6.89384
    endloop
  endfacet
  facet normal 1 0 0
    outer loop
      vertex 5.6 20.0511 3.65902
      vertex 5.6 18.239 6
      vertex 5.6 19.1 3.35
    endloop
  endfacet
  facet normal 1 0 0
    outer loop
      vertex 5.6 15.1 0.149655
      vertex 5.6 19 3
      vertex 5.6 17.59 3
    endloop
  endfacet
  facet normal 1 0 0
    outer loop
      vertex 5.6 17.59 6
      vertex 5.6 16 2.7667
      vertex 5.6 17.59 3
    endloop
  endfacet
  facet normal 1 0 0
    outer loop
      vertex 5.6 15.1 0.149655
      vertex 5.6 17.59 3
      vertex 5.6 16 2.7667
    endloop
  endfacet
  facet normal 1 0 0
    outer loop
      vertex 5.6 15.1 -18.5
      vertex 5.6 19 3
      vertex 5.6 15.1 0.149655
    endloop
  endfacet
  facet normal 1 0 0
    outer loop
      vertex 5.6 19 3
      vertex 5.6 15.1 -18.5
      vertex 5.6 19 -21.5
    endloop
  endfacet
  facet normal 1 -0 0
    outer loop
      vertex 5.6 -15.11 -18.5
      vertex 5.6 19 -21.5
      vertex 5.6 15.1 -18.5
    endloop
  endfacet
  facet normal 1 0 0
    outer loop
      vertex 5.6 -17.51 3
      vertex 5.6 -15.1123 0.15
      vertex 5.6 -16 2.7389
    endloop
  endfacet
  facet normal 1 -0 0
    outer loop
      vertex 5.6 -17.51 3
      vertex 5.6 -16 2.7389
      vertex 5.6 -17.51 6
    endloop
  endfacet
  facet normal 1 0 0
    outer loop
      vertex 5.6 -15.1123 0.15
      vertex 5.6 -17.51 3
      vertex 5.6 -19 3
    endloop
  endfacet
  facet normal 1 0 0
    outer loop
      vertex 5.6 -15.1123 0.15
      vertex 5.6 -19 3
      vertex 5.6 -15.11 -18.5
    endloop
  endfacet
  facet normal 1 0 0
    outer loop
      vertex 5.6 -15.11 -18.5
      vertex 5.6 -19 -21.5
      vertex 5.6 19 -21.5
    endloop
  endfacet
  facet normal 1 0 0
    outer loop
      vertex 5.6 -19 -21.5
      vertex 5.6 -15.11 -18.5
      vertex 5.6 -19 3
    endloop
  endfacet
  facet normal 1 0 0
    outer loop
      vertex 5.6 16 2.7667
      vertex 5.6 15.099 0.15
      vertex 5.6 15.1 0.149655
    endloop
  endfacet
  facet normal 0 1 -0
    outer loop
      vertex 5.6 19 6.89384
      vertex 0 19 7.5
      vertex 5.6 19 7.5
    endloop
  endfacet
  facet normal 0 1 0
    outer loop
      vertex 0 19 7.5
      vertex 5.6 19 6.89384
      vertex 0 19 6.89384
    endloop
  endfacet
  facet normal 0 1 -0
    outer loop
      vertex 5.6 19 -21.5
      vertex 0 19 3
      vertex 5.6 19 3
    endloop
  endfacet
  facet normal 0 1 0
    outer loop
      vertex 0 19 3
      vertex 5.6 19 -21.5
      vertex 0 19 -21.5
    endloop
  endfacet
  facet normal -0 0 1
    outer loop
      vertex 0 15.1 -18.5
      vertex 5.6 -15.11 -18.5
      vertex 5.6 15.1 -18.5
    endloop
  endfacet
  facet normal 0 0 1
    outer loop
      vertex 5.6 -15.11 -18.5
      vertex 0 15.1 -18.5
      vertex 0 -15.11 -18.5
    endloop
  endfacet
  facet normal 0 -1 0
    outer loop
      vertex 0 16 2.7667
      vertex 5.6 16 7.5
      vertex 0 16 7.5
    endloop
  endfacet
  facet normal 0 -1 -0
    outer loop
      vertex 5.6 16 7.5
      vertex 0 16 2.7667
      vertex 5.6 16 2.7667
    endloop
  endfacet
  facet normal 0 0 -1
    outer loop
      vertex 0 17.59 6
      vertex 5.6 18.239 6
      vertex 5.6 17.59 6
    endloop
  endfacet
  facet normal -0 0 -1
    outer loop
      vertex 5.6 18.239 6
      vertex 0 17.59 6
      vertex 0 18.239 6
    endloop
  endfacet
  facet normal -0 0 1
    outer loop
      vertex 0 19 3
      vertex 5.6 17.59 3
      vertex 5.6 19 3
    endloop
  endfacet
  facet normal 0 0 1
    outer loop
      vertex 5.6 17.59 3
      vertex 0 19 3
      vertex 0 17.59 3
    endloop
  endfacet
  facet normal 0 1 -0
    outer loop
      vertex 5.6 17.59 3
      vertex 0 17.59 6
      vertex 5.6 17.59 6
    endloop
  endfacet
  facet normal 0 1 0
    outer loop
      vertex 0 17.59 6
      vertex 5.6 17.59 3
      vertex 0 17.59 3
    endloop
  endfacet
  facet normal 0 -1 0
    outer loop
      vertex 0 15.1 -18.5
      vertex 5.6 15.1 0.149655
      vertex 0 15.1 0.149655
    endloop
  endfacet
  facet normal 0 -1 -0
    outer loop
      vertex 5.6 15.1 0.149655
      vertex 0 15.1 -18.5
      vertex 5.6 15.1 -18.5
    endloop
  endfacet
  facet normal -0 0 1
    outer loop
      vertex 0 -16 7.5
      vertex 5.6 -19 7.5
      vertex 5.6 -16 7.5
    endloop
  endfacet
  facet normal 0 0 1
    outer loop
      vertex 5.6 -19 7.5
      vertex 0 -16 7.5
      vertex 0 -19 7.5
    endloop
  endfacet
  facet normal 0 1 -0
    outer loop
      vertex 5.6 -16 2.7389
      vertex 0 -16 7.5
      vertex 5.6 -16 7.5
    endloop
  endfacet
  facet normal 0 1 0
    outer loop
      vertex 0 -16 7.5
      vertex 5.6 -16 2.7389
      vertex 0 -16 2.7389
    endloop
  endfacet
  facet normal 0 -1 0
    outer loop
      vertex 0 -19 -21.5
      vertex 5.6 -19 3
      vertex 0 -19 3
    endloop
  endfacet
  facet normal 0 -1 -0
    outer loop
      vertex 5.6 -19 3
      vertex 0 -19 -21.5
      vertex 5.6 -19 -21.5
    endloop
  endfacet
  facet normal 0 -1 0
    outer loop
      vertex 0 -19 6.67768
      vertex 5.6 -19 7.5
      vertex 0 -19 7.5
    endloop
  endfacet
  facet normal 0 -1 -0
    outer loop
      vertex 5.6 -19 7.5
      vertex 0 -19 6.67768
      vertex 5.6 -19 6.67768
    endloop
  endfacet
  facet normal 0 0 -1
    outer loop
      vertex 0 -18.1687 6
      vertex 5.6 -17.51 6
      vertex 5.6 -18.1687 6
    endloop
  endfacet
  facet normal -0 0 -1
    outer loop
      vertex 5.6 -17.51 6
      vertex 0 -18.1687 6
      vertex 0 -17.51 6
    endloop
  endfacet
  facet normal 0 -1 0
    outer loop
      vertex 0 -17.51 3
      vertex 5.6 -17.51 6
      vertex 0 -17.51 6
    endloop
  endfacet
  facet normal 0 -1 -0
    outer loop
      vertex 5.6 -17.51 6
      vertex 0 -17.51 3
      vertex 5.6 -17.51 3
    endloop
  endfacet
  facet normal -0 0 1
    outer loop
      vertex 0 -17.51 3
      vertex 5.6 -19 3
      vertex 5.6 -17.51 3
    endloop
  endfacet
  facet normal 0 0 1
    outer loop
      vertex 5.6 -19 3
      vertex 0 -17.51 3
      vertex 0 -19 3
    endloop
  endfacet
  facet normal -0 0 1
    outer loop
      vertex 0 -15.11 0.15
      vertex 5.6 -15.1123 0.15
      vertex 5.6 -15.11 0.15
    endloop
  endfacet
  facet normal 0 0 1
    outer loop
      vertex 5.6 -15.1123 0.15
      vertex 0 -15.11 0.15
      vertex 0 -15.1123 0.15
    endloop
  endfacet
  facet normal 0 1 -0
    outer loop
      vertex 5.6 -15.11 -18.5
      vertex 0 -15.11 0.15
      vertex 5.6 -15.11 0.15
    endloop
  endfacet
  facet normal 0 1 0
    outer loop
      vertex 0 -15.11 0.15
      vertex 5.6 -15.11 -18.5
      vertex 0 -15.11 -18.5
    endloop
  endfacet
  facet normal 0 0.951057 -0.309017
    outer loop
      vertex 5.6 -19.0489 3.29098
      vertex 0 -18.1687 6
      vertex 5.6 -18.1687 6
    endloop
  endfacet
  facet normal 0 0.951057 -0.309017
    outer loop
      vertex 0 -18.1687 6
      vertex 5.6 -19.0489 3.29098
      vertex 0 -19.0489 3.29098
    endloop
  endfacet
  facet normal 0 -0.309017 -0.951057
    outer loop
      vertex 0 -20 3.6
      vertex 5.6 -19.0489 3.29098
      vertex 5.6 -20 3.6
    endloop
  endfacet
  facet normal -0 -0.309017 -0.951057
    outer loop
      vertex 5.6 -19.0489 3.29098
      vertex 0 -20 3.6
      vertex 0 -19.0489 3.29098
    endloop
  endfacet
  facet normal 0 -0.951056 0.309017
    outer loop
      vertex 0 -20 3.6
      vertex 5.6 -19 6.67768
      vertex 0 -19 6.67768
    endloop
  endfacet
  facet normal 0 -0.951056 0.309017
    outer loop
      vertex 5.6 -19 6.67768
      vertex 0 -20 3.6
      vertex 5.6 -20 3.6
    endloop
  endfacet
  facet normal 0 -0.951057 -0.309017
    outer loop
      vertex 0 19.1 3.35
      vertex 5.6 18.239 6
      vertex 0 18.239 6
    endloop
  endfacet
  facet normal 0 -0.951057 -0.309017
    outer loop
      vertex 5.6 18.239 6
      vertex 0 19.1 3.35
      vertex 5.6 19.1 3.35
    endloop
  endfacet
  facet normal 0 0.951057 0.309017
    outer loop
      vertex 5.6 20.0511 3.65902
      vertex 0 19 6.89384
      vertex 5.6 19 6.89384
    endloop
  endfacet
  facet normal 0 0.951057 0.309017
    outer loop
      vertex 0 19 6.89384
      vertex 5.6 20.0511 3.65902
      vertex 0 20.0511 3.65902
    endloop
  endfacet
  facet normal 0 0.309017 -0.951057
    outer loop
      vertex 0 19.1 3.35
      vertex 5.6 20.0511 3.65902
      vertex 5.6 19.1 3.35
    endloop
  endfacet
  facet normal 0 0.309017 -0.951057
    outer loop
      vertex 5.6 20.0511 3.65902
      vertex 0 19.1 3.35
      vertex 0 20.0511 3.65902
    endloop
  endfacet
  facet normal 0 -0.325571 -0.945518
    outer loop
      vertex 0 15.099 0.15
      vertex 5.6 15.1 0.149655
      vertex 5.6 15.099 0.15
    endloop
  endfacet
  facet normal -0 -0.325571 -0.945518
    outer loop
      vertex 5.6 15.1 0.149655
      vertex 0 15.099 0.15
      vertex 0 15.1 0.149655
    endloop
  endfacet
  facet normal 0 -0.945519 0.325568
    outer loop
      vertex 0 15.099 0.15
      vertex 5.6 16 2.7667
      vertex 0 16 2.7667
    endloop
  endfacet
  facet normal 0 -0.945519 0.325568
    outer loop
      vertex 5.6 16 2.7667
      vertex 0 15.099 0.15
      vertex 5.6 15.099 0.15
    endloop
  endfacet
  facet normal 0 0.945519 0.325568
    outer loop
      vertex 5.6 -15.109 0.151135
      vertex 0 -16 2.7389
      vertex 5.6 -16 2.7389
    endloop
  endfacet
  facet normal 0 0.945519 0.325568
    outer loop
      vertex 0 -16 2.7389
      vertex 5.6 -15.109 0.151135
      vertex 0 -15.109 0.151135
    endloop
  endfacet
  facet normal 0 0.325561 -0.945521
    outer loop
      vertex 0 -15.1123 0.15
      vertex 5.6 -15.109 0.151135
      vertex 5.6 -15.1123 0.15
    endloop
  endfacet
  facet normal 0 0.325561 -0.945521
    outer loop
      vertex 5.6 -15.109 0.151135
      vertex 0 -15.1123 0.15
      vertex 0 -15.109 0.151135
    endloop
  endfacet
  facet normal 0 0 -1
    outer loop
      vertex 0 -19 -21.5
      vertex 5.6 19 -21.5
      vertex 5.6 -19 -21.5
    endloop
  endfacet
  facet normal -0 0 -1
    outer loop
      vertex 5.6 19 -21.5
      vertex 0 -19 -21.5
      vertex 0 19 -21.5
    endloop
  endfacet
endsolid OpenSCAD_Model
