solid OpenSCAD_Model
  facet normal 0 0.5 -0.866025
    outer loop
      vertex 30 7 15.2
      vertex 50 9.42487 16.6
      vertex 50 7 15.2
    endloop
  endfacet
  facet normal 0 0.5 -0.866025
    outer loop
      vertex 50 9.42487 16.6
      vertex 30 7 15.2
      vertex 30 9.42487 16.6
    endloop
  endfacet
  facet normal -0 0.5 0.866025
    outer loop
      vertex 30 9.42487 19.4
      vertex 50 7 20.8
      vertex 50 9.42487 19.4
    endloop
  endfacet
  facet normal 0 0.5 0.866025
    outer loop
      vertex 50 7 20.8
      vertex 30 9.42487 19.4
      vertex 30 7 20.8
    endloop
  endfacet
  facet normal 0 1 -0
    outer loop
      vertex 50 9.42487 16.6
      vertex 30 9.42487 19.4
      vertex 50 9.42487 19.4
    endloop
  endfacet
  facet normal 0 1 0
    outer loop
      vertex 30 9.42487 19.4
      vertex 50 9.42487 16.6
      vertex 30 9.42487 16.6
    endloop
  endfacet
  facet normal 1 0 0
    outer loop
      vertex 30 11.0703 20.35
      vertex 30 9.42487 19.4
      vertex 30 11.0703 15.65
    endloop
  endfacet
  facet normal 1 0 0
    outer loop
      vertex 30 7 22.7
      vertex 30 9.42487 19.4
      vertex 30 11.0703 20.35
    endloop
  endfacet
  facet normal 1 0 0
    outer loop
      vertex 30 7 22.7
      vertex 30 7 20.8
      vertex 30 9.42487 19.4
    endloop
  endfacet
  facet normal 1 0 0
    outer loop
      vertex 30 7 22.7
      vertex 30 4.57513 19.4
      vertex 30 7 20.8
    endloop
  endfacet
  facet normal 1 0 0
    outer loop
      vertex 30 4.57513 19.4
      vertex 30 2.92968 20.35
      vertex 30 4.57513 16.6
    endloop
  endfacet
  facet normal 1 -0 0
    outer loop
      vertex 30 2.92968 20.35
      vertex 30 4.57513 19.4
      vertex 30 7 22.7
    endloop
  endfacet
  facet normal 1 -0 0
    outer loop
      vertex 30 9.42487 16.6
      vertex 30 11.0703 15.65
      vertex 30 9.42487 19.4
    endloop
  endfacet
  facet normal 1 0 0
    outer loop
      vertex 30 7 15.2
      vertex 30 11.0703 15.65
      vertex 30 9.42487 16.6
    endloop
  endfacet
  facet normal 1 -0 0
    outer loop
      vertex 30 7 15.2
      vertex 30 7 13.3
      vertex 30 11.0703 15.65
    endloop
  endfacet
  facet normal 1 0 0
    outer loop
      vertex 30 4.57513 16.6
      vertex 30 7 13.3
      vertex 30 7 15.2
    endloop
  endfacet
  facet normal 1 0 0
    outer loop
      vertex 30 4.57513 16.6
      vertex 30 2.92968 15.65
      vertex 30 7 13.3
    endloop
  endfacet
  facet normal 1 0 0
    outer loop
      vertex 30 2.92968 15.65
      vertex 30 4.57513 16.6
      vertex 30 2.92968 20.35
    endloop
  endfacet
  facet normal -1 0 0
    outer loop
      vertex 50 7 20.8
      vertex 50 9.42487 41.6
      vertex 50 9.42487 19.4
    endloop
  endfacet
  facet normal -1 0 0
    outer loop
      vertex 50 7 20.8
      vertex 50 7 40.2
      vertex 50 9.42487 41.6
    endloop
  endfacet
  facet normal -1 0 0
    outer loop
      vertex 50 4.57513 19.4
      vertex 50 7 40.2
      vertex 50 7 20.8
    endloop
  endfacet
  facet normal -1 -0 0
    outer loop
      vertex 50 7 40.2
      vertex 50 4.57513 19.4
      vertex 50 4.57513 41.6
    endloop
  endfacet
  facet normal -1 0 0
    outer loop
      vertex 50 23 20.8
      vertex 50 25.4249 41.6
      vertex 50 25.4249 19.4
    endloop
  endfacet
  facet normal -1 0 0
    outer loop
      vertex 50 23 20.8
      vertex 50 23 40.2
      vertex 50 25.4249 41.6
    endloop
  endfacet
  facet normal -1 0 0
    outer loop
      vertex 50 20.5751 19.4
      vertex 50 23 40.2
      vertex 50 23 20.8
    endloop
  endfacet
  facet normal -1 -0 0
    outer loop
      vertex 50 23 40.2
      vertex 50 20.5751 19.4
      vertex 50 20.5751 41.6
    endloop
  endfacet
  facet normal -1 0 0
    outer loop
      vertex 50 25.4249 19.4
      vertex 50 30 0
      vertex 50 25.4249 16.6
    endloop
  endfacet
  facet normal -1 0 0
    outer loop
      vertex 50 30 0
      vertex 50 23 15.2
      vertex 50 25.4249 16.6
    endloop
  endfacet
  facet normal -1 0 0
    outer loop
      vertex 50 7 15.2
      vertex 50 23 15.2
      vertex 50 30 0
    endloop
  endfacet
  facet normal -1 0 0
    outer loop
      vertex 50 9.42487 19.4
      vertex 50 20.5751 19.4
      vertex 50 20.5751 16.6
    endloop
  endfacet
  facet normal -1 0 0
    outer loop
      vertex 50 20.5751 19.4
      vertex 50 9.42487 19.4
      vertex 50 20.5751 41.6
    endloop
  endfacet
  facet normal -1 0 0
    outer loop
      vertex 50 9.42487 19.4
      vertex 50 20.5751 16.6
      vertex 50 9.42487 16.6
    endloop
  endfacet
  facet normal -1 0 0
    outer loop
      vertex 50 23 15.2
      vertex 50 7 15.2
      vertex 50 20.5751 16.6
    endloop
  endfacet
  facet normal -1 -0 0
    outer loop
      vertex 50 20.5751 16.6
      vertex 50 7 15.2
      vertex 50 9.42487 16.6
    endloop
  endfacet
  facet normal -1 0 0
    outer loop
      vertex 50 0 0
      vertex 50 7 15.2
      vertex 50 30 0
    endloop
  endfacet
  facet normal -1 0 0
    outer loop
      vertex 50 0 0
      vertex 50 4.57513 19.4
      vertex 50 4.57513 16.6
    endloop
  endfacet
  facet normal -1 0 0
    outer loop
      vertex 50 4.57513 19.4
      vertex 50 0 50
      vertex 50 4.57513 41.6
    endloop
  endfacet
  facet normal -1 -0 0
    outer loop
      vertex 50 4.57513 19.4
      vertex 50 0 0
      vertex 50 0 50
    endloop
  endfacet
  facet normal -1 -0 0
    outer loop
      vertex 50 7 15.2
      vertex 50 0 0
      vertex 50 4.57513 16.6
    endloop
  endfacet
  facet normal -1 0 0
    outer loop
      vertex 50 30 0
      vertex 50 25.4249 19.4
      vertex 50 30 50
    endloop
  endfacet
  facet normal -1 0 0
    outer loop
      vertex 50 25.4249 41.6
      vertex 50 30 50
      vertex 50 25.4249 19.4
    endloop
  endfacet
  facet normal -1 0 0
    outer loop
      vertex 50 25.4249 44.4
      vertex 50 30 50
      vertex 50 25.4249 41.6
    endloop
  endfacet
  facet normal -1 0 0
    outer loop
      vertex 50 23 45.8
      vertex 50 30 50
      vertex 50 25.4249 44.4
    endloop
  endfacet
  facet normal -1 0 0
    outer loop
      vertex 50 7 45.8
      vertex 50 23 45.8
      vertex 50 20.5751 44.4
    endloop
  endfacet
  facet normal -1 0 0
    outer loop
      vertex 50 9.42487 41.6
      vertex 50 20.5751 41.6
      vertex 50 9.42487 19.4
    endloop
  endfacet
  facet normal -1 0 0
    outer loop
      vertex 50 20.5751 41.6
      vertex 50 9.42487 41.6
      vertex 50 20.5751 44.4
    endloop
  endfacet
  facet normal -1 0 0
    outer loop
      vertex 50 9.42487 44.4
      vertex 50 20.5751 44.4
      vertex 50 9.42487 41.6
    endloop
  endfacet
  facet normal -1 0 0
    outer loop
      vertex 50 7 45.8
      vertex 50 20.5751 44.4
      vertex 50 9.42487 44.4
    endloop
  endfacet
  facet normal -1 0 0
    outer loop
      vertex 50 23 45.8
      vertex 50 7 45.8
      vertex 50 30 50
    endloop
  endfacet
  facet normal -1 0 0
    outer loop
      vertex 50 7 45.8
      vertex 50 0 50
      vertex 50 30 50
    endloop
  endfacet
  facet normal -1 0 0
    outer loop
      vertex 50 4.57513 44.4
      vertex 50 0 50
      vertex 50 7 45.8
    endloop
  endfacet
  facet normal -1 0 0
    outer loop
      vertex 50 4.57513 41.6
      vertex 50 0 50
      vertex 50 4.57513 44.4
    endloop
  endfacet
  facet normal 0 -1 0
    outer loop
      vertex 30 4.57513 16.6
      vertex 50 4.57513 19.4
      vertex 30 4.57513 19.4
    endloop
  endfacet
  facet normal 0 -1 -0
    outer loop
      vertex 50 4.57513 19.4
      vertex 30 4.57513 16.6
      vertex 50 4.57513 16.6
    endloop
  endfacet
  facet normal 0 -0.5 0.866025
    outer loop
      vertex 30 7 20.8
      vertex 50 4.57513 19.4
      vertex 50 7 20.8
    endloop
  endfacet
  facet normal 0 -0.5 0.866025
    outer loop
      vertex 50 4.57513 19.4
      vertex 30 7 20.8
      vertex 30 4.57513 19.4
    endloop
  endfacet
  facet normal 0 -0.5 -0.866025
    outer loop
      vertex 30 4.57513 16.6
      vertex 50 7 15.2
      vertex 50 4.57513 16.6
    endloop
  endfacet
  facet normal -0 -0.5 -0.866025
    outer loop
      vertex 50 7 15.2
      vertex 30 4.57513 16.6
      vertex 30 7 15.2
    endloop
  endfacet
  facet normal 0 0.5 -0.866025
    outer loop
      vertex 27 7 13.3
      vertex 30 11.0703 15.65
      vertex 30 7 13.3
    endloop
  endfacet
  facet normal 0 0.5 -0.866025
    outer loop
      vertex 30 11.0703 15.65
      vertex 27 7 13.3
      vertex 27 11.0703 15.65
    endloop
  endfacet
  facet normal -0 0.5 0.866025
    outer loop
      vertex 27 11.0703 20.35
      vertex 30 7 22.7
      vertex 30 11.0703 20.35
    endloop
  endfacet
  facet normal 0 0.5 0.866025
    outer loop
      vertex 30 7 22.7
      vertex 27 11.0703 20.35
      vertex 27 7 22.7
    endloop
  endfacet
  facet normal 0 1 -0
    outer loop
      vertex 30 11.0703 15.65
      vertex 27 11.0703 20.35
      vertex 30 11.0703 20.35
    endloop
  endfacet
  facet normal 0 1 0
    outer loop
      vertex 27 11.0703 20.35
      vertex 30 11.0703 15.65
      vertex 27 11.0703 15.65
    endloop
  endfacet
  facet normal -1 0 0
    outer loop
      vertex 27 7 13.3
      vertex 27 2.92968 20.35
      vertex 27 11.0703 20.35
    endloop
  endfacet
  facet normal -1 0 0
    outer loop
      vertex 27 2.92968 15.65
      vertex 27 2.92968 20.35
      vertex 27 7 13.3
    endloop
  endfacet
  facet normal -1 0 0
    outer loop
      vertex 27 7 13.3
      vertex 27 11.0703 20.35
      vertex 27 11.0703 15.65
    endloop
  endfacet
  facet normal -1 0 0
    outer loop
      vertex 27 11.0703 20.35
      vertex 27 2.92968 20.35
      vertex 27 7 22.7
    endloop
  endfacet
  facet normal 0 -1 0
    outer loop
      vertex 27 2.92968 15.65
      vertex 30 2.92968 20.35
      vertex 27 2.92968 20.35
    endloop
  endfacet
  facet normal 0 -1 -0
    outer loop
      vertex 30 2.92968 20.35
      vertex 27 2.92968 15.65
      vertex 30 2.92968 15.65
    endloop
  endfacet
  facet normal 0 -0.5 0.866025
    outer loop
      vertex 27 7 22.7
      vertex 30 2.92968 20.35
      vertex 30 7 22.7
    endloop
  endfacet
  facet normal 0 -0.5 0.866025
    outer loop
      vertex 30 2.92968 20.35
      vertex 27 7 22.7
      vertex 27 2.92968 20.35
    endloop
  endfacet
  facet normal 0 -0.5 -0.866025
    outer loop
      vertex 27 2.92968 15.65
      vertex 30 7 13.3
      vertex 30 2.92968 15.65
    endloop
  endfacet
  facet normal -0 -0.5 -0.866025
    outer loop
      vertex 30 7 13.3
      vertex 27 2.92968 15.65
      vertex 27 7 13.3
    endloop
  endfacet
  facet normal 0 0.5 -0.866025
    outer loop
      vertex 30 23 15.2
      vertex 50 25.4249 16.6
      vertex 50 23 15.2
    endloop
  endfacet
  facet normal 0 0.5 -0.866025
    outer loop
      vertex 50 25.4249 16.6
      vertex 30 23 15.2
      vertex 30 25.4249 16.6
    endloop
  endfacet
  facet normal -0 0.5 0.866025
    outer loop
      vertex 30 25.4249 19.4
      vertex 50 23 20.8
      vertex 50 25.4249 19.4
    endloop
  endfacet
  facet normal 0 0.5 0.866025
    outer loop
      vertex 50 23 20.8
      vertex 30 25.4249 19.4
      vertex 30 23 20.8
    endloop
  endfacet
  facet normal 0 1 -0
    outer loop
      vertex 50 25.4249 16.6
      vertex 30 25.4249 19.4
      vertex 50 25.4249 19.4
    endloop
  endfacet
  facet normal 0 1 0
    outer loop
      vertex 30 25.4249 19.4
      vertex 50 25.4249 16.6
      vertex 30 25.4249 16.6
    endloop
  endfacet
  facet normal 1 0 0
    outer loop
      vertex 30 27.0703 20.35
      vertex 30 25.4249 19.4
      vertex 30 27.0703 15.65
    endloop
  endfacet
  facet normal 1 0 0
    outer loop
      vertex 30 23 22.7
      vertex 30 25.4249 19.4
      vertex 30 27.0703 20.35
    endloop
  endfacet
  facet normal 1 0 0
    outer loop
      vertex 30 23 22.7
      vertex 30 23 20.8
      vertex 30 25.4249 19.4
    endloop
  endfacet
  facet normal 1 0 0
    outer loop
      vertex 30 23 22.7
      vertex 30 20.5751 19.4
      vertex 30 23 20.8
    endloop
  endfacet
  facet normal 1 0 0
    outer loop
      vertex 30 20.5751 19.4
      vertex 30 18.9297 20.35
      vertex 30 20.5751 16.6
    endloop
  endfacet
  facet normal 1 -0 0
    outer loop
      vertex 30 18.9297 20.35
      vertex 30 20.5751 19.4
      vertex 30 23 22.7
    endloop
  endfacet
  facet normal 1 -0 0
    outer loop
      vertex 30 25.4249 16.6
      vertex 30 27.0703 15.65
      vertex 30 25.4249 19.4
    endloop
  endfacet
  facet normal 1 0 0
    outer loop
      vertex 30 23 15.2
      vertex 30 27.0703 15.65
      vertex 30 25.4249 16.6
    endloop
  endfacet
  facet normal 1 -0 0
    outer loop
      vertex 30 23 15.2
      vertex 30 23 13.3
      vertex 30 27.0703 15.65
    endloop
  endfacet
  facet normal 1 0 0
    outer loop
      vertex 30 20.5751 16.6
      vertex 30 23 13.3
      vertex 30 23 15.2
    endloop
  endfacet
  facet normal 1 0 0
    outer loop
      vertex 30 20.5751 16.6
      vertex 30 18.9297 15.65
      vertex 30 23 13.3
    endloop
  endfacet
  facet normal 1 0 0
    outer loop
      vertex 30 18.9297 15.65
      vertex 30 20.5751 16.6
      vertex 30 18.9297 20.35
    endloop
  endfacet
  facet normal 0 -1 0
    outer loop
      vertex 30 20.5751 16.6
      vertex 50 20.5751 19.4
      vertex 30 20.5751 19.4
    endloop
  endfacet
  facet normal 0 -1 -0
    outer loop
      vertex 50 20.5751 19.4
      vertex 30 20.5751 16.6
      vertex 50 20.5751 16.6
    endloop
  endfacet
  facet normal 0 -0.5 0.866025
    outer loop
      vertex 30 23 20.8
      vertex 50 20.5751 19.4
      vertex 50 23 20.8
    endloop
  endfacet
  facet normal 0 -0.5 0.866025
    outer loop
      vertex 50 20.5751 19.4
      vertex 30 23 20.8
      vertex 30 20.5751 19.4
    endloop
  endfacet
  facet normal 0 -0.5 -0.866025
    outer loop
      vertex 30 20.5751 16.6
      vertex 50 23 15.2
      vertex 50 20.5751 16.6
    endloop
  endfacet
  facet normal -0 -0.5 -0.866025
    outer loop
      vertex 50 23 15.2
      vertex 30 20.5751 16.6
      vertex 30 23 15.2
    endloop
  endfacet
  facet normal 0 0.5 -0.866025
    outer loop
      vertex 27 23 13.3
      vertex 30 27.0703 15.65
      vertex 30 23 13.3
    endloop
  endfacet
  facet normal 0 0.5 -0.866025
    outer loop
      vertex 30 27.0703 15.65
      vertex 27 23 13.3
      vertex 27 27.0703 15.65
    endloop
  endfacet
  facet normal -0 0.5 0.866025
    outer loop
      vertex 27 27.0703 20.35
      vertex 30 23 22.7
      vertex 30 27.0703 20.35
    endloop
  endfacet
  facet normal 0 0.5 0.866025
    outer loop
      vertex 30 23 22.7
      vertex 27 27.0703 20.35
      vertex 27 23 22.7
    endloop
  endfacet
  facet normal 0 1 -0
    outer loop
      vertex 30 27.0703 15.65
      vertex 27 27.0703 20.35
      vertex 30 27.0703 20.35
    endloop
  endfacet
  facet normal 0 1 0
    outer loop
      vertex 27 27.0703 20.35
      vertex 30 27.0703 15.65
      vertex 27 27.0703 15.65
    endloop
  endfacet
  facet normal -1 0 0
    outer loop
      vertex 27 23 13.3
      vertex 27 18.9297 20.35
      vertex 27 27.0703 20.35
    endloop
  endfacet
  facet normal -1 0 0
    outer loop
      vertex 27 18.9297 15.65
      vertex 27 18.9297 20.35
      vertex 27 23 13.3
    endloop
  endfacet
  facet normal -1 0 0
    outer loop
      vertex 27 23 13.3
      vertex 27 27.0703 20.35
      vertex 27 27.0703 15.65
    endloop
  endfacet
  facet normal -1 0 0
    outer loop
      vertex 27 27.0703 20.35
      vertex 27 18.9297 20.35
      vertex 27 23 22.7
    endloop
  endfacet
  facet normal 0 -1 0
    outer loop
      vertex 27 18.9297 15.65
      vertex 30 18.9297 20.35
      vertex 27 18.9297 20.35
    endloop
  endfacet
  facet normal 0 -1 -0
    outer loop
      vertex 30 18.9297 20.35
      vertex 27 18.9297 15.65
      vertex 30 18.9297 15.65
    endloop
  endfacet
  facet normal 0 -0.5 0.866025
    outer loop
      vertex 27 23 22.7
      vertex 30 18.9297 20.35
      vertex 30 23 22.7
    endloop
  endfacet
  facet normal 0 -0.5 0.866025
    outer loop
      vertex 30 18.9297 20.35
      vertex 27 23 22.7
      vertex 27 18.9297 20.35
    endloop
  endfacet
  facet normal 0 -0.5 -0.866025
    outer loop
      vertex 27 18.9297 15.65
      vertex 30 23 13.3
      vertex 30 18.9297 15.65
    endloop
  endfacet
  facet normal -0 -0.5 -0.866025
    outer loop
      vertex 30 23 13.3
      vertex 27 18.9297 15.65
      vertex 27 23 13.3
    endloop
  endfacet
  facet normal 0 0.499999 -0.866026
    outer loop
      vertex 30 7 40.2
      vertex 50 9.42487 41.6
      vertex 50 7 40.2
    endloop
  endfacet
  facet normal 0 0.499999 -0.866026
    outer loop
      vertex 50 9.42487 41.6
      vertex 30 7 40.2
      vertex 30 9.42487 41.6
    endloop
  endfacet
  facet normal -0 0.499999 0.866026
    outer loop
      vertex 30 9.42487 44.4
      vertex 50 7 45.8
      vertex 50 9.42487 44.4
    endloop
  endfacet
  facet normal 0 0.499999 0.866026
    outer loop
      vertex 50 7 45.8
      vertex 30 9.42487 44.4
      vertex 30 7 45.8
    endloop
  endfacet
  facet normal 0 1 -0
    outer loop
      vertex 50 9.42487 41.6
      vertex 30 9.42487 44.4
      vertex 50 9.42487 44.4
    endloop
  endfacet
  facet normal 0 1 0
    outer loop
      vertex 30 9.42487 44.4
      vertex 50 9.42487 41.6
      vertex 30 9.42487 41.6
    endloop
  endfacet
  facet normal 1 0 0
    outer loop
      vertex 30 11.0703 45.35
      vertex 30 9.42487 44.4
      vertex 30 11.0703 40.65
    endloop
  endfacet
  facet normal 1 0 0
    outer loop
      vertex 30 7 47.7
      vertex 30 9.42487 44.4
      vertex 30 11.0703 45.35
    endloop
  endfacet
  facet normal 1 0 0
    outer loop
      vertex 30 7 47.7
      vertex 30 7 45.8
      vertex 30 9.42487 44.4
    endloop
  endfacet
  facet normal 1 0 0
    outer loop
      vertex 30 7 47.7
      vertex 30 4.57513 44.4
      vertex 30 7 45.8
    endloop
  endfacet
  facet normal 1 0 0
    outer loop
      vertex 30 4.57513 44.4
      vertex 30 2.92968 45.35
      vertex 30 4.57513 41.6
    endloop
  endfacet
  facet normal 1 -0 0
    outer loop
      vertex 30 2.92968 45.35
      vertex 30 4.57513 44.4
      vertex 30 7 47.7
    endloop
  endfacet
  facet normal 1 -0 0
    outer loop
      vertex 30 9.42487 41.6
      vertex 30 11.0703 40.65
      vertex 30 9.42487 44.4
    endloop
  endfacet
  facet normal 1 0 0
    outer loop
      vertex 30 7 40.2
      vertex 30 11.0703 40.65
      vertex 30 9.42487 41.6
    endloop
  endfacet
  facet normal 1 -0 0
    outer loop
      vertex 30 7 40.2
      vertex 30 7 38.3
      vertex 30 11.0703 40.65
    endloop
  endfacet
  facet normal 1 0 0
    outer loop
      vertex 30 4.57513 41.6
      vertex 30 7 38.3
      vertex 30 7 40.2
    endloop
  endfacet
  facet normal 1 0 0
    outer loop
      vertex 30 4.57513 41.6
      vertex 30 2.92968 40.65
      vertex 30 7 38.3
    endloop
  endfacet
  facet normal 1 0 0
    outer loop
      vertex 30 2.92968 40.65
      vertex 30 4.57513 41.6
      vertex 30 2.92968 45.35
    endloop
  endfacet
  facet normal 0 -1 0
    outer loop
      vertex 30 4.57513 41.6
      vertex 50 4.57513 44.4
      vertex 30 4.57513 44.4
    endloop
  endfacet
  facet normal 0 -1 -0
    outer loop
      vertex 50 4.57513 44.4
      vertex 30 4.57513 41.6
      vertex 50 4.57513 41.6
    endloop
  endfacet
  facet normal 0 -0.499999 0.866026
    outer loop
      vertex 30 7 45.8
      vertex 50 4.57513 44.4
      vertex 50 7 45.8
    endloop
  endfacet
  facet normal 0 -0.499999 0.866026
    outer loop
      vertex 50 4.57513 44.4
      vertex 30 7 45.8
      vertex 30 4.57513 44.4
    endloop
  endfacet
  facet normal 0 -0.499999 -0.866026
    outer loop
      vertex 30 4.57513 41.6
      vertex 50 7 40.2
      vertex 50 4.57513 41.6
    endloop
  endfacet
  facet normal -0 -0.499999 -0.866026
    outer loop
      vertex 50 7 40.2
      vertex 30 4.57513 41.6
      vertex 30 7 40.2
    endloop
  endfacet
  facet normal 0 0.5 -0.866025
    outer loop
      vertex 27 7 38.3
      vertex 30 11.0703 40.65
      vertex 30 7 38.3
    endloop
  endfacet
  facet normal 0 0.5 -0.866025
    outer loop
      vertex 30 11.0703 40.65
      vertex 27 7 38.3
      vertex 27 11.0703 40.65
    endloop
  endfacet
  facet normal -0 0.5 0.866025
    outer loop
      vertex 27 11.0703 45.35
      vertex 30 7 47.7
      vertex 30 11.0703 45.35
    endloop
  endfacet
  facet normal 0 0.5 0.866025
    outer loop
      vertex 30 7 47.7
      vertex 27 11.0703 45.35
      vertex 27 7 47.7
    endloop
  endfacet
  facet normal 0 1 -0
    outer loop
      vertex 30 11.0703 40.65
      vertex 27 11.0703 45.35
      vertex 30 11.0703 45.35
    endloop
  endfacet
  facet normal 0 1 0
    outer loop
      vertex 27 11.0703 45.35
      vertex 30 11.0703 40.65
      vertex 27 11.0703 40.65
    endloop
  endfacet
  facet normal -1 0 0
    outer loop
      vertex 27 7 38.3
      vertex 27 2.92968 45.35
      vertex 27 11.0703 45.35
    endloop
  endfacet
  facet normal -1 0 0
    outer loop
      vertex 27 2.92968 40.65
      vertex 27 2.92968 45.35
      vertex 27 7 38.3
    endloop
  endfacet
  facet normal -1 0 0
    outer loop
      vertex 27 7 38.3
      vertex 27 11.0703 45.35
      vertex 27 11.0703 40.65
    endloop
  endfacet
  facet normal -1 0 0
    outer loop
      vertex 27 11.0703 45.35
      vertex 27 2.92968 45.35
      vertex 27 7 47.7
    endloop
  endfacet
  facet normal 0 -1 0
    outer loop
      vertex 27 2.92968 40.65
      vertex 30 2.92968 45.35
      vertex 27 2.92968 45.35
    endloop
  endfacet
  facet normal 0 -1 -0
    outer loop
      vertex 30 2.92968 45.35
      vertex 27 2.92968 40.65
      vertex 30 2.92968 40.65
    endloop
  endfacet
  facet normal 0 -0.5 0.866025
    outer loop
      vertex 27 7 47.7
      vertex 30 2.92968 45.35
      vertex 30 7 47.7
    endloop
  endfacet
  facet normal 0 -0.5 0.866025
    outer loop
      vertex 30 2.92968 45.35
      vertex 27 7 47.7
      vertex 27 2.92968 45.35
    endloop
  endfacet
  facet normal 0 -0.5 -0.866025
    outer loop
      vertex 27 2.92968 40.65
      vertex 30 7 38.3
      vertex 30 2.92968 40.65
    endloop
  endfacet
  facet normal -0 -0.5 -0.866025
    outer loop
      vertex 30 7 38.3
      vertex 27 2.92968 40.65
      vertex 27 7 38.3
    endloop
  endfacet
  facet normal 0 0.5 -0.866026
    outer loop
      vertex 30 23 40.2
      vertex 50 25.4249 41.6
      vertex 50 23 40.2
    endloop
  endfacet
  facet normal 0 0.5 -0.866026
    outer loop
      vertex 50 25.4249 41.6
      vertex 30 23 40.2
      vertex 30 25.4249 41.6
    endloop
  endfacet
  facet normal -0 0.5 0.866026
    outer loop
      vertex 30 25.4249 44.4
      vertex 50 23 45.8
      vertex 50 25.4249 44.4
    endloop
  endfacet
  facet normal 0 0.5 0.866026
    outer loop
      vertex 50 23 45.8
      vertex 30 25.4249 44.4
      vertex 30 23 45.8
    endloop
  endfacet
  facet normal 0 1 -0
    outer loop
      vertex 50 25.4249 41.6
      vertex 30 25.4249 44.4
      vertex 50 25.4249 44.4
    endloop
  endfacet
  facet normal 0 1 0
    outer loop
      vertex 30 25.4249 44.4
      vertex 50 25.4249 41.6
      vertex 30 25.4249 41.6
    endloop
  endfacet
  facet normal 1 0 0
    outer loop
      vertex 30 27.0703 45.35
      vertex 30 25.4249 44.4
      vertex 30 27.0703 40.65
    endloop
  endfacet
  facet normal 1 0 0
    outer loop
      vertex 30 23 47.7
      vertex 30 25.4249 44.4
      vertex 30 27.0703 45.35
    endloop
  endfacet
  facet normal 1 0 0
    outer loop
      vertex 30 23 47.7
      vertex 30 23 45.8
      vertex 30 25.4249 44.4
    endloop
  endfacet
  facet normal 1 0 0
    outer loop
      vertex 30 23 47.7
      vertex 30 20.5751 44.4
      vertex 30 23 45.8
    endloop
  endfacet
  facet normal 1 0 0
    outer loop
      vertex 30 20.5751 44.4
      vertex 30 18.9297 45.35
      vertex 30 20.5751 41.6
    endloop
  endfacet
  facet normal 1 -0 0
    outer loop
      vertex 30 18.9297 45.35
      vertex 30 20.5751 44.4
      vertex 30 23 47.7
    endloop
  endfacet
  facet normal 1 -0 0
    outer loop
      vertex 30 25.4249 41.6
      vertex 30 27.0703 40.65
      vertex 30 25.4249 44.4
    endloop
  endfacet
  facet normal 1 0 0
    outer loop
      vertex 30 23 40.2
      vertex 30 27.0703 40.65
      vertex 30 25.4249 41.6
    endloop
  endfacet
  facet normal 1 -0 0
    outer loop
      vertex 30 23 40.2
      vertex 30 23 38.3
      vertex 30 27.0703 40.65
    endloop
  endfacet
  facet normal 1 0 0
    outer loop
      vertex 30 20.5751 41.6
      vertex 30 23 38.3
      vertex 30 23 40.2
    endloop
  endfacet
  facet normal 1 0 0
    outer loop
      vertex 30 20.5751 41.6
      vertex 30 18.9297 40.65
      vertex 30 23 38.3
    endloop
  endfacet
  facet normal 1 0 0
    outer loop
      vertex 30 18.9297 40.65
      vertex 30 20.5751 41.6
      vertex 30 18.9297 45.35
    endloop
  endfacet
  facet normal 0 -1 0
    outer loop
      vertex 30 20.5751 41.6
      vertex 50 20.5751 44.4
      vertex 30 20.5751 44.4
    endloop
  endfacet
  facet normal 0 -1 -0
    outer loop
      vertex 50 20.5751 44.4
      vertex 30 20.5751 41.6
      vertex 50 20.5751 41.6
    endloop
  endfacet
  facet normal 0 -0.5 0.866026
    outer loop
      vertex 30 23 45.8
      vertex 50 20.5751 44.4
      vertex 50 23 45.8
    endloop
  endfacet
  facet normal 0 -0.5 0.866026
    outer loop
      vertex 50 20.5751 44.4
      vertex 30 23 45.8
      vertex 30 20.5751 44.4
    endloop
  endfacet
  facet normal 0 -0.5 -0.866026
    outer loop
      vertex 30 20.5751 41.6
      vertex 50 23 40.2
      vertex 50 20.5751 41.6
    endloop
  endfacet
  facet normal -0 -0.5 -0.866026
    outer loop
      vertex 50 23 40.2
      vertex 30 20.5751 41.6
      vertex 30 23 40.2
    endloop
  endfacet
  facet normal 0 0.5 -0.866025
    outer loop
      vertex 27 23 38.3
      vertex 30 27.0703 40.65
      vertex 30 23 38.3
    endloop
  endfacet
  facet normal 0 0.5 -0.866025
    outer loop
      vertex 30 27.0703 40.65
      vertex 27 23 38.3
      vertex 27 27.0703 40.65
    endloop
  endfacet
  facet normal -0 0.5 0.866025
    outer loop
      vertex 27 27.0703 45.35
      vertex 30 23 47.7
      vertex 30 27.0703 45.35
    endloop
  endfacet
  facet normal 0 0.5 0.866025
    outer loop
      vertex 30 23 47.7
      vertex 27 27.0703 45.35
      vertex 27 23 47.7
    endloop
  endfacet
  facet normal 0 1 -0
    outer loop
      vertex 30 27.0703 40.65
      vertex 27 27.0703 45.35
      vertex 30 27.0703 45.35
    endloop
  endfacet
  facet normal 0 1 0
    outer loop
      vertex 27 27.0703 45.35
      vertex 30 27.0703 40.65
      vertex 27 27.0703 40.65
    endloop
  endfacet
  facet normal -1 0 0
    outer loop
      vertex 27 23 38.3
      vertex 27 18.9297 45.35
      vertex 27 27.0703 45.35
    endloop
  endfacet
  facet normal -1 0 0
    outer loop
      vertex 27 18.9297 40.65
      vertex 27 18.9297 45.35
      vertex 27 23 38.3
    endloop
  endfacet
  facet normal -1 0 0
    outer loop
      vertex 27 23 38.3
      vertex 27 27.0703 45.35
      vertex 27 27.0703 40.65
    endloop
  endfacet
  facet normal -1 0 0
    outer loop
      vertex 27 27.0703 45.35
      vertex 27 18.9297 45.35
      vertex 27 23 47.7
    endloop
  endfacet
  facet normal 0 -1 0
    outer loop
      vertex 27 18.9297 40.65
      vertex 30 18.9297 45.35
      vertex 27 18.9297 45.35
    endloop
  endfacet
  facet normal 0 -1 -0
    outer loop
      vertex 30 18.9297 45.35
      vertex 27 18.9297 40.65
      vertex 30 18.9297 40.65
    endloop
  endfacet
  facet normal 0 -0.5 0.866025
    outer loop
      vertex 27 23 47.7
      vertex 30 18.9297 45.35
      vertex 30 23 47.7
    endloop
  endfacet
  facet normal 0 -0.5 0.866025
    outer loop
      vertex 30 18.9297 45.35
      vertex 27 23 47.7
      vertex 27 18.9297 45.35
    endloop
  endfacet
  facet normal 0 -0.5 -0.866025
    outer loop
      vertex 27 18.9297 40.65
      vertex 30 23 38.3
      vertex 30 18.9297 40.65
    endloop
  endfacet
  facet normal -0 -0.5 -0.866025
    outer loop
      vertex 30 23 38.3
      vertex 27 18.9297 40.65
      vertex 27 23 38.3
    endloop
  endfacet
  facet normal -0 0 1
    outer loop
      vertex 50 30 50
      vertex 53 0 50
      vertex 53 30 50
    endloop
  endfacet
  facet normal 0 0 1
    outer loop
      vertex 53 0 50
      vertex 50 30 50
      vertex 50 0 50
    endloop
  endfacet
  facet normal 1 -0 0
    outer loop
      vertex 53 0 50
      vertex 53 30 0
      vertex 53 30 50
    endloop
  endfacet
  facet normal 1 0 0
    outer loop
      vertex 53 30 0
      vertex 53 0 50
      vertex 53 0 0
    endloop
  endfacet
  facet normal 0 0 -1
    outer loop
      vertex 50 0 0
      vertex 53 30 0
      vertex 53 0 0
    endloop
  endfacet
  facet normal -0 0 -1
    outer loop
      vertex 53 30 0
      vertex 50 0 0
      vertex 50 30 0
    endloop
  endfacet
  facet normal 0 -1 0
    outer loop
      vertex 50 0 0
      vertex 53 0 50
      vertex 50 0 50
    endloop
  endfacet
  facet normal 0 -1 -0
    outer loop
      vertex 53 0 50
      vertex 50 0 0
      vertex 53 0 0
    endloop
  endfacet
  facet normal 0 1 -0
    outer loop
      vertex 53 30 0
      vertex 50 30 50
      vertex 53 30 50
    endloop
  endfacet
  facet normal 0 1 0
    outer loop
      vertex 50 30 50
      vertex 53 30 0
      vertex 50 30 0
    endloop
  endfacet
endsolid OpenSCAD_Model
