<?xml version="1.0" encoding="UTF-8" standalone="no"?>
<!-- Created with Inkscape (http://www.inkscape.org/) -->

<svg
   width="63.974831mm"
   height="56.743927mm"
   viewBox="0 0 63.974831 56.743927"
   version="1.1"
   id="svg952"
   inkscape:version="1.1.2 (0a00cf5339, 2022-02-04)"
   sodipodi:docname="rt_circle.svg"
   xmlns:inkscape="http://www.inkscape.org/namespaces/inkscape"
   xmlns:sodipodi="http://sodipodi.sourceforge.net/DTD/sodipodi-0.dtd"
   xmlns="http://www.w3.org/2000/svg"
   xmlns:svg="http://www.w3.org/2000/svg">
  <sodipodi:namedview
     id="namedview954"
     pagecolor="#ffffff"
     bordercolor="#666666"
     borderopacity="1.0"
     inkscape:pageshadow="2"
     inkscape:pageopacity="0.0"
     inkscape:pagecheckerboard="0"
     inkscape:document-units="mm"
     showgrid="false"
     fit-margin-top="0"
     fit-margin-left="0"
     fit-margin-right="0"
     fit-margin-bottom="0"
     inkscape:zoom="0.60756173"
     inkscape:cx="82.296165"
     inkscape:cy="336.59131"
     inkscape:window-width="1498"
     inkscape:window-height="896"
     inkscape:window-x="38"
     inkscape:window-y="27"
     inkscape:window-maximized="1"
     inkscape:current-layer="layer1" />
  <defs
     id="defs949">
    <linearGradient
       id="a"
       x1="193.07001"
       x2="434.76001"
       y1="746.84998"
       y2="746.84998"
       gradientUnits="userSpaceOnUse"
       gradientTransform="matrix(0.26458333,0,0,0.26458333,31.888465,-109.61446)">
      <stop
         stop-color="#7FC142"
         offset="0"
         id="stop4" />
      <stop
         stop-color="#45AC72"
         offset=".5"
         id="stop6" />
      <stop
         stop-color="#0898B8"
         offset="1"
         id="stop8" />
    </linearGradient>
  </defs>
  <g
     inkscape:label="Ebene 1"
     inkscape:groupmode="layer"
     id="layer1"
     transform="translate(-82.980327,-59.595772)">
    <path
       class="st0"
       d="m 115.09992,116.3397 c -3.83646,-0.0264 -7.56708,-0.66145 -11.24479,-1.71979 -5.820833,-1.64041 -10.715624,-4.70958 -14.499166,-9.41916 -3.254375,-4.02167 -5.371041,-8.572504 -6.085416,-13.731879 -0.767292,-5.423958 -0.02646,-10.63625 2.38125,-15.583958 1.640416,-3.386667 3.96875,-6.270625 6.879166,-8.678334 3.227917,-2.645833 6.799792,-4.683125 10.821456,-5.873749 4.47146,-1.349375 9.07521,-1.905 13.75834,-1.693334 4.36562,0.211667 8.5725,1.031875 12.62062,2.725209 5.37104,2.248958 9.78958,5.635624 13.0175,10.530416 1.98438,3.01625 3.25438,6.323542 3.81,9.921875 0.42333,2.69875 0.52917,5.423958 0.21167,8.175625 -0.44979,3.81 -1.71979,7.381875 -3.75709,10.609789 -4.1275,6.56167 -10.00125,10.87438 -17.40958,13.14979 -2.46062,0.7673 -4.97417,1.21709 -7.51417,1.4023 -1.03187,0.10583 -2.01083,0.13229 -2.98979,0.1852 z M 104.64888,90.331162 c -0.26458,-1.243541 -0.3175,-3.174999 -0.0529,-4.974166 0.47625,-3.518958 1.95792,-6.561667 4.39209,-9.128125 2.75166,-2.936875 6.16479,-4.656667 10.16,-5.159375 3.30729,-0.396875 6.48229,0.105833 9.44562,1.693333 3.62479,1.957917 6.13834,4.92125 7.75229,8.651875 1.95792,4.524375 2.11667,9.2075 1.21709,13.97 -0.71438,3.65125 -2.30188,6.905626 -4.60375,9.842496 -0.15875,0.18521 -0.3175,0.39688 -0.44979,0.58209 0.10583,0 0.21166,-0.0529 0.26458,-0.10584 1.74625,-1.37583 3.30729,-2.96333 4.55083,-4.84187 3.57188,-5.344584 4.7625,-11.191876 3.43959,-17.462501 -1.11125,-5.371041 -3.91584,-9.710208 -8.28146,-13.043958 -3.22792,-2.460625 -6.87917,-3.889375 -10.92729,-4.365625 -2.59292,-0.291042 -5.18584,-0.185208 -7.7523,0.370417 -3.33375,0.714375 -6.24416,2.196041 -8.86354,4.365625 -2.11666,1.74625 -3.88937,3.783541 -5.159373,6.244166 -2.037291,3.915834 -2.460624,8.043334 -1.719791,12.329583 0.529166,2.936875 1.852083,5.503334 4.048124,7.567084 3.36021,3.095625 8.06979,3.439579 11.82688,1.455208 3.09562,-1.613958 5.00062,-4.233333 5.82083,-7.62 0.37042,-1.5875 1.29646,-2.778125 2.72521,-3.571875 0.9525,-0.529166 2.01083,-0.714375 3.09562,-0.635 0.13229,1.296459 0.13229,2.566458 -0.0529,3.836458 -0.47625,3.571875 -1.95792,6.693959 -4.445,9.313334 -2.96334,3.095624 -6.61459,4.815414 -10.90084,5.159374 -3.04271,0.23813 -5.95312,-0.3175 -8.65187,-1.74625 -3.836461,-2.06375 -6.429377,-5.238749 -8.043336,-9.233958 -1.5875,-3.942291 -1.772708,-8.016874 -1.137708,-12.144374 0.661458,-4.28625 2.460625,-8.043334 5.265208,-11.350625 0.264584,-0.291042 0.502708,-0.608542 0.767292,-0.899584 -0.132292,0 -0.211667,0.05292 -0.3175,0.132292 -2.672292,1.957917 -4.815417,4.392083 -6.376458,7.276042 -2.487084,4.577291 -3.360209,9.472083 -2.54,14.631458 0.661458,4.206875 2.328333,7.990416 5.185833,11.138959 6.164789,6.79979 13.811249,8.94292 22.674789,6.95854 3.51896,-0.79375 6.50875,-2.64583 9.12813,-5.08 2.35479,-2.16958 4.15396,-4.736041 5.21229,-7.778749 0.97896,-2.831042 1.21708,-5.741459 0.89958,-8.73125 -0.34396,-3.175 -1.48166,-6.0325 -3.67771,-8.387292 -3.01625,-3.254375 -7.22312,-4.074583 -11.08604,-2.645833 -4.1275,1.534583 -6.50875,4.656667 -7.27604,8.969375 -0.44979,2.645833 -2.88396,4.656666 -5.55625,4.418541 z"
       fill="url(#a)"
       id="path11"
       style="fill:url(#a);stroke-width:0.264583" />
  </g>
</svg>
