solid OpenSCAD_Model
  facet normal -1 0 0
    outer loop
      vertex 0 25 0
      vertex 0 20 5.01
      vertex 0 25 5.01
    endloop
  endfacet
  facet normal -1 0 0
    outer loop
      vertex 0 17.5 0
      vertex 0 20 5.01
      vertex 0 25 0
    endloop
  endfacet
  facet normal -1 0 0
    outer loop
      vertex 0 17.5 10
      vertex 0 20 5.01
      vertex 0 17.5 0
    endloop
  endfacet
  facet normal -1 0 0
    outer loop
      vertex 0 20 5.01
      vertex 0 17.5 10
      vertex 0 20 10
    endloop
  endfacet
  facet normal -1 0 0
    outer loop
      vertex 0 13.5 0
      vertex 0 14.5 10
      vertex 0 14.5 0
    endloop
  endfacet
  facet normal -1 -0 0
    outer loop
      vertex 0 14.5 10
      vertex 0 13.5 0
      vertex 0 13.5 10
    endloop
  endfacet
  facet normal -1 0 0
    outer loop
      vertex 0 9.5 0
      vertex 0 10.5 10
      vertex 0 10.5 0
    endloop
  endfacet
  facet normal -1 -0 0
    outer loop
      vertex 0 10.5 10
      vertex 0 9.5 0
      vertex 0 9.5 10
    endloop
  endfacet
  facet normal -1 0 0
    outer loop
      vertex 0 5.5 0
      vertex 0 6.5 10
      vertex 0 6.5 0
    endloop
  endfacet
  facet normal -1 -0 0
    outer loop
      vertex 0 6.5 10
      vertex 0 5.5 0
      vertex 0 5.5 10
    endloop
  endfacet
  facet normal -1 0 0
    outer loop
      vertex 0 1.5 0
      vertex 0 2.5 10
      vertex 0 2.5 0
    endloop
  endfacet
  facet normal -1 -0 0
    outer loop
      vertex 0 2.5 10
      vertex 0 1.5 0
      vertex 0 1.5 10
    endloop
  endfacet
  facet normal -0 0 1
    outer loop
      vertex 1.06066 1.06066 10
      vertex 5.5 0 10
      vertex 1.06066 2.93934 10
    endloop
  endfacet
  facet normal 0 0 1
    outer loop
      vertex 5.5 0 10
      vertex 1.06066 1.06066 10
      vertex 1.5 0 10
    endloop
  endfacet
  facet normal -0 0 1
    outer loop
      vertex 0 2.5 10
      vertex 1.06066 1.06066 10
      vertex 1.06066 2.93934 10
    endloop
  endfacet
  facet normal 0 0 1
    outer loop
      vertex 1.06066 1.06066 10
      vertex 0 2.5 10
      vertex 0 1.5 10
    endloop
  endfacet
  facet normal -0 0 1
    outer loop
      vertex 1.06066 6.93934 10
      vertex 1.5 4 10
      vertex 1.5 8 10
    endloop
  endfacet
  facet normal 0 0 1
    outer loop
      vertex 1.06066 6.93934 10
      vertex 1.06066 5.06066 10
      vertex 1.5 4 10
    endloop
  endfacet
  facet normal -0 0 1
    outer loop
      vertex 0 6.5 10
      vertex 1.06066 5.06066 10
      vertex 1.06066 6.93934 10
    endloop
  endfacet
  facet normal 0 0 1
    outer loop
      vertex 1.06066 5.06066 10
      vertex 0 6.5 10
      vertex 0 5.5 10
    endloop
  endfacet
  facet normal 0 0 1
    outer loop
      vertex 1.06066 9.06066 10
      vertex 5.5 12 10
      vertex 1.06066 10.9393 10
    endloop
  endfacet
  facet normal 0 0 1
    outer loop
      vertex 5.5 12 10
      vertex 1.06066 9.06066 10
      vertex 1.5 8 10
    endloop
  endfacet
  facet normal -0 0 1
    outer loop
      vertex 0 10.5 10
      vertex 1.06066 9.06066 10
      vertex 1.06066 10.9393 10
    endloop
  endfacet
  facet normal 0 0 1
    outer loop
      vertex 1.06066 9.06066 10
      vertex 0 10.5 10
      vertex 0 9.5 10
    endloop
  endfacet
  facet normal 0 0 1
    outer loop
      vertex 1.06066 13.0607 10
      vertex 5.64138 13.1191 10
      vertex 1.06066 14.9393 10
    endloop
  endfacet
  facet normal 0 0 1
    outer loop
      vertex 5.64138 13.1191 10
      vertex 1.06066 13.0607 10
      vertex 1.5 12 10
    endloop
  endfacet
  facet normal -0 0 1
    outer loop
      vertex 0 14.5 10
      vertex 1.06066 13.0607 10
      vertex 1.06066 14.9393 10
    endloop
  endfacet
  facet normal 0 0 1
    outer loop
      vertex 1.06066 13.0607 10
      vertex 0 14.5 10
      vertex 0 13.5 10
    endloop
  endfacet
  facet normal 0 0 1
    outer loop
      vertex 20 20 10
      vertex 18.9393 17.0607 10
      vertex 20 17.5 10
    endloop
  endfacet
  facet normal 0 0 1
    outer loop
      vertex 12.4112 15.7995 10
      vertex 18.9393 17.0607 10
      vertex 20 20 10
    endloop
  endfacet
  facet normal 0 0 1
    outer loop
      vertex 18.9393 13.0607 10
      vertex 14.3586 13.1191 10
      vertex 18.5 12 10
    endloop
  endfacet
  facet normal 0 0 1
    outer loop
      vertex 18.5 12 10
      vertex 14.5 12 10
      vertex 18.5 8 10
    endloop
  endfacet
  facet normal 0 0 1
    outer loop
      vertex 18.5 8 10
      vertex 14.5 12 10
      vertex 18.5 4 10
    endloop
  endfacet
  facet normal 0 0 1
    outer loop
      vertex 14.5 0 10
      vertex 18.5 4 10
      vertex 14.5 12 10
    endloop
  endfacet
  facet normal 0 0 1
    outer loop
      vertex 14.4645 -0.563999 10
      vertex 18.5 0 10
      vertex 14.5 0 10
    endloop
  endfacet
  facet normal 0 0 1
    outer loop
      vertex 14.3586 -1.1191 10
      vertex 18.5 0 10
      vertex 14.4645 -0.563999 10
    endloop
  endfacet
  facet normal 0 0 1
    outer loop
      vertex 18.5 4 10
      vertex 14.5 0 10
      vertex 18.5 0 10
    endloop
  endfacet
  facet normal 0 -0 1
    outer loop
      vertex 12.8684 15.4673 10
      vertex 18.9393 17.0607 10
      vertex 12.4112 15.7995 10
    endloop
  endfacet
  facet normal 0 0 1
    outer loop
      vertex 18.5 12 10
      vertex 14.4645 12.564 10
      vertex 14.5 12 10
    endloop
  endfacet
  facet normal 0 0 1
    outer loop
      vertex 18.5 12 10
      vertex 14.3586 13.1191 10
      vertex 14.4645 12.564 10
    endloop
  endfacet
  facet normal 0 0 1
    outer loop
      vertex 18.5 16 10
      vertex 14.184 13.6566 10
      vertex 14.3586 13.1191 10
    endloop
  endfacet
  facet normal 0 0 1
    outer loop
      vertex 18.5 16 10
      vertex 13.9434 14.1679 10
      vertex 14.184 13.6566 10
    endloop
  endfacet
  facet normal 0 0 1
    outer loop
      vertex 18.5 16 10
      vertex 13.6406 14.645 10
      vertex 13.9434 14.1679 10
    endloop
  endfacet
  facet normal 0 0 1
    outer loop
      vertex 18.5 16 10
      vertex 13.2804 15.0805 10
      vertex 13.6406 14.645 10
    endloop
  endfacet
  facet normal 0 0 1
    outer loop
      vertex 18.5 16 10
      vertex 12.8684 15.4673 10
      vertex 13.2804 15.0805 10
    endloop
  endfacet
  facet normal 0 0 1
    outer loop
      vertex 18.9393 17.0607 10
      vertex 12.8684 15.4673 10
      vertex 18.5 16 10
    endloop
  endfacet
  facet normal 0 0 1
    outer loop
      vertex 20 20 10
      vertex 11.916 16.0717 10
      vertex 12.4112 15.7995 10
    endloop
  endfacet
  facet normal 0 0 1
    outer loop
      vertex 20 20 10
      vertex 11.3906 16.2798 10
      vertex 11.916 16.0717 10
    endloop
  endfacet
  facet normal 0 0 1
    outer loop
      vertex 20 20 10
      vertex 10.8432 16.4203 10
      vertex 11.3906 16.2798 10
    endloop
  endfacet
  facet normal 0 0 1
    outer loop
      vertex 20 20 10
      vertex 10.2826 16.4911 10
      vertex 10.8432 16.4203 10
    endloop
  endfacet
  facet normal 0 0 1
    outer loop
      vertex 20 20 10
      vertex 9.71744 16.4911 10
      vertex 10.2826 16.4911 10
    endloop
  endfacet
  facet normal -0 0 1
    outer loop
      vertex 0 20 10
      vertex 9.71744 16.4911 10
      vertex 20 20 10
    endloop
  endfacet
  facet normal 0 0 1
    outer loop
      vertex 9.71744 16.4911 10
      vertex 0 20 10
      vertex 9.15678 16.4203 10
    endloop
  endfacet
  facet normal -0 0 1
    outer loop
      vertex 1.5 4 10
      vertex 5.5 0 10
      vertex 5.5 12 10
    endloop
  endfacet
  facet normal 0 0 1
    outer loop
      vertex 1.06066 -1.06066 10
      vertex 5.5 0 10
      vertex 1.5 0 10
    endloop
  endfacet
  facet normal 0 0 1
    outer loop
      vertex 1.5 12 10
      vertex 5.5 12 10
      vertex 5.53548 12.564 10
    endloop
  endfacet
  facet normal 0 0 1
    outer loop
      vertex 5.5 0 10
      vertex 3.30869 -7.43145 10
      vertex 5 -8.66025 10
    endloop
  endfacet
  facet normal 0 0 1
    outer loop
      vertex 1.5 12 10
      vertex 5.53548 12.564 10
      vertex 5.64138 13.1191 10
    endloop
  endfacet
  facet normal 0 0 1
    outer loop
      vertex 5.81601 13.6566 10
      vertex 1.06066 14.9393 10
      vertex 5.64138 13.1191 10
    endloop
  endfacet
  facet normal -0 0 1
    outer loop
      vertex 1.06066 14.9393 10
      vertex 5.81601 13.6566 10
      vertex 1.5 16 10
    endloop
  endfacet
  facet normal 0 0 1
    outer loop
      vertex 6.05662 14.1679 10
      vertex 1.5 16 10
      vertex 5.81601 13.6566 10
    endloop
  endfacet
  facet normal 0 0 1
    outer loop
      vertex 6.35942 14.645 10
      vertex 1.5 16 10
      vertex 6.05662 14.1679 10
    endloop
  endfacet
  facet normal 0 0 1
    outer loop
      vertex 6.71964 15.0805 10
      vertex 1.5 16 10
      vertex 6.35942 14.645 10
    endloop
  endfacet
  facet normal 0 0 1
    outer loop
      vertex 7.13159 15.4673 10
      vertex 1.5 16 10
      vertex 6.71964 15.0805 10
    endloop
  endfacet
  facet normal 0 0 1
    outer loop
      vertex 1.06066 17.0607 10
      vertex 7.13159 15.4673 10
      vertex 7.58878 15.7995 10
    endloop
  endfacet
  facet normal 0 0 1
    outer loop
      vertex 0 20 10
      vertex 7.58878 15.7995 10
      vertex 8.08399 16.0717 10
    endloop
  endfacet
  facet normal 0 0 1
    outer loop
      vertex 0 20 10
      vertex 8.08399 16.0717 10
      vertex 8.60942 16.2798 10
    endloop
  endfacet
  facet normal 0 0 1
    outer loop
      vertex 9.15678 16.4203 10
      vertex 0 20 10
      vertex 8.60942 16.2798 10
    endloop
  endfacet
  facet normal 0 0 1
    outer loop
      vertex 7.13159 15.4673 10
      vertex 1.06066 17.0607 10
      vertex 1.5 16 10
    endloop
  endfacet
  facet normal 0 0 1
    outer loop
      vertex 7.58878 15.7995 10
      vertex 0 20 10
      vertex 1.06066 17.0607 10
    endloop
  endfacet
  facet normal 0 0 1
    outer loop
      vertex 1.06066 17.0607 10
      vertex 0 20 10
      vertex 0 17.5 10
    endloop
  endfacet
  facet normal 0 0 1
    outer loop
      vertex 18.9393 14.9393 10
      vertex 20 13.5 10
      vertex 20 14.5 10
    endloop
  endfacet
  facet normal 0 0 1
    outer loop
      vertex 18.9393 14.9393 10
      vertex 18.9393 13.0607 10
      vertex 20 13.5 10
    endloop
  endfacet
  facet normal 0 0 1
    outer loop
      vertex 14.3586 13.1191 10
      vertex 18.9393 14.9393 10
      vertex 18.5 16 10
    endloop
  endfacet
  facet normal 0 0 1
    outer loop
      vertex 18.9393 14.9393 10
      vertex 14.3586 13.1191 10
      vertex 18.9393 13.0607 10
    endloop
  endfacet
  facet normal 0 0 1
    outer loop
      vertex 18.9393 10.9393 10
      vertex 20 9.5 10
      vertex 20 10.5 10
    endloop
  endfacet
  facet normal 0 0 1
    outer loop
      vertex 18.9393 10.9393 10
      vertex 18.9393 9.06066 10
      vertex 20 9.5 10
    endloop
  endfacet
  facet normal 0 0 1
    outer loop
      vertex 18.5 12 10
      vertex 18.9393 9.06066 10
      vertex 18.9393 10.9393 10
    endloop
  endfacet
  facet normal 0 0 1
    outer loop
      vertex 18.9393 9.06066 10
      vertex 18.5 12 10
      vertex 18.5 8 10
    endloop
  endfacet
  facet normal 0 0 1
    outer loop
      vertex 18.9393 6.93934 10
      vertex 20 5.5 10
      vertex 20 6.5 10
    endloop
  endfacet
  facet normal 0 0 1
    outer loop
      vertex 18.9393 6.93934 10
      vertex 18.9393 5.06066 10
      vertex 20 5.5 10
    endloop
  endfacet
  facet normal 0 0 1
    outer loop
      vertex 18.5 8 10
      vertex 18.9393 5.06066 10
      vertex 18.9393 6.93934 10
    endloop
  endfacet
  facet normal 0 0 1
    outer loop
      vertex 18.9393 5.06066 10
      vertex 18.5 8 10
      vertex 18.5 4 10
    endloop
  endfacet
  facet normal 0 0 1
    outer loop
      vertex 18.9393 2.93934 10
      vertex 20 1.5 10
      vertex 20 2.5 10
    endloop
  endfacet
  facet normal 0 0 1
    outer loop
      vertex 18.9393 2.93934 10
      vertex 18.9393 1.06066 10
      vertex 20 1.5 10
    endloop
  endfacet
  facet normal 0 0 1
    outer loop
      vertex 18.5 4 10
      vertex 18.9393 1.06066 10
      vertex 18.9393 2.93934 10
    endloop
  endfacet
  facet normal 0 0 1
    outer loop
      vertex 18.9393 1.06066 10
      vertex 18.5 4 10
      vertex 18.5 0 10
    endloop
  endfacet
  facet normal 0 0 1
    outer loop
      vertex 18.9393 -1.06066 10
      vertex 19.7815 -2.07912 10
      vertex 19.8489 -1.43742 10
    endloop
  endfacet
  facet normal 0 0 1
    outer loop
      vertex 19.7815 -2.07912 10
      vertex 18.9393 -1.06066 10
      vertex 19.1355 -4.06737 10
    endloop
  endfacet
  facet normal 0 0 1
    outer loop
      vertex 18.0902 -5.87785 10
      vertex 18.9393 -1.06066 10
      vertex 18.5 0 10
    endloop
  endfacet
  facet normal 0 0 1
    outer loop
      vertex 18.9393 -1.06066 10
      vertex 18.0902 -5.87785 10
      vertex 19.1355 -4.06737 10
    endloop
  endfacet
  facet normal 0 0 1
    outer loop
      vertex 14.184 -1.65656 10
      vertex 18.5 0 10
      vertex 14.3586 -1.1191 10
    endloop
  endfacet
  facet normal 0 0 1
    outer loop
      vertex 18.5 0 10
      vertex 14.184 -1.65656 10
      vertex 18.0902 -5.87785 10
    endloop
  endfacet
  facet normal -0 0 1
    outer loop
      vertex 13.9434 -2.16789 10
      vertex 18.0902 -5.87785 10
      vertex 14.184 -1.65656 10
    endloop
  endfacet
  facet normal -0 0 1
    outer loop
      vertex 13.6406 -2.64503 10
      vertex 18.0902 -5.87785 10
      vertex 13.9434 -2.16789 10
    endloop
  endfacet
  facet normal -0 0 1
    outer loop
      vertex 13.2804 -3.08046 10
      vertex 18.0902 -5.87785 10
      vertex 13.6406 -2.64503 10
    endloop
  endfacet
  facet normal 0 0 1
    outer loop
      vertex 18.0902 -5.87785 10
      vertex 13.2804 -3.08046 10
      vertex 16.6913 -7.43145 10
    endloop
  endfacet
  facet normal -0 0 1
    outer loop
      vertex 12.8684 -3.46731 10
      vertex 16.6913 -7.43145 10
      vertex 13.2804 -3.08046 10
    endloop
  endfacet
  facet normal 0 0 1
    outer loop
      vertex 16.6913 -7.43145 10
      vertex 12.8684 -3.46731 10
      vertex 15 -8.66025 10
    endloop
  endfacet
  facet normal -0 0 1
    outer loop
      vertex 12.4112 -3.79947 10
      vertex 15 -8.66025 10
      vertex 12.8684 -3.46731 10
    endloop
  endfacet
  facet normal -0 0 1
    outer loop
      vertex 11.916 -4.07172 10
      vertex 15 -8.66025 10
      vertex 12.4112 -3.79947 10
    endloop
  endfacet
  facet normal 0 0 1
    outer loop
      vertex 15 -8.66025 10
      vertex 11.916 -4.07172 10
      vertex 13.0902 -9.51056 10
    endloop
  endfacet
  facet normal -0 0 1
    outer loop
      vertex 11.3906 -4.27975 10
      vertex 13.0902 -9.51056 10
      vertex 11.916 -4.07172 10
    endloop
  endfacet
  facet normal -0 0 1
    outer loop
      vertex 10.8432 -4.42029 10
      vertex 13.0902 -9.51056 10
      vertex 11.3906 -4.27975 10
    endloop
  endfacet
  facet normal 0 0 1
    outer loop
      vertex 13.0902 -9.51056 10
      vertex 10.8432 -4.42029 10
      vertex 11.0453 -9.94522 10
    endloop
  endfacet
  facet normal -0 0 1
    outer loop
      vertex 10.2826 -4.49112 10
      vertex 11.0453 -9.94522 10
      vertex 10.8432 -4.42029 10
    endloop
  endfacet
  facet normal -0 0 1
    outer loop
      vertex 9.71744 -4.49112 10
      vertex 11.0453 -9.94522 10
      vertex 10.2826 -4.49112 10
    endloop
  endfacet
  facet normal 0 0 1
    outer loop
      vertex 8.95471 -9.94522 10
      vertex 9.71744 -4.49112 10
      vertex 9.15678 -4.42029 10
    endloop
  endfacet
  facet normal 0 0 1
    outer loop
      vertex 9.71744 -4.49112 10
      vertex 8.95471 -9.94522 10
      vertex 11.0453 -9.94522 10
    endloop
  endfacet
  facet normal 0 0 1
    outer loop
      vertex 6.90983 -9.51056 10
      vertex 9.15678 -4.42029 10
      vertex 8.60942 -4.27975 10
    endloop
  endfacet
  facet normal 0 0 1
    outer loop
      vertex 6.90983 -9.51056 10
      vertex 8.60942 -4.27975 10
      vertex 8.08399 -4.07172 10
    endloop
  endfacet
  facet normal 0 0 1
    outer loop
      vertex 5 -8.66025 10
      vertex 8.08399 -4.07172 10
      vertex 7.58878 -3.79947 10
    endloop
  endfacet
  facet normal 0 0 1
    outer loop
      vertex 5 -8.66025 10
      vertex 7.58878 -3.79947 10
      vertex 7.13159 -3.46731 10
    endloop
  endfacet
  facet normal 0 0 1
    outer loop
      vertex 9.15678 -4.42029 10
      vertex 6.90983 -9.51056 10
      vertex 8.95471 -9.94522 10
    endloop
  endfacet
  facet normal 0 0 1
    outer loop
      vertex 5 -8.66025 10
      vertex 7.13159 -3.46731 10
      vertex 6.71964 -3.08046 10
    endloop
  endfacet
  facet normal 0 0 1
    outer loop
      vertex 5 -8.66025 10
      vertex 6.71964 -3.08046 10
      vertex 6.35942 -2.64503 10
    endloop
  endfacet
  facet normal 0 0 1
    outer loop
      vertex 5 -8.66025 10
      vertex 6.35942 -2.64503 10
      vertex 6.05662 -2.16789 10
    endloop
  endfacet
  facet normal 0 0 1
    outer loop
      vertex 5 -8.66025 10
      vertex 6.05662 -2.16789 10
      vertex 5.81601 -1.65656 10
    endloop
  endfacet
  facet normal 0 0 1
    outer loop
      vertex 5 -8.66025 10
      vertex 5.81601 -1.65656 10
      vertex 5.64138 -1.1191 10
    endloop
  endfacet
  facet normal 0 0 1
    outer loop
      vertex 5 -8.66025 10
      vertex 5.64138 -1.1191 10
      vertex 5.53548 -0.563999 10
    endloop
  endfacet
  facet normal 0 0 1
    outer loop
      vertex 8.08399 -4.07172 10
      vertex 5 -8.66025 10
      vertex 6.90983 -9.51056 10
    endloop
  endfacet
  facet normal 0 0 1
    outer loop
      vertex 5 -8.66025 10
      vertex 5.53548 -0.563999 10
      vertex 5.5 0 10
    endloop
  endfacet
  facet normal 0 0 1
    outer loop
      vertex 1.06066 10.9393 10
      vertex 5.5 12 10
      vertex 1.5 12 10
    endloop
  endfacet
  facet normal 0 0 1
    outer loop
      vertex 5.5 12 10
      vertex 1.5 8 10
      vertex 1.5 4 10
    endloop
  endfacet
  facet normal -0 0 1
    outer loop
      vertex 1.06066 2.93934 10
      vertex 5.5 0 10
      vertex 1.5 4 10
    endloop
  endfacet
  facet normal 0 0 1
    outer loop
      vertex 5.5 0 10
      vertex 1.90983 -5.87785 10
      vertex 3.30869 -7.43145 10
    endloop
  endfacet
  facet normal 0 0 1
    outer loop
      vertex 0.864545 -4.06737 10
      vertex 5.5 0 10
      vertex 1.06066 -1.06066 10
    endloop
  endfacet
  facet normal 0 0 1
    outer loop
      vertex 5.5 0 10
      vertex 0.864545 -4.06737 10
      vertex 1.90983 -5.87785 10
    endloop
  endfacet
  facet normal 0 0 1
    outer loop
      vertex 1.06066 -1.06066 10
      vertex 0.218524 -2.07912 10
      vertex 0.864545 -4.06737 10
    endloop
  endfacet
  facet normal 0 -0 1
    outer loop
      vertex 0.218524 -2.07912 10
      vertex 1.06066 -1.06066 10
      vertex 0.151079 -1.43742 10
    endloop
  endfacet
  facet normal 1 0 0
    outer loop
      vertex 20 20 10
      vertex 20 17.5 10
      vertex 20 20 5.01
    endloop
  endfacet
  facet normal 1 -0 0
    outer loop
      vertex 20 20 5.01
      vertex 20 25 0
      vertex 20 25 5.01
    endloop
  endfacet
  facet normal 1 0 0
    outer loop
      vertex 20 20 5.01
      vertex 20 17.5 0
      vertex 20 25 0
    endloop
  endfacet
  facet normal 1 0 0
    outer loop
      vertex 20 17.5 0
      vertex 20 20 5.01
      vertex 20 17.5 10
    endloop
  endfacet
  facet normal 1 -0 0
    outer loop
      vertex 20 13.5 10
      vertex 20 14.5 0
      vertex 20 14.5 10
    endloop
  endfacet
  facet normal 1 0 0
    outer loop
      vertex 20 14.5 0
      vertex 20 13.5 10
      vertex 20 13.5 0
    endloop
  endfacet
  facet normal 1 -0 0
    outer loop
      vertex 20 9.5 10
      vertex 20 10.5 0
      vertex 20 10.5 10
    endloop
  endfacet
  facet normal 1 0 0
    outer loop
      vertex 20 10.5 0
      vertex 20 9.5 10
      vertex 20 9.5 0
    endloop
  endfacet
  facet normal 1 -0 0
    outer loop
      vertex 20 5.5 10
      vertex 20 6.5 0
      vertex 20 6.5 10
    endloop
  endfacet
  facet normal 1 0 0
    outer loop
      vertex 20 6.5 0
      vertex 20 5.5 10
      vertex 20 5.5 0
    endloop
  endfacet
  facet normal 1 -0 0
    outer loop
      vertex 20 1.5 10
      vertex 20 2.5 0
      vertex 20 2.5 10
    endloop
  endfacet
  facet normal 1 0 0
    outer loop
      vertex 20 2.5 0
      vertex 20 1.5 10
      vertex 20 1.5 0
    endloop
  endfacet
  facet normal 0 1 -0
    outer loop
      vertex 20 20 5.01
      vertex 0 20 10
      vertex 20 20 10
    endloop
  endfacet
  facet normal 0 1 0
    outer loop
      vertex 0 20 10
      vertex 20 20 5.01
      vertex 0 20 5.01
    endloop
  endfacet
  facet normal 0 0 -1
    outer loop
      vertex 18.9393 -1.06066 0
      vertex 19.7815 -2.07912 0
      vertex 19.1355 -4.06737 0
    endloop
  endfacet
  facet normal 0 0 -1
    outer loop
      vertex 19.7815 -2.07912 0
      vertex 18.9393 -1.06066 0
      vertex 19.8489 -1.43742 0
    endloop
  endfacet
  facet normal 0 0 -1
    outer loop
      vertex 14.184 -1.65656 0
      vertex 18.9393 -1.06066 0
      vertex 19.1355 -4.06737 0
    endloop
  endfacet
  facet normal -0 0 -1
    outer loop
      vertex 18.9393 2.93934 0
      vertex 14.5 0 0
      vertex 18.5 4 0
    endloop
  endfacet
  facet normal -0 0 -1
    outer loop
      vertex 18.5 4 0
      vertex 14.5 0 0
      vertex 18.5 8 0
    endloop
  endfacet
  facet normal 0 0 -1
    outer loop
      vertex 18.5 8 0
      vertex 14.5 12 0
      vertex 18.5 12 0
    endloop
  endfacet
  facet normal 0 -0 -1
    outer loop
      vertex 14.3586 -1.1191 0
      vertex 18.9393 -1.06066 0
      vertex 14.184 -1.65656 0
    endloop
  endfacet
  facet normal 0 0 -1
    outer loop
      vertex 14.184 -1.65656 0
      vertex 19.1355 -4.06737 0
      vertex 18.0902 -5.87785 0
    endloop
  endfacet
  facet normal 0 0 -1
    outer loop
      vertex 18.9393 1.06066 0
      vertex 20 2.5 0
      vertex 20 1.5 0
    endloop
  endfacet
  facet normal 0 0 -1
    outer loop
      vertex 18.9393 1.06066 0
      vertex 18.9393 2.93934 0
      vertex 20 2.5 0
    endloop
  endfacet
  facet normal 0 0 -1
    outer loop
      vertex 14.5 0 0
      vertex 18.9393 1.06066 0
      vertex 18.5 0 0
    endloop
  endfacet
  facet normal -0 0 -1
    outer loop
      vertex 18.9393 1.06066 0
      vertex 14.5 0 0
      vertex 18.9393 2.93934 0
    endloop
  endfacet
  facet normal 0 0 -1
    outer loop
      vertex 18.9393 5.06066 0
      vertex 20 6.5 0
      vertex 20 5.5 0
    endloop
  endfacet
  facet normal 0 0 -1
    outer loop
      vertex 18.9393 5.06066 0
      vertex 18.9393 6.93934 0
      vertex 20 6.5 0
    endloop
  endfacet
  facet normal 0 0 -1
    outer loop
      vertex 18.5 4 0
      vertex 18.9393 6.93934 0
      vertex 18.9393 5.06066 0
    endloop
  endfacet
  facet normal -0 0 -1
    outer loop
      vertex 18.9393 6.93934 0
      vertex 18.5 4 0
      vertex 18.5 8 0
    endloop
  endfacet
  facet normal 0 0 -1
    outer loop
      vertex 18.9393 9.06066 0
      vertex 20 10.5 0
      vertex 20 9.5 0
    endloop
  endfacet
  facet normal 0 0 -1
    outer loop
      vertex 18.9393 9.06066 0
      vertex 18.9393 10.9393 0
      vertex 20 10.5 0
    endloop
  endfacet
  facet normal 0 0 -1
    outer loop
      vertex 18.5 8 0
      vertex 18.9393 10.9393 0
      vertex 18.9393 9.06066 0
    endloop
  endfacet
  facet normal -0 0 -1
    outer loop
      vertex 18.9393 10.9393 0
      vertex 18.5 8 0
      vertex 18.5 12 0
    endloop
  endfacet
  facet normal 0 0 -1
    outer loop
      vertex 18.9393 13.0607 0
      vertex 20 14.5 0
      vertex 20 13.5 0
    endloop
  endfacet
  facet normal 0 0 -1
    outer loop
      vertex 18.9393 13.0607 0
      vertex 18.9393 14.9393 0
      vertex 20 14.5 0
    endloop
  endfacet
  facet normal 0 0 -1
    outer loop
      vertex 18.5 12 0
      vertex 18.9393 14.9393 0
      vertex 18.9393 13.0607 0
    endloop
  endfacet
  facet normal -0 0 -1
    outer loop
      vertex 18.9393 14.9393 0
      vertex 18.5 12 0
      vertex 18.5 16 0
    endloop
  endfacet
  facet normal 0 0 -1
    outer loop
      vertex 18.9393 17.0607 0
      vertex 20 25 0
      vertex 20 17.5 0
    endloop
  endfacet
  facet normal 0 0 -1
    outer loop
      vertex 12.8684 15.4673 0
      vertex 18.9393 17.0607 0
      vertex 18.5 16 0
    endloop
  endfacet
  facet normal 0 0 -1
    outer loop
      vertex 13.2804 -3.08046 0
      vertex 18.0902 -5.87785 0
      vertex 16.6913 -7.43145 0
    endloop
  endfacet
  facet normal 0 0 -1
    outer loop
      vertex 12.8684 -3.46731 0
      vertex 16.6913 -7.43145 0
      vertex 15 -8.66025 0
    endloop
  endfacet
  facet normal -0 0 -1
    outer loop
      vertex 18.5 8 0
      vertex 14.5 0 0
      vertex 14.5 12 0
    endloop
  endfacet
  facet normal 0 0 -1
    outer loop
      vertex 14.4645 12.564 0
      vertex 18.5 12 0
      vertex 14.5 12 0
    endloop
  endfacet
  facet normal 0 0 -1
    outer loop
      vertex 14.3586 13.1191 0
      vertex 18.5 12 0
      vertex 14.4645 12.564 0
    endloop
  endfacet
  facet normal 0 0 -1
    outer loop
      vertex 18.5 12 0
      vertex 14.3586 13.1191 0
      vertex 18.5 16 0
    endloop
  endfacet
  facet normal 0 0 -1
    outer loop
      vertex 14.184 13.6566 0
      vertex 18.5 16 0
      vertex 14.3586 13.1191 0
    endloop
  endfacet
  facet normal 0 0 -1
    outer loop
      vertex 13.9434 14.1679 0
      vertex 18.5 16 0
      vertex 14.184 13.6566 0
    endloop
  endfacet
  facet normal 0 0 -1
    outer loop
      vertex 13.6406 14.645 0
      vertex 18.5 16 0
      vertex 13.9434 14.1679 0
    endloop
  endfacet
  facet normal 0 0 -1
    outer loop
      vertex 13.2804 15.0805 0
      vertex 18.5 16 0
      vertex 13.6406 14.645 0
    endloop
  endfacet
  facet normal 0 0 -1
    outer loop
      vertex 12.8684 15.4673 0
      vertex 18.5 16 0
      vertex 13.2804 15.0805 0
    endloop
  endfacet
  facet normal 0 0 -1
    outer loop
      vertex 18.9393 17.0607 0
      vertex 12.8684 15.4673 0
      vertex 12.4112 15.7995 0
    endloop
  endfacet
  facet normal 0 0 -1
    outer loop
      vertex 11.916 16.0717 0
      vertex 18.9393 17.0607 0
      vertex 12.4112 15.7995 0
    endloop
  endfacet
  facet normal -0 0 -1
    outer loop
      vertex 18.9393 17.0607 0
      vertex 11.916 16.0717 0
      vertex 20 25 0
    endloop
  endfacet
  facet normal 0 0 -1
    outer loop
      vertex 11.3906 16.2798 0
      vertex 20 25 0
      vertex 11.916 16.0717 0
    endloop
  endfacet
  facet normal 0 0 -1
    outer loop
      vertex 10.8432 16.4203 0
      vertex 20 25 0
      vertex 11.3906 16.2798 0
    endloop
  endfacet
  facet normal 0 0 -1
    outer loop
      vertex 10.2826 16.4911 0
      vertex 20 25 0
      vertex 10.8432 16.4203 0
    endloop
  endfacet
  facet normal 0 0 -1
    outer loop
      vertex 9.71744 16.4911 0
      vertex 20 25 0
      vertex 10.2826 16.4911 0
    endloop
  endfacet
  facet normal 0 0 -1
    outer loop
      vertex 0 25 0
      vertex 9.71744 16.4911 0
      vertex 9.15678 16.4203 0
    endloop
  endfacet
  facet normal 0 0 -1
    outer loop
      vertex 0 25 0
      vertex 9.15678 16.4203 0
      vertex 8.60942 16.2798 0
    endloop
  endfacet
  facet normal 0 0 -1
    outer loop
      vertex 0 25 0
      vertex 8.60942 16.2798 0
      vertex 8.08399 16.0717 0
    endloop
  endfacet
  facet normal 0 0 -1
    outer loop
      vertex 1.06066 17.0607 0
      vertex 8.08399 16.0717 0
      vertex 7.58878 15.7995 0
    endloop
  endfacet
  facet normal 0 0 -1
    outer loop
      vertex 1.06066 17.0607 0
      vertex 7.58878 15.7995 0
      vertex 7.13159 15.4673 0
    endloop
  endfacet
  facet normal 0 0 -1
    outer loop
      vertex 5.81601 -1.65656 0
      vertex 1.06066 -1.06066 0
      vertex 5.64138 -1.1191 0
    endloop
  endfacet
  facet normal 0 0 -1
    outer loop
      vertex 1.06066 1.06066 0
      vertex 5.5 0 0
      vertex 1.5 0 0
    endloop
  endfacet
  facet normal 0 -0 -1
    outer loop
      vertex 1.5 0 0
      vertex 5.64138 -1.1191 0
      vertex 1.06066 -1.06066 0
    endloop
  endfacet
  facet normal 0 0 -1
    outer loop
      vertex 5.5 0 0
      vertex 1.5 4 0
      vertex 5.5 12 0
    endloop
  endfacet
  facet normal 0 0 -1
    outer loop
      vertex 1.5 8 0
      vertex 5.5 12 0
      vertex 1.5 4 0
    endloop
  endfacet
  facet normal 0 0 -1
    outer loop
      vertex 1.06066 9.06066 0
      vertex 5.5 12 0
      vertex 1.5 8 0
    endloop
  endfacet
  facet normal 0 0 -1
    outer loop
      vertex 1.06066 10.9393 0
      vertex 5.5 12 0
      vertex 1.06066 9.06066 0
    endloop
  endfacet
  facet normal 0 -0 -1
    outer loop
      vertex 1.5 12 0
      vertex 5.5 12 0
      vertex 1.06066 10.9393 0
    endloop
  endfacet
  facet normal 0 0 -1
    outer loop
      vertex 5.5 12 0
      vertex 1.5 12 0
      vertex 5.53548 12.564 0
    endloop
  endfacet
  facet normal 0 0 -1
    outer loop
      vertex 1.06066 14.9393 0
      vertex 5.64138 13.1191 0
      vertex 1.06066 13.0607 0
    endloop
  endfacet
  facet normal 0 0 -1
    outer loop
      vertex 5.64138 13.1191 0
      vertex 1.06066 14.9393 0
      vertex 5.81601 13.6566 0
    endloop
  endfacet
  facet normal 0 -0 -1
    outer loop
      vertex 1.5 16 0
      vertex 5.81601 13.6566 0
      vertex 1.06066 14.9393 0
    endloop
  endfacet
  facet normal 0 0 -1
    outer loop
      vertex 5.81601 13.6566 0
      vertex 1.5 16 0
      vertex 6.05662 14.1679 0
    endloop
  endfacet
  facet normal 0 0 -1
    outer loop
      vertex 6.05662 14.1679 0
      vertex 1.5 16 0
      vertex 6.35942 14.645 0
    endloop
  endfacet
  facet normal 0 0 -1
    outer loop
      vertex 1.06066 17.0607 0
      vertex 7.13159 15.4673 0
      vertex 1.5 16 0
    endloop
  endfacet
  facet normal 0 0 -1
    outer loop
      vertex 8.08399 16.0717 0
      vertex 1.06066 17.0607 0
      vertex 0 25 0
    endloop
  endfacet
  facet normal 0 0 -1
    outer loop
      vertex 0 25 0
      vertex 1.06066 17.0607 0
      vertex 0 17.5 0
    endloop
  endfacet
  facet normal 0 0 -1
    outer loop
      vertex 9.71744 16.4911 0
      vertex 0 25 0
      vertex 20 25 0
    endloop
  endfacet
  facet normal 0 0 -1
    outer loop
      vertex 6.35942 14.645 0
      vertex 1.5 16 0
      vertex 6.71964 15.0805 0
    endloop
  endfacet
  facet normal 0 0 -1
    outer loop
      vertex 6.71964 15.0805 0
      vertex 1.5 16 0
      vertex 7.13159 15.4673 0
    endloop
  endfacet
  facet normal 0 0 -1
    outer loop
      vertex 0 13.5 0
      vertex 1.06066 14.9393 0
      vertex 1.06066 13.0607 0
    endloop
  endfacet
  facet normal 0 0 -1
    outer loop
      vertex 1.06066 14.9393 0
      vertex 0 13.5 0
      vertex 0 14.5 0
    endloop
  endfacet
  facet normal 0 0 -1
    outer loop
      vertex 1.06066 13.0607 0
      vertex 5.64138 13.1191 0
      vertex 1.5 12 0
    endloop
  endfacet
  facet normal -0 0 -1
    outer loop
      vertex 5.53548 12.564 0
      vertex 1.5 12 0
      vertex 5.64138 13.1191 0
    endloop
  endfacet
  facet normal 0 0 -1
    outer loop
      vertex 0 9.5 0
      vertex 1.06066 10.9393 0
      vertex 1.06066 9.06066 0
    endloop
  endfacet
  facet normal 0 0 -1
    outer loop
      vertex 1.06066 10.9393 0
      vertex 0 9.5 0
      vertex 0 10.5 0
    endloop
  endfacet
  facet normal 0 0 -1
    outer loop
      vertex 1.06066 5.06066 0
      vertex 1.5 8 0
      vertex 1.5 4 0
    endloop
  endfacet
  facet normal 0 0 -1
    outer loop
      vertex 1.06066 5.06066 0
      vertex 1.06066 6.93934 0
      vertex 1.5 8 0
    endloop
  endfacet
  facet normal 0 0 -1
    outer loop
      vertex 0 5.5 0
      vertex 1.06066 6.93934 0
      vertex 1.06066 5.06066 0
    endloop
  endfacet
  facet normal 0 0 -1
    outer loop
      vertex 1.06066 6.93934 0
      vertex 0 5.5 0
      vertex 0 6.5 0
    endloop
  endfacet
  facet normal 0 0 -1
    outer loop
      vertex 1.06066 2.93934 0
      vertex 5.5 0 0
      vertex 1.06066 1.06066 0
    endloop
  endfacet
  facet normal 0 0 -1
    outer loop
      vertex 5.5 0 0
      vertex 1.06066 2.93934 0
      vertex 1.5 4 0
    endloop
  endfacet
  facet normal 0 0 -1
    outer loop
      vertex 0 1.5 0
      vertex 1.06066 2.93934 0
      vertex 1.06066 1.06066 0
    endloop
  endfacet
  facet normal 0 0 -1
    outer loop
      vertex 1.06066 2.93934 0
      vertex 0 1.5 0
      vertex 0 2.5 0
    endloop
  endfacet
  facet normal 0 0 -1
    outer loop
      vertex 5.53548 -0.563999 0
      vertex 1.5 0 0
      vertex 5.5 0 0
    endloop
  endfacet
  facet normal 0 0 -1
    outer loop
      vertex 5.64138 -1.1191 0
      vertex 1.5 0 0
      vertex 5.53548 -0.563999 0
    endloop
  endfacet
  facet normal 0 0 -1
    outer loop
      vertex 0.218524 -2.07912 0
      vertex 1.06066 -1.06066 0
      vertex 0.864545 -4.06737 0
    endloop
  endfacet
  facet normal 0 0 -1
    outer loop
      vertex 1.06066 -1.06066 0
      vertex 0.218524 -2.07912 0
      vertex 0.151079 -1.43742 0
    endloop
  endfacet
  facet normal -0 0 -1
    outer loop
      vertex 18.5 0 0
      vertex 14.4645 -0.563999 0
      vertex 14.5 0 0
    endloop
  endfacet
  facet normal 0 0 -1
    outer loop
      vertex 18.5 0 0
      vertex 14.3586 -1.1191 0
      vertex 14.4645 -0.563999 0
    endloop
  endfacet
  facet normal -0 0 -1
    outer loop
      vertex 18.9393 -1.06066 0
      vertex 14.3586 -1.1191 0
      vertex 18.5 0 0
    endloop
  endfacet
  facet normal 0 0 -1
    outer loop
      vertex 18.0902 -5.87785 0
      vertex 13.9434 -2.16789 0
      vertex 14.184 -1.65656 0
    endloop
  endfacet
  facet normal 0 0 -1
    outer loop
      vertex 18.0902 -5.87785 0
      vertex 13.6406 -2.64503 0
      vertex 13.9434 -2.16789 0
    endloop
  endfacet
  facet normal 0 0 -1
    outer loop
      vertex 18.0902 -5.87785 0
      vertex 13.2804 -3.08046 0
      vertex 13.6406 -2.64503 0
    endloop
  endfacet
  facet normal 0 0 -1
    outer loop
      vertex 11.916 -4.07172 0
      vertex 15 -8.66025 0
      vertex 13.0902 -9.51056 0
    endloop
  endfacet
  facet normal 0 0 -1
    outer loop
      vertex 16.6913 -7.43145 0
      vertex 12.8684 -3.46731 0
      vertex 13.2804 -3.08046 0
    endloop
  endfacet
  facet normal 0 0 -1
    outer loop
      vertex 15 -8.66025 0
      vertex 12.4112 -3.79947 0
      vertex 12.8684 -3.46731 0
    endloop
  endfacet
  facet normal 0 0 -1
    outer loop
      vertex 15 -8.66025 0
      vertex 11.916 -4.07172 0
      vertex 12.4112 -3.79947 0
    endloop
  endfacet
  facet normal 0 0 -1
    outer loop
      vertex 13.0902 -9.51056 0
      vertex 11.3906 -4.27975 0
      vertex 11.916 -4.07172 0
    endloop
  endfacet
  facet normal 0 0 -1
    outer loop
      vertex 10.8432 -4.42029 0
      vertex 13.0902 -9.51056 0
      vertex 11.0453 -9.94522 0
    endloop
  endfacet
  facet normal 0 0 -1
    outer loop
      vertex 13.0902 -9.51056 0
      vertex 10.8432 -4.42029 0
      vertex 11.3906 -4.27975 0
    endloop
  endfacet
  facet normal 0 0 -1
    outer loop
      vertex 11.0453 -9.94522 0
      vertex 10.2826 -4.49112 0
      vertex 10.8432 -4.42029 0
    endloop
  endfacet
  facet normal 0 0 -1
    outer loop
      vertex 11.0453 -9.94522 0
      vertex 9.71744 -4.49112 0
      vertex 10.2826 -4.49112 0
    endloop
  endfacet
  facet normal 0 0 -1
    outer loop
      vertex 8.95471 -9.94522 0
      vertex 9.71744 -4.49112 0
      vertex 11.0453 -9.94522 0
    endloop
  endfacet
  facet normal -0 0 -1
    outer loop
      vertex 9.71744 -4.49112 0
      vertex 8.95471 -9.94522 0
      vertex 9.15678 -4.42029 0
    endloop
  endfacet
  facet normal 0 0 -1
    outer loop
      vertex 6.90983 -9.51056 0
      vertex 9.15678 -4.42029 0
      vertex 8.95471 -9.94522 0
    endloop
  endfacet
  facet normal -0 0 -1
    outer loop
      vertex 9.15678 -4.42029 0
      vertex 6.90983 -9.51056 0
      vertex 8.60942 -4.27975 0
    endloop
  endfacet
  facet normal -0 0 -1
    outer loop
      vertex 8.60942 -4.27975 0
      vertex 6.90983 -9.51056 0
      vertex 8.08399 -4.07172 0
    endloop
  endfacet
  facet normal 0 0 -1
    outer loop
      vertex 5 -8.66025 0
      vertex 8.08399 -4.07172 0
      vertex 6.90983 -9.51056 0
    endloop
  endfacet
  facet normal -0 0 -1
    outer loop
      vertex 8.08399 -4.07172 0
      vertex 5 -8.66025 0
      vertex 7.58878 -3.79947 0
    endloop
  endfacet
  facet normal -0 0 -1
    outer loop
      vertex 7.58878 -3.79947 0
      vertex 5 -8.66025 0
      vertex 7.13159 -3.46731 0
    endloop
  endfacet
  facet normal 0 0 -1
    outer loop
      vertex 3.30869 -7.43145 0
      vertex 7.13159 -3.46731 0
      vertex 5 -8.66025 0
    endloop
  endfacet
  facet normal -0 0 -1
    outer loop
      vertex 7.13159 -3.46731 0
      vertex 3.30869 -7.43145 0
      vertex 6.71964 -3.08046 0
    endloop
  endfacet
  facet normal 0 0 -1
    outer loop
      vertex 1.90983 -5.87785 0
      vertex 6.71964 -3.08046 0
      vertex 3.30869 -7.43145 0
    endloop
  endfacet
  facet normal -0 0 -1
    outer loop
      vertex 6.71964 -3.08046 0
      vertex 1.90983 -5.87785 0
      vertex 6.35942 -2.64503 0
    endloop
  endfacet
  facet normal -0 0 -1
    outer loop
      vertex 6.35942 -2.64503 0
      vertex 1.90983 -5.87785 0
      vertex 6.05662 -2.16789 0
    endloop
  endfacet
  facet normal 0 -0 -1
    outer loop
      vertex 1.06066 -1.06066 0
      vertex 5.81601 -1.65656 0
      vertex 0.864545 -4.06737 0
    endloop
  endfacet
  facet normal -0 0 -1
    outer loop
      vertex 6.05662 -2.16789 0
      vertex 0.864545 -4.06737 0
      vertex 5.81601 -1.65656 0
    endloop
  endfacet
  facet normal 0 0 -1
    outer loop
      vertex 0.864545 -4.06737 0
      vertex 6.05662 -2.16789 0
      vertex 1.90983 -5.87785 0
    endloop
  endfacet
  facet normal 0.994522 -0.10453 0
    outer loop
      vertex 19.7815 -2.07912 10
      vertex 19.8489 -1.43742 0
      vertex 19.8489 -1.43742 10
    endloop
  endfacet
  facet normal 0.994522 -0.10453 0
    outer loop
      vertex 19.8489 -1.43742 0
      vertex 19.7815 -2.07912 10
      vertex 19.7815 -2.07912 0
    endloop
  endfacet
  facet normal -0.994522 -0.104528 0
    outer loop
      vertex 0.218524 -2.07912 0
      vertex 0.151079 -1.43742 10
      vertex 0.151079 -1.43742 0
    endloop
  endfacet
  facet normal -0.994522 -0.104528 0
    outer loop
      vertex 0.151079 -1.43742 10
      vertex 0.218524 -2.07912 0
      vertex 0.218524 -2.07912 10
    endloop
  endfacet
  facet normal 0.951057 -0.309017 0
    outer loop
      vertex 19.1355 -4.06737 10
      vertex 19.7815 -2.07912 0
      vertex 19.7815 -2.07912 10
    endloop
  endfacet
  facet normal 0.951057 -0.309017 0
    outer loop
      vertex 19.7815 -2.07912 0
      vertex 19.1355 -4.06737 10
      vertex 19.1355 -4.06737 0
    endloop
  endfacet
  facet normal -0.406737 -0.913545 0
    outer loop
      vertex 5 -8.66025 0
      vertex 6.90983 -9.51056 10
      vertex 5 -8.66025 10
    endloop
  endfacet
  facet normal -0.406737 -0.913545 -0
    outer loop
      vertex 6.90983 -9.51056 10
      vertex 5 -8.66025 0
      vertex 6.90983 -9.51056 0
    endloop
  endfacet
  facet normal -0.743145 -0.669131 0
    outer loop
      vertex 3.30869 -7.43145 0
      vertex 1.90983 -5.87785 10
      vertex 1.90983 -5.87785 0
    endloop
  endfacet
  facet normal -0.743145 -0.669131 0
    outer loop
      vertex 1.90983 -5.87785 10
      vertex 3.30869 -7.43145 0
      vertex 3.30869 -7.43145 10
    endloop
  endfacet
  facet normal 0.406737 -0.913545 0
    outer loop
      vertex 13.0902 -9.51056 0
      vertex 15 -8.66025 10
      vertex 13.0902 -9.51056 10
    endloop
  endfacet
  facet normal 0.406737 -0.913545 0
    outer loop
      vertex 15 -8.66025 10
      vertex 13.0902 -9.51056 0
      vertex 15 -8.66025 0
    endloop
  endfacet
  facet normal 0.587785 -0.809017 0
    outer loop
      vertex 15 -8.66025 0
      vertex 16.6913 -7.43145 10
      vertex 15 -8.66025 10
    endloop
  endfacet
  facet normal 0.587785 -0.809017 0
    outer loop
      vertex 16.6913 -7.43145 10
      vertex 15 -8.66025 0
      vertex 16.6913 -7.43145 0
    endloop
  endfacet
  facet normal 0.866026 -0.5 0
    outer loop
      vertex 18.0902 -5.87785 10
      vertex 19.1355 -4.06737 0
      vertex 19.1355 -4.06737 10
    endloop
  endfacet
  facet normal 0.866026 -0.5 0
    outer loop
      vertex 19.1355 -4.06737 0
      vertex 18.0902 -5.87785 10
      vertex 18.0902 -5.87785 0
    endloop
  endfacet
  facet normal 0.207911 -0.978148 0
    outer loop
      vertex 11.0453 -9.94522 0
      vertex 13.0902 -9.51056 10
      vertex 11.0453 -9.94522 10
    endloop
  endfacet
  facet normal 0.207911 -0.978148 0
    outer loop
      vertex 13.0902 -9.51056 10
      vertex 11.0453 -9.94522 0
      vertex 13.0902 -9.51056 0
    endloop
  endfacet
  facet normal -0.587785 -0.809017 0
    outer loop
      vertex 3.30869 -7.43145 0
      vertex 5 -8.66025 10
      vertex 3.30869 -7.43145 10
    endloop
  endfacet
  facet normal -0.587785 -0.809017 -0
    outer loop
      vertex 5 -8.66025 10
      vertex 3.30869 -7.43145 0
      vertex 5 -8.66025 0
    endloop
  endfacet
  facet normal -0.207911 -0.978148 0
    outer loop
      vertex 6.90983 -9.51056 0
      vertex 8.95471 -9.94522 10
      vertex 6.90983 -9.51056 10
    endloop
  endfacet
  facet normal -0.207911 -0.978148 -0
    outer loop
      vertex 8.95471 -9.94522 10
      vertex 6.90983 -9.51056 0
      vertex 8.95471 -9.94522 0
    endloop
  endfacet
  facet normal 0 -1 0
    outer loop
      vertex 8.95471 -9.94522 0
      vertex 11.0453 -9.94522 10
      vertex 8.95471 -9.94522 10
    endloop
  endfacet
  facet normal 0 -1 -0
    outer loop
      vertex 11.0453 -9.94522 10
      vertex 8.95471 -9.94522 0
      vertex 11.0453 -9.94522 0
    endloop
  endfacet
  facet normal -0.866026 -0.5 0
    outer loop
      vertex 1.90983 -5.87785 0
      vertex 0.864545 -4.06737 10
      vertex 0.864545 -4.06737 0
    endloop
  endfacet
  facet normal -0.866026 -0.5 0
    outer loop
      vertex 0.864545 -4.06737 10
      vertex 1.90983 -5.87785 0
      vertex 1.90983 -5.87785 10
    endloop
  endfacet
  facet normal -0.951057 -0.309017 0
    outer loop
      vertex 0.864545 -4.06737 0
      vertex 0.218524 -2.07912 10
      vertex 0.218524 -2.07912 0
    endloop
  endfacet
  facet normal -0.951057 -0.309017 0
    outer loop
      vertex 0.218524 -2.07912 10
      vertex 0.864545 -4.06737 0
      vertex 0.864545 -4.06737 10
    endloop
  endfacet
  facet normal 0.743145 -0.669131 0
    outer loop
      vertex 16.6913 -7.43145 10
      vertex 18.0902 -5.87785 0
      vertex 18.0902 -5.87785 10
    endloop
  endfacet
  facet normal 0.743145 -0.669131 0
    outer loop
      vertex 18.0902 -5.87785 0
      vertex 16.6913 -7.43145 10
      vertex 16.6913 -7.43145 0
    endloop
  endfacet
  facet normal -0.923879 -0.382684 0
    outer loop
      vertex 1.5 0 0
      vertex 1.06066 1.06066 10
      vertex 1.06066 1.06066 0
    endloop
  endfacet
  facet normal -0.923879 -0.382684 0
    outer loop
      vertex 1.06066 1.06066 10
      vertex 1.5 0 0
      vertex 1.5 0 10
    endloop
  endfacet
  facet normal -0.382684 -0.923879 0
    outer loop
      vertex 0 1.5 0
      vertex 1.06066 1.06066 10
      vertex 0 1.5 10
    endloop
  endfacet
  facet normal -0.382684 -0.923879 -0
    outer loop
      vertex 1.06066 1.06066 10
      vertex 0 1.5 0
      vertex 1.06066 1.06066 0
    endloop
  endfacet
  facet normal -0.382684 0.923879 0
    outer loop
      vertex 1.06066 -1.06066 0
      vertex 0.151079 -1.43742 10
      vertex 1.06066 -1.06066 10
    endloop
  endfacet
  facet normal -0.382684 0.923879 0
    outer loop
      vertex 0.151079 -1.43742 10
      vertex 1.06066 -1.06066 0
      vertex 0.151079 -1.43742 0
    endloop
  endfacet
  facet normal -0.923879 0.382684 0
    outer loop
      vertex 1.06066 -1.06066 0
      vertex 1.5 0 10
      vertex 1.5 0 0
    endloop
  endfacet
  facet normal -0.923879 0.382684 0
    outer loop
      vertex 1.5 0 10
      vertex 1.06066 -1.06066 0
      vertex 1.06066 -1.06066 10
    endloop
  endfacet
  facet normal 0.382684 -0.923879 0
    outer loop
      vertex 18.9393 1.06066 0
      vertex 20 1.5 10
      vertex 18.9393 1.06066 10
    endloop
  endfacet
  facet normal 0.382684 -0.923879 0
    outer loop
      vertex 20 1.5 10
      vertex 18.9393 1.06066 0
      vertex 20 1.5 0
    endloop
  endfacet
  facet normal 0.92388 -0.382683 0
    outer loop
      vertex 18.5 0 10
      vertex 18.9393 1.06066 0
      vertex 18.9393 1.06066 10
    endloop
  endfacet
  facet normal 0.92388 -0.382683 0
    outer loop
      vertex 18.9393 1.06066 0
      vertex 18.5 0 10
      vertex 18.5 0 0
    endloop
  endfacet
  facet normal 0.92388 0.382683 0
    outer loop
      vertex 18.9393 -1.06066 10
      vertex 18.5 0 0
      vertex 18.5 0 10
    endloop
  endfacet
  facet normal 0.92388 0.382683 0
    outer loop
      vertex 18.5 0 0
      vertex 18.9393 -1.06066 10
      vertex 18.9393 -1.06066 0
    endloop
  endfacet
  facet normal 0.382683 0.92388 -0
    outer loop
      vertex 19.8489 -1.43742 0
      vertex 18.9393 -1.06066 10
      vertex 19.8489 -1.43742 10
    endloop
  endfacet
  facet normal 0.382683 0.92388 0
    outer loop
      vertex 18.9393 -1.06066 10
      vertex 19.8489 -1.43742 0
      vertex 18.9393 -1.06066 0
    endloop
  endfacet
  facet normal -0.923879 -0.382684 0
    outer loop
      vertex 1.5 4 0
      vertex 1.06066 5.06066 10
      vertex 1.06066 5.06066 0
    endloop
  endfacet
  facet normal -0.923879 -0.382684 0
    outer loop
      vertex 1.06066 5.06066 10
      vertex 1.5 4 0
      vertex 1.5 4 10
    endloop
  endfacet
  facet normal -0.382684 -0.923879 0
    outer loop
      vertex 0 5.5 0
      vertex 1.06066 5.06066 10
      vertex 0 5.5 10
    endloop
  endfacet
  facet normal -0.382684 -0.923879 -0
    outer loop
      vertex 1.06066 5.06066 10
      vertex 0 5.5 0
      vertex 1.06066 5.06066 0
    endloop
  endfacet
  facet normal -0.923879 0.382684 0
    outer loop
      vertex 1.06066 2.93934 0
      vertex 1.5 4 10
      vertex 1.5 4 0
    endloop
  endfacet
  facet normal -0.923879 0.382684 0
    outer loop
      vertex 1.5 4 10
      vertex 1.06066 2.93934 0
      vertex 1.06066 2.93934 10
    endloop
  endfacet
  facet normal -0.382684 0.923879 0
    outer loop
      vertex 1.06066 2.93934 0
      vertex 0 2.5 10
      vertex 1.06066 2.93934 10
    endloop
  endfacet
  facet normal -0.382684 0.923879 0
    outer loop
      vertex 0 2.5 10
      vertex 1.06066 2.93934 0
      vertex 0 2.5 0
    endloop
  endfacet
  facet normal 0.92388 0.382683 0
    outer loop
      vertex 18.9393 2.93934 10
      vertex 18.5 4 0
      vertex 18.5 4 10
    endloop
  endfacet
  facet normal 0.92388 0.382683 0
    outer loop
      vertex 18.5 4 0
      vertex 18.9393 2.93934 10
      vertex 18.9393 2.93934 0
    endloop
  endfacet
  facet normal 0.382683 0.92388 -0
    outer loop
      vertex 20 2.5 0
      vertex 18.9393 2.93934 10
      vertex 20 2.5 10
    endloop
  endfacet
  facet normal 0.382683 0.92388 0
    outer loop
      vertex 18.9393 2.93934 10
      vertex 20 2.5 0
      vertex 18.9393 2.93934 0
    endloop
  endfacet
  facet normal 0.382684 -0.923879 0
    outer loop
      vertex 18.9393 5.06066 0
      vertex 20 5.5 10
      vertex 18.9393 5.06066 10
    endloop
  endfacet
  facet normal 0.382684 -0.923879 0
    outer loop
      vertex 20 5.5 10
      vertex 18.9393 5.06066 0
      vertex 20 5.5 0
    endloop
  endfacet
  facet normal 0.92388 -0.382683 0
    outer loop
      vertex 18.5 4 10
      vertex 18.9393 5.06066 0
      vertex 18.9393 5.06066 10
    endloop
  endfacet
  facet normal 0.92388 -0.382683 0
    outer loop
      vertex 18.9393 5.06066 0
      vertex 18.5 4 10
      vertex 18.5 4 0
    endloop
  endfacet
  facet normal -0.923879 -0.382684 0
    outer loop
      vertex 1.5 8 0
      vertex 1.06066 9.06066 10
      vertex 1.06066 9.06066 0
    endloop
  endfacet
  facet normal -0.923879 -0.382684 0
    outer loop
      vertex 1.06066 9.06066 10
      vertex 1.5 8 0
      vertex 1.5 8 10
    endloop
  endfacet
  facet normal -0.382684 -0.923879 0
    outer loop
      vertex 0 9.5 0
      vertex 1.06066 9.06066 10
      vertex 0 9.5 10
    endloop
  endfacet
  facet normal -0.382684 -0.923879 -0
    outer loop
      vertex 1.06066 9.06066 10
      vertex 0 9.5 0
      vertex 1.06066 9.06066 0
    endloop
  endfacet
  facet normal -0.923879 0.382684 0
    outer loop
      vertex 1.06066 6.93934 0
      vertex 1.5 8 10
      vertex 1.5 8 0
    endloop
  endfacet
  facet normal -0.923879 0.382684 0
    outer loop
      vertex 1.5 8 10
      vertex 1.06066 6.93934 0
      vertex 1.06066 6.93934 10
    endloop
  endfacet
  facet normal -0.382684 0.923879 0
    outer loop
      vertex 1.06066 6.93934 0
      vertex 0 6.5 10
      vertex 1.06066 6.93934 10
    endloop
  endfacet
  facet normal -0.382684 0.923879 0
    outer loop
      vertex 0 6.5 10
      vertex 1.06066 6.93934 0
      vertex 0 6.5 0
    endloop
  endfacet
  facet normal 0.382683 0.92388 -0
    outer loop
      vertex 20 6.5 0
      vertex 18.9393 6.93934 10
      vertex 20 6.5 10
    endloop
  endfacet
  facet normal 0.382683 0.92388 0
    outer loop
      vertex 18.9393 6.93934 10
      vertex 20 6.5 0
      vertex 18.9393 6.93934 0
    endloop
  endfacet
  facet normal 0.382684 -0.923879 0
    outer loop
      vertex 18.9393 9.06066 0
      vertex 20 9.5 10
      vertex 18.9393 9.06066 10
    endloop
  endfacet
  facet normal 0.382684 -0.923879 0
    outer loop
      vertex 20 9.5 10
      vertex 18.9393 9.06066 0
      vertex 20 9.5 0
    endloop
  endfacet
  facet normal 0.92388 -0.382683 0
    outer loop
      vertex 18.5 8 10
      vertex 18.9393 9.06066 0
      vertex 18.9393 9.06066 10
    endloop
  endfacet
  facet normal 0.92388 -0.382683 0
    outer loop
      vertex 18.9393 9.06066 0
      vertex 18.5 8 10
      vertex 18.5 8 0
    endloop
  endfacet
  facet normal 0.92388 0.382683 0
    outer loop
      vertex 18.9393 6.93934 10
      vertex 18.5 8 0
      vertex 18.5 8 10
    endloop
  endfacet
  facet normal 0.92388 0.382683 0
    outer loop
      vertex 18.5 8 0
      vertex 18.9393 6.93934 10
      vertex 18.9393 6.93934 0
    endloop
  endfacet
  facet normal -0.923879 -0.382684 0
    outer loop
      vertex 1.5 12 0
      vertex 1.06066 13.0607 10
      vertex 1.06066 13.0607 0
    endloop
  endfacet
  facet normal -0.923879 -0.382684 0
    outer loop
      vertex 1.06066 13.0607 10
      vertex 1.5 12 0
      vertex 1.5 12 10
    endloop
  endfacet
  facet normal -0.382684 -0.923879 0
    outer loop
      vertex 0 13.5 0
      vertex 1.06066 13.0607 10
      vertex 0 13.5 10
    endloop
  endfacet
  facet normal -0.382684 -0.923879 -0
    outer loop
      vertex 1.06066 13.0607 10
      vertex 0 13.5 0
      vertex 1.06066 13.0607 0
    endloop
  endfacet
  facet normal -0.923879 0.382684 0
    outer loop
      vertex 1.06066 10.9393 0
      vertex 1.5 12 10
      vertex 1.5 12 0
    endloop
  endfacet
  facet normal -0.923879 0.382684 0
    outer loop
      vertex 1.5 12 10
      vertex 1.06066 10.9393 0
      vertex 1.06066 10.9393 10
    endloop
  endfacet
  facet normal -0.382684 0.923879 0
    outer loop
      vertex 1.06066 10.9393 0
      vertex 0 10.5 10
      vertex 1.06066 10.9393 10
    endloop
  endfacet
  facet normal -0.382684 0.923879 0
    outer loop
      vertex 0 10.5 10
      vertex 1.06066 10.9393 0
      vertex 0 10.5 0
    endloop
  endfacet
  facet normal 0.382684 -0.923879 0
    outer loop
      vertex 18.9393 13.0607 0
      vertex 20 13.5 10
      vertex 18.9393 13.0607 10
    endloop
  endfacet
  facet normal 0.382684 -0.923879 0
    outer loop
      vertex 20 13.5 10
      vertex 18.9393 13.0607 0
      vertex 20 13.5 0
    endloop
  endfacet
  facet normal 0.92388 -0.382683 0
    outer loop
      vertex 18.5 12 10
      vertex 18.9393 13.0607 0
      vertex 18.9393 13.0607 10
    endloop
  endfacet
  facet normal 0.92388 -0.382683 0
    outer loop
      vertex 18.9393 13.0607 0
      vertex 18.5 12 10
      vertex 18.5 12 0
    endloop
  endfacet
  facet normal 0.92388 0.382683 0
    outer loop
      vertex 18.9393 10.9393 10
      vertex 18.5 12 0
      vertex 18.5 12 10
    endloop
  endfacet
  facet normal 0.92388 0.382683 0
    outer loop
      vertex 18.5 12 0
      vertex 18.9393 10.9393 10
      vertex 18.9393 10.9393 0
    endloop
  endfacet
  facet normal 0.382683 0.92388 -0
    outer loop
      vertex 20 10.5 0
      vertex 18.9393 10.9393 10
      vertex 20 10.5 10
    endloop
  endfacet
  facet normal 0.382683 0.92388 0
    outer loop
      vertex 18.9393 10.9393 10
      vertex 20 10.5 0
      vertex 18.9393 10.9393 0
    endloop
  endfacet
  facet normal -0.923879 -0.382684 0
    outer loop
      vertex 1.5 16 0
      vertex 1.06066 17.0607 10
      vertex 1.06066 17.0607 0
    endloop
  endfacet
  facet normal -0.923879 -0.382684 0
    outer loop
      vertex 1.06066 17.0607 10
      vertex 1.5 16 0
      vertex 1.5 16 10
    endloop
  endfacet
  facet normal -0.382684 -0.923879 0
    outer loop
      vertex 0 17.5 0
      vertex 1.06066 17.0607 10
      vertex 0 17.5 10
    endloop
  endfacet
  facet normal -0.382684 -0.923879 -0
    outer loop
      vertex 1.06066 17.0607 10
      vertex 0 17.5 0
      vertex 1.06066 17.0607 0
    endloop
  endfacet
  facet normal -0.923879 0.382684 0
    outer loop
      vertex 1.06066 14.9393 0
      vertex 1.5 16 10
      vertex 1.5 16 0
    endloop
  endfacet
  facet normal -0.923879 0.382684 0
    outer loop
      vertex 1.5 16 10
      vertex 1.06066 14.9393 0
      vertex 1.06066 14.9393 10
    endloop
  endfacet
  facet normal -0.382684 0.923879 0
    outer loop
      vertex 1.06066 14.9393 0
      vertex 0 14.5 10
      vertex 1.06066 14.9393 10
    endloop
  endfacet
  facet normal -0.382684 0.923879 0
    outer loop
      vertex 0 14.5 10
      vertex 1.06066 14.9393 0
      vertex 0 14.5 0
    endloop
  endfacet
  facet normal 0.382683 0.92388 -0
    outer loop
      vertex 20 14.5 0
      vertex 18.9393 14.9393 10
      vertex 20 14.5 10
    endloop
  endfacet
  facet normal 0.382683 0.92388 0
    outer loop
      vertex 18.9393 14.9393 10
      vertex 20 14.5 0
      vertex 18.9393 14.9393 0
    endloop
  endfacet
  facet normal 0.382684 -0.923879 0
    outer loop
      vertex 18.9393 17.0607 0
      vertex 20 17.5 10
      vertex 18.9393 17.0607 10
    endloop
  endfacet
  facet normal 0.382684 -0.923879 0
    outer loop
      vertex 20 17.5 10
      vertex 18.9393 17.0607 0
      vertex 20 17.5 0
    endloop
  endfacet
  facet normal 0.92388 -0.382683 0
    outer loop
      vertex 18.5 16 10
      vertex 18.9393 17.0607 0
      vertex 18.9393 17.0607 10
    endloop
  endfacet
  facet normal 0.92388 -0.382683 0
    outer loop
      vertex 18.9393 17.0607 0
      vertex 18.5 16 10
      vertex 18.5 16 0
    endloop
  endfacet
  facet normal 0.92388 0.382683 0
    outer loop
      vertex 18.9393 14.9393 10
      vertex 18.5 16 0
      vertex 18.5 16 10
    endloop
  endfacet
  facet normal 0.92388 0.382683 0
    outer loop
      vertex 18.5 16 0
      vertex 18.9393 14.9393 10
      vertex 18.9393 14.9393 0
    endloop
  endfacet
  facet normal -0.844328 -0.535827 0
    outer loop
      vertex 13.9434 14.1679 0
      vertex 13.6406 14.645 10
      vertex 13.6406 14.645 0
    endloop
  endfacet
  facet normal -0.844328 -0.535827 0
    outer loop
      vertex 13.6406 14.645 10
      vertex 13.9434 14.1679 0
      vertex 13.9434 14.1679 10
    endloop
  endfacet
  facet normal -0.998027 -0.0627914 0
    outer loop
      vertex 14.5 12 0
      vertex 14.4645 12.564 10
      vertex 14.4645 12.564 0
    endloop
  endfacet
  facet normal -0.998027 -0.0627914 0
    outer loop
      vertex 14.4645 12.564 10
      vertex 14.5 12 0
      vertex 14.5 12 10
    endloop
  endfacet
  facet normal 0.844328 -0.535827 0
    outer loop
      vertex 6.05662 14.1679 10
      vertex 6.35942 14.645 0
      vertex 6.35942 14.645 10
    endloop
  endfacet
  facet normal 0.844328 -0.535827 0
    outer loop
      vertex 6.35942 14.645 0
      vertex 6.05662 14.1679 10
      vertex 6.05662 14.1679 0
    endloop
  endfacet
  facet normal -0.982287 0.187382 0
    outer loop
      vertex 14.3586 -1.1191 0
      vertex 14.4645 -0.563999 10
      vertex 14.4645 -0.563999 0
    endloop
  endfacet
  facet normal -0.982287 0.187382 0
    outer loop
      vertex 14.4645 -0.563999 10
      vertex 14.3586 -1.1191 0
      vertex 14.3586 -1.1191 10
    endloop
  endfacet
  facet normal -1 0 0
    outer loop
      vertex 14.5 0 0
      vertex 14.5 12 10
      vertex 14.5 12 0
    endloop
  endfacet
  facet normal -1 -0 0
    outer loop
      vertex 14.5 12 10
      vertex 14.5 0 0
      vertex 14.5 0 10
    endloop
  endfacet
  facet normal -0.125333 0.992115 0
    outer loop
      vertex 10.8432 -4.42029 0
      vertex 10.2826 -4.49112 10
      vertex 10.8432 -4.42029 10
    endloop
  endfacet
  facet normal -0.125333 0.992115 0
    outer loop
      vertex 10.2826 -4.49112 10
      vertex 10.8432 -4.42029 0
      vertex 10.2826 -4.49112 0
    endloop
  endfacet
  facet normal -0.844328 0.535827 0
    outer loop
      vertex 13.6406 -2.64503 0
      vertex 13.9434 -2.16789 10
      vertex 13.9434 -2.16789 0
    endloop
  endfacet
  facet normal -0.844328 0.535827 0
    outer loop
      vertex 13.9434 -2.16789 10
      vertex 13.6406 -2.64503 0
      vertex 13.6406 -2.64503 10
    endloop
  endfacet
  facet normal 1 -0 0
    outer loop
      vertex 5.5 0 10
      vertex 5.5 12 0
      vertex 5.5 12 10
    endloop
  endfacet
  facet normal 1 0 0
    outer loop
      vertex 5.5 12 0
      vertex 5.5 0 10
      vertex 5.5 0 0
    endloop
  endfacet
  facet normal 0.998027 -0.0627897 0
    outer loop
      vertex 5.5 12 10
      vertex 5.53548 12.564 0
      vertex 5.53548 12.564 10
    endloop
  endfacet
  facet normal 0.998027 -0.0627897 0
    outer loop
      vertex 5.53548 12.564 0
      vertex 5.5 12 10
      vertex 5.5 12 0
    endloop
  endfacet
  facet normal -0.248689 0.968583 0
    outer loop
      vertex 11.3906 -4.27975 0
      vertex 10.8432 -4.42029 10
      vertex 11.3906 -4.27975 10
    endloop
  endfacet
  facet normal -0.248689 0.968583 0
    outer loop
      vertex 10.8432 -4.42029 10
      vertex 11.3906 -4.27975 0
      vertex 10.8432 -4.42029 0
    endloop
  endfacet
  facet normal 0.125333 0.992115 -0
    outer loop
      vertex 9.71744 -4.49112 0
      vertex 9.15678 -4.42029 10
      vertex 9.71744 -4.49112 10
    endloop
  endfacet
  facet normal 0.125333 0.992115 0
    outer loop
      vertex 9.15678 -4.42029 10
      vertex 9.71744 -4.49112 0
      vertex 9.15678 -4.42029 0
    endloop
  endfacet
  facet normal -0.587785 0.809017 0
    outer loop
      vertex 12.8684 -3.46731 0
      vertex 12.4112 -3.79947 10
      vertex 12.8684 -3.46731 10
    endloop
  endfacet
  facet normal -0.587785 0.809017 0
    outer loop
      vertex 12.4112 -3.79947 10
      vertex 12.8684 -3.46731 0
      vertex 12.4112 -3.79947 0
    endloop
  endfacet
  facet normal 0.770513 0.637424 0
    outer loop
      vertex 6.71964 -3.08046 10
      vertex 6.35942 -2.64503 0
      vertex 6.35942 -2.64503 10
    endloop
  endfacet
  facet normal 0.770513 0.637424 0
    outer loop
      vertex 6.35942 -2.64503 0
      vertex 6.71964 -3.08046 10
      vertex 6.71964 -3.08046 0
    endloop
  endfacet
  facet normal 0.844328 0.535827 0
    outer loop
      vertex 6.35942 -2.64503 10
      vertex 6.05662 -2.16789 0
      vertex 6.05662 -2.16789 10
    endloop
  endfacet
  facet normal 0.844328 0.535827 0
    outer loop
      vertex 6.05662 -2.16789 0
      vertex 6.35942 -2.64503 10
      vertex 6.35942 -2.64503 0
    endloop
  endfacet
  facet normal 0.998027 0.0627897 0
    outer loop
      vertex 5.53548 -0.563999 10
      vertex 5.5 0 0
      vertex 5.5 0 10
    endloop
  endfacet
  facet normal 0.998027 0.0627897 0
    outer loop
      vertex 5.5 0 0
      vertex 5.53548 -0.563999 10
      vertex 5.53548 -0.563999 0
    endloop
  endfacet
  facet normal 0.904827 -0.425779 0
    outer loop
      vertex 5.81601 13.6566 10
      vertex 6.05662 14.1679 0
      vertex 6.05662 14.1679 10
    endloop
  endfacet
  facet normal 0.904827 -0.425779 0
    outer loop
      vertex 6.05662 14.1679 0
      vertex 5.81601 13.6566 10
      vertex 5.81601 13.6566 0
    endloop
  endfacet
  facet normal 0.982287 -0.187382 0
    outer loop
      vertex 5.53548 12.564 10
      vertex 5.64138 13.1191 0
      vertex 5.64138 13.1191 10
    endloop
  endfacet
  facet normal 0.982287 -0.187382 0
    outer loop
      vertex 5.64138 13.1191 0
      vertex 5.53548 12.564 10
      vertex 5.53548 12.564 0
    endloop
  endfacet
  facet normal 0.481752 -0.876307 0
    outer loop
      vertex 7.58878 15.7995 0
      vertex 8.08399 16.0717 10
      vertex 7.58878 15.7995 10
    endloop
  endfacet
  facet normal 0.481752 -0.876307 0
    outer loop
      vertex 8.08399 16.0717 10
      vertex 7.58878 15.7995 0
      vertex 8.08399 16.0717 0
    endloop
  endfacet
  facet normal 0.368128 -0.929775 0
    outer loop
      vertex 8.08399 16.0717 0
      vertex 8.60942 16.2798 10
      vertex 8.08399 16.0717 10
    endloop
  endfacet
  facet normal 0.368128 -0.929775 0
    outer loop
      vertex 8.60942 16.2798 10
      vertex 8.08399 16.0717 0
      vertex 8.60942 16.2798 0
    endloop
  endfacet
  facet normal -0.904827 -0.425779 0
    outer loop
      vertex 14.184 13.6566 0
      vertex 13.9434 14.1679 10
      vertex 13.9434 14.1679 0
    endloop
  endfacet
  facet normal -0.904827 -0.425779 0
    outer loop
      vertex 13.9434 14.1679 10
      vertex 14.184 13.6566 0
      vertex 14.184 13.6566 10
    endloop
  endfacet
  facet normal -0.998027 0.0627914 0
    outer loop
      vertex 14.4645 -0.563999 0
      vertex 14.5 0 10
      vertex 14.5 0 0
    endloop
  endfacet
  facet normal -0.998027 0.0627914 0
    outer loop
      vertex 14.5 0 10
      vertex 14.4645 -0.563999 0
      vertex 14.4645 -0.563999 10
    endloop
  endfacet
  facet normal -0.951056 0.309017 0
    outer loop
      vertex 14.184 -1.65656 0
      vertex 14.3586 -1.1191 10
      vertex 14.3586 -1.1191 0
    endloop
  endfacet
  facet normal -0.951056 0.309017 0
    outer loop
      vertex 14.3586 -1.1191 10
      vertex 14.184 -1.65656 0
      vertex 14.184 -1.65656 10
    endloop
  endfacet
  facet normal -0.368125 0.929776 0
    outer loop
      vertex 11.916 -4.07172 0
      vertex 11.3906 -4.27975 10
      vertex 11.916 -4.07172 10
    endloop
  endfacet
  facet normal -0.368125 0.929776 0
    outer loop
      vertex 11.3906 -4.27975 10
      vertex 11.916 -4.07172 0
      vertex 11.3906 -4.27975 0
    endloop
  endfacet
  facet normal 0.248689 0.968583 -0
    outer loop
      vertex 9.15678 -4.42029 0
      vertex 8.60942 -4.27975 10
      vertex 9.15678 -4.42029 10
    endloop
  endfacet
  facet normal 0.248689 0.968583 0
    outer loop
      vertex 8.60942 -4.27975 10
      vertex 9.15678 -4.42029 0
      vertex 8.60942 -4.27975 0
    endloop
  endfacet
  facet normal 0.684547 0.728969 -0
    outer loop
      vertex 7.13159 -3.46731 0
      vertex 6.71964 -3.08046 10
      vertex 7.13159 -3.46731 10
    endloop
  endfacet
  facet normal 0.684547 0.728969 0
    outer loop
      vertex 6.71964 -3.08046 10
      vertex 7.13159 -3.46731 0
      vertex 6.71964 -3.08046 0
    endloop
  endfacet
  facet normal 0.951056 0.309017 0
    outer loop
      vertex 5.81601 -1.65656 10
      vertex 5.64138 -1.1191 0
      vertex 5.64138 -1.1191 10
    endloop
  endfacet
  facet normal 0.951056 0.309017 0
    outer loop
      vertex 5.64138 -1.1191 0
      vertex 5.81601 -1.65656 10
      vertex 5.81601 -1.65656 0
    endloop
  endfacet
  facet normal 0.904827 0.425779 0
    outer loop
      vertex 6.05662 -2.16789 10
      vertex 5.81601 -1.65656 0
      vertex 5.81601 -1.65656 10
    endloop
  endfacet
  facet normal 0.904827 0.425779 0
    outer loop
      vertex 5.81601 -1.65656 0
      vertex 6.05662 -2.16789 10
      vertex 6.05662 -2.16789 0
    endloop
  endfacet
  facet normal 0.982287 0.187382 0
    outer loop
      vertex 5.64138 -1.1191 10
      vertex 5.53548 -0.563999 0
      vertex 5.53548 -0.563999 10
    endloop
  endfacet
  facet normal 0.982287 0.187382 0
    outer loop
      vertex 5.53548 -0.563999 0
      vertex 5.64138 -1.1191 10
      vertex 5.64138 -1.1191 0
    endloop
  endfacet
  facet normal 0.951056 -0.309017 0
    outer loop
      vertex 5.64138 13.1191 10
      vertex 5.81601 13.6566 0
      vertex 5.81601 13.6566 10
    endloop
  endfacet
  facet normal 0.951056 -0.309017 0
    outer loop
      vertex 5.81601 13.6566 0
      vertex 5.64138 13.1191 10
      vertex 5.64138 13.1191 0
    endloop
  endfacet
  facet normal 0.770513 -0.637424 0
    outer loop
      vertex 6.35942 14.645 10
      vertex 6.71964 15.0805 0
      vertex 6.71964 15.0805 10
    endloop
  endfacet
  facet normal 0.770513 -0.637424 0
    outer loop
      vertex 6.71964 15.0805 0
      vertex 6.35942 14.645 10
      vertex 6.35942 14.645 0
    endloop
  endfacet
  facet normal 0 -1 0
    outer loop
      vertex 9.71744 16.4911 0
      vertex 10.2826 16.4911 10
      vertex 9.71744 16.4911 10
    endloop
  endfacet
  facet normal 0 -1 -0
    outer loop
      vertex 10.2826 16.4911 10
      vertex 9.71744 16.4911 0
      vertex 10.2826 16.4911 0
    endloop
  endfacet
  facet normal 0.125333 -0.992115 0
    outer loop
      vertex 9.15678 16.4203 0
      vertex 9.71744 16.4911 10
      vertex 9.15678 16.4203 10
    endloop
  endfacet
  facet normal 0.125333 -0.992115 0
    outer loop
      vertex 9.71744 16.4911 10
      vertex 9.15678 16.4203 0
      vertex 9.71744 16.4911 0
    endloop
  endfacet
  facet normal 0.248688 -0.968584 0
    outer loop
      vertex 8.60942 16.2798 0
      vertex 9.15678 16.4203 10
      vertex 8.60942 16.2798 10
    endloop
  endfacet
  facet normal 0.248688 -0.968584 0
    outer loop
      vertex 9.15678 16.4203 10
      vertex 8.60942 16.2798 0
      vertex 9.15678 16.4203 0
    endloop
  endfacet
  facet normal -0.368128 -0.929775 0
    outer loop
      vertex 11.3906 16.2798 0
      vertex 11.916 16.0717 10
      vertex 11.3906 16.2798 10
    endloop
  endfacet
  facet normal -0.368128 -0.929775 -0
    outer loop
      vertex 11.916 16.0717 10
      vertex 11.3906 16.2798 0
      vertex 11.916 16.0717 0
    endloop
  endfacet
  facet normal -0.248688 -0.968584 0
    outer loop
      vertex 10.8432 16.4203 0
      vertex 11.3906 16.2798 10
      vertex 10.8432 16.4203 10
    endloop
  endfacet
  facet normal -0.248688 -0.968584 -0
    outer loop
      vertex 11.3906 16.2798 10
      vertex 10.8432 16.4203 0
      vertex 11.3906 16.2798 0
    endloop
  endfacet
  facet normal -0.770513 -0.637424 0
    outer loop
      vertex 13.6406 14.645 0
      vertex 13.2804 15.0805 10
      vertex 13.2804 15.0805 0
    endloop
  endfacet
  facet normal -0.770513 -0.637424 0
    outer loop
      vertex 13.2804 15.0805 10
      vertex 13.6406 14.645 0
      vertex 13.6406 14.645 10
    endloop
  endfacet
  facet normal -0.982287 -0.187382 0
    outer loop
      vertex 14.4645 12.564 0
      vertex 14.3586 13.1191 10
      vertex 14.3586 13.1191 0
    endloop
  endfacet
  facet normal -0.982287 -0.187382 0
    outer loop
      vertex 14.3586 13.1191 10
      vertex 14.4645 12.564 0
      vertex 14.4645 12.564 10
    endloop
  endfacet
  facet normal -0.904827 0.425779 0
    outer loop
      vertex 13.9434 -2.16789 0
      vertex 14.184 -1.65656 10
      vertex 14.184 -1.65656 0
    endloop
  endfacet
  facet normal -0.904827 0.425779 0
    outer loop
      vertex 14.184 -1.65656 10
      vertex 13.9434 -2.16789 0
      vertex 13.9434 -2.16789 10
    endloop
  endfacet
  facet normal -0.481754 0.876307 0
    outer loop
      vertex 12.4112 -3.79947 0
      vertex 11.916 -4.07172 10
      vertex 12.4112 -3.79947 10
    endloop
  endfacet
  facet normal -0.481754 0.876307 0
    outer loop
      vertex 11.916 -4.07172 10
      vertex 12.4112 -3.79947 0
      vertex 11.916 -4.07172 0
    endloop
  endfacet
  facet normal 0 1 -0
    outer loop
      vertex 10.2826 -4.49112 0
      vertex 9.71744 -4.49112 10
      vertex 10.2826 -4.49112 10
    endloop
  endfacet
  facet normal 0 1 0
    outer loop
      vertex 9.71744 -4.49112 10
      vertex 10.2826 -4.49112 0
      vertex 9.71744 -4.49112 0
    endloop
  endfacet
  facet normal -0.770513 0.637424 0
    outer loop
      vertex 13.2804 -3.08046 0
      vertex 13.6406 -2.64503 10
      vertex 13.6406 -2.64503 0
    endloop
  endfacet
  facet normal -0.770513 0.637424 0
    outer loop
      vertex 13.6406 -2.64503 10
      vertex 13.2804 -3.08046 0
      vertex 13.2804 -3.08046 10
    endloop
  endfacet
  facet normal 0.587785 0.809017 -0
    outer loop
      vertex 7.58878 -3.79947 0
      vertex 7.13159 -3.46731 10
      vertex 7.58878 -3.79947 10
    endloop
  endfacet
  facet normal 0.587785 0.809017 0
    outer loop
      vertex 7.13159 -3.46731 10
      vertex 7.58878 -3.79947 0
      vertex 7.13159 -3.46731 0
    endloop
  endfacet
  facet normal 0.587785 -0.809017 0
    outer loop
      vertex 7.13159 15.4673 0
      vertex 7.58878 15.7995 10
      vertex 7.13159 15.4673 10
    endloop
  endfacet
  facet normal 0.587785 -0.809017 0
    outer loop
      vertex 7.58878 15.7995 10
      vertex 7.13159 15.4673 0
      vertex 7.58878 15.7995 0
    endloop
  endfacet
  facet normal 0.684547 -0.728969 0
    outer loop
      vertex 6.71964 15.0805 0
      vertex 7.13159 15.4673 10
      vertex 6.71964 15.0805 10
    endloop
  endfacet
  facet normal 0.684547 -0.728969 0
    outer loop
      vertex 7.13159 15.4673 10
      vertex 6.71964 15.0805 0
      vertex 7.13159 15.4673 0
    endloop
  endfacet
  facet normal -0.125333 -0.992115 0
    outer loop
      vertex 10.2826 16.4911 0
      vertex 10.8432 16.4203 10
      vertex 10.2826 16.4911 10
    endloop
  endfacet
  facet normal -0.125333 -0.992115 -0
    outer loop
      vertex 10.8432 16.4203 10
      vertex 10.2826 16.4911 0
      vertex 10.8432 16.4203 0
    endloop
  endfacet
  facet normal -0.951056 -0.309017 0
    outer loop
      vertex 14.3586 13.1191 0
      vertex 14.184 13.6566 10
      vertex 14.184 13.6566 0
    endloop
  endfacet
  facet normal -0.951056 -0.309017 0
    outer loop
      vertex 14.184 13.6566 10
      vertex 14.3586 13.1191 0
      vertex 14.3586 13.1191 10
    endloop
  endfacet
  facet normal 0.368125 0.929776 -0
    outer loop
      vertex 8.60942 -4.27975 0
      vertex 8.08399 -4.07172 10
      vertex 8.60942 -4.27975 10
    endloop
  endfacet
  facet normal 0.368125 0.929776 0
    outer loop
      vertex 8.08399 -4.07172 10
      vertex 8.60942 -4.27975 0
      vertex 8.08399 -4.07172 0
    endloop
  endfacet
  facet normal 0.481754 0.876307 -0
    outer loop
      vertex 8.08399 -4.07172 0
      vertex 7.58878 -3.79947 10
      vertex 8.08399 -4.07172 10
    endloop
  endfacet
  facet normal 0.481754 0.876307 0
    outer loop
      vertex 7.58878 -3.79947 10
      vertex 8.08399 -4.07172 0
      vertex 7.58878 -3.79947 0
    endloop
  endfacet
  facet normal -0.684547 0.728969 0
    outer loop
      vertex 13.2804 -3.08046 0
      vertex 12.8684 -3.46731 10
      vertex 13.2804 -3.08046 10
    endloop
  endfacet
  facet normal -0.684547 0.728969 0
    outer loop
      vertex 12.8684 -3.46731 10
      vertex 13.2804 -3.08046 0
      vertex 12.8684 -3.46731 0
    endloop
  endfacet
  facet normal -0.481752 -0.876307 0
    outer loop
      vertex 11.916 16.0717 0
      vertex 12.4112 15.7995 10
      vertex 11.916 16.0717 10
    endloop
  endfacet
  facet normal -0.481752 -0.876307 -0
    outer loop
      vertex 12.4112 15.7995 10
      vertex 11.916 16.0717 0
      vertex 12.4112 15.7995 0
    endloop
  endfacet
  facet normal -0.587785 -0.809017 0
    outer loop
      vertex 12.4112 15.7995 0
      vertex 12.8684 15.4673 10
      vertex 12.4112 15.7995 10
    endloop
  endfacet
  facet normal -0.587785 -0.809017 -0
    outer loop
      vertex 12.8684 15.4673 10
      vertex 12.4112 15.7995 0
      vertex 12.8684 15.4673 0
    endloop
  endfacet
  facet normal -0.684547 -0.728969 0
    outer loop
      vertex 12.8684 15.4673 0
      vertex 13.2804 15.0805 10
      vertex 12.8684 15.4673 10
    endloop
  endfacet
  facet normal -0.684547 -0.728969 -0
    outer loop
      vertex 13.2804 15.0805 10
      vertex 12.8684 15.4673 0
      vertex 13.2804 15.0805 0
    endloop
  endfacet
  facet normal 0 1 -0
    outer loop
      vertex 20 25 0
      vertex 0 25 5.01
      vertex 20 25 5.01
    endloop
  endfacet
  facet normal 0 1 0
    outer loop
      vertex 0 25 5.01
      vertex 20 25 0
      vertex 0 25 0
    endloop
  endfacet
  facet normal -0 0 1
    outer loop
      vertex 0 25 5.01
      vertex 20 20 5.01
      vertex 20 25 5.01
    endloop
  endfacet
  facet normal 0 0 1
    outer loop
      vertex 20 20 5.01
      vertex 0 25 5.01
      vertex 0 20 5.01
    endloop
  endfacet
endsolid OpenSCAD_Model
