solid OpenSCAD_Model
  facet normal 0.923879 0.382684 0
    outer loop
      vertex 1.3 0 20
      vertex 0.919238 0.919238 17
      vertex 0.919238 0.919238 20
    endloop
  endfacet
  facet normal 0.923879 0.382684 0
    outer loop
      vertex 0.919238 0.919238 17
      vertex 1.3 0 20
      vertex 1.3 0 17
    endloop
  endfacet
  facet normal -0.923879 0.382684 0
    outer loop
      vertex -1.3 0 17
      vertex -0.919238 0.919238 20
      vertex -0.919238 0.919238 17
    endloop
  endfacet
  facet normal -0.923879 0.382684 0
    outer loop
      vertex -0.919238 0.919238 20
      vertex -1.3 0 17
      vertex -1.3 0 20
    endloop
  endfacet
  facet normal 0.382684 0.923879 -0
    outer loop
      vertex 0.919238 0.919238 17
      vertex 0 1.3 20
      vertex 0.919238 0.919238 20
    endloop
  endfacet
  facet normal 0.382684 0.923879 0
    outer loop
      vertex 0 1.3 20
      vertex 0.919238 0.919238 17
      vertex 0 1.3 17
    endloop
  endfacet
  facet normal 0 0 -1
    outer loop
      vertex 0.919238 -0.919238 17
      vertex 0.919238 0.919238 17
      vertex 1.3 0 17
    endloop
  endfacet
  facet normal 0 0 -1
    outer loop
      vertex 0 -1.3 17
      vertex 0.919238 0.919238 17
      vertex 0.919238 -0.919238 17
    endloop
  endfacet
  facet normal 0 0 -1
    outer loop
      vertex 0 -1.3 17
      vertex 0 1.3 17
      vertex 0.919238 0.919238 17
    endloop
  endfacet
  facet normal 0 0 -1
    outer loop
      vertex -0.919238 -0.919238 17
      vertex 0 1.3 17
      vertex 0 -1.3 17
    endloop
  endfacet
  facet normal 0 0 -1
    outer loop
      vertex -0.919238 -0.919238 17
      vertex -0.919238 0.919238 17
      vertex 0 1.3 17
    endloop
  endfacet
  facet normal 0 -0 -1
    outer loop
      vertex -0.919238 0.919238 17
      vertex -0.919238 -0.919238 17
      vertex -1.3 0 17
    endloop
  endfacet
  facet normal -0.382684 0.923879 0
    outer loop
      vertex 0 1.3 17
      vertex -0.919238 0.919238 20
      vertex 0 1.3 20
    endloop
  endfacet
  facet normal -0.382684 0.923879 0
    outer loop
      vertex -0.919238 0.919238 20
      vertex 0 1.3 17
      vertex -0.919238 0.919238 17
    endloop
  endfacet
  facet normal 0.382684 -0.923879 0
    outer loop
      vertex 0 -1.3 17
      vertex 0.919238 -0.919238 20
      vertex 0 -1.3 20
    endloop
  endfacet
  facet normal 0.382684 -0.923879 0
    outer loop
      vertex 0.919238 -0.919238 20
      vertex 0 -1.3 17
      vertex 0.919238 -0.919238 17
    endloop
  endfacet
  facet normal -0.923879 -0.382684 0
    outer loop
      vertex -0.919238 -0.919238 17
      vertex -1.3 0 20
      vertex -1.3 0 17
    endloop
  endfacet
  facet normal -0.923879 -0.382684 0
    outer loop
      vertex -1.3 0 20
      vertex -0.919238 -0.919238 17
      vertex -0.919238 -0.919238 20
    endloop
  endfacet
  facet normal 0.923879 -0.382684 0
    outer loop
      vertex 0.919238 -0.919238 20
      vertex 1.3 0 17
      vertex 1.3 0 20
    endloop
  endfacet
  facet normal 0.923879 -0.382684 0
    outer loop
      vertex 1.3 0 17
      vertex 0.919238 -0.919238 20
      vertex 0.919238 -0.919238 17
    endloop
  endfacet
  facet normal -0.382684 -0.923879 0
    outer loop
      vertex -0.919238 -0.919238 17
      vertex 0 -1.3 20
      vertex -0.919238 -0.919238 20
    endloop
  endfacet
  facet normal -0.382684 -0.923879 -0
    outer loop
      vertex 0 -1.3 20
      vertex -0.919238 -0.919238 17
      vertex 0 -1.3 17
    endloop
  endfacet
  facet normal 0 0 -1
    outer loop
      vertex 21.0531 -2.3494 20
      vertex 20.9192 -0.919238 20
      vertex 21.3 0 20
    endloop
  endfacet
  facet normal 0 0 -1
    outer loop
      vertex 20 -1.3 20
      vertex 21.0531 -2.3494 20
      vertex 20.3231 -4.59612 20
    endloop
  endfacet
  facet normal 0 0 -1
    outer loop
      vertex 21.0531 -2.3494 20
      vertex 20 -1.3 20
      vertex 20.9192 -0.919238 20
    endloop
  endfacet
  facet normal 0 0 -1
    outer loop
      vertex 13.9434 -2.16789 20
      vertex 20.3231 -4.59612 20
      vertex 19.1419 -6.64197 20
    endloop
  endfacet
  facet normal 0 0 -1
    outer loop
      vertex 20.3231 -4.59612 20
      vertex 19.0808 -0.919238 20
      vertex 20 -1.3 20
    endloop
  endfacet
  facet normal 0 0 -1
    outer loop
      vertex 20.3231 -4.59612 20
      vertex 13.9434 -2.16789 20
      vertex 19.0808 -0.919238 20
    endloop
  endfacet
  facet normal -0 0 -1
    outer loop
      vertex 19.0808 3.08076 20
      vertex 14.5 0 20
      vertex 18.7 4 20
    endloop
  endfacet
  facet normal -0 0 -1
    outer loop
      vertex 18.7 4 20
      vertex 14.5 0 20
      vertex 18.7 8 20
    endloop
  endfacet
  facet normal 0 0 -1
    outer loop
      vertex 18.7 8 20
      vertex 14.5 12 20
      vertex 18.7 12 20
    endloop
  endfacet
  facet normal 0 0 -1
    outer loop
      vertex 19.0808 -0.919238 20
      vertex 13.9434 -2.16789 20
      vertex 14.184 -1.65656 20
    endloop
  endfacet
  facet normal 0 0 -1
    outer loop
      vertex 13.9434 -2.16789 20
      vertex 19.1419 -6.64197 20
      vertex 17.5612 -8.39754 20
    endloop
  endfacet
  facet normal 0 0 -1
    outer loop
      vertex 20.9192 0.919238 20
      vertex 21.3 4 20
      vertex 21.3 0 20
    endloop
  endfacet
  facet normal 0 0 -1
    outer loop
      vertex 20.9192 0.919238 20
      vertex 20.9192 3.08076 20
      vertex 21.3 4 20
    endloop
  endfacet
  facet normal 0 0 -1
    outer loop
      vertex 20 1.3 20
      vertex 20.9192 3.08076 20
      vertex 20.9192 0.919238 20
    endloop
  endfacet
  facet normal 0 0 -1
    outer loop
      vertex 20 1.3 20
      vertex 20 2.7 20
      vertex 20.9192 3.08076 20
    endloop
  endfacet
  facet normal 0 0 -1
    outer loop
      vertex 19.0808 0.919238 20
      vertex 20 2.7 20
      vertex 20 1.3 20
    endloop
  endfacet
  facet normal 0 0 -1
    outer loop
      vertex 19.0808 0.919238 20
      vertex 19.0808 3.08076 20
      vertex 20 2.7 20
    endloop
  endfacet
  facet normal 0 0 -1
    outer loop
      vertex 14.5 0 20
      vertex 19.0808 0.919238 20
      vertex 18.7 0 20
    endloop
  endfacet
  facet normal -0 0 -1
    outer loop
      vertex 19.0808 0.919238 20
      vertex 14.5 0 20
      vertex 19.0808 3.08076 20
    endloop
  endfacet
  facet normal 0 0 -1
    outer loop
      vertex 20.9192 4.91924 20
      vertex 21.3 8 20
      vertex 21.3 4 20
    endloop
  endfacet
  facet normal 0 0 -1
    outer loop
      vertex 20.9192 4.91924 20
      vertex 20.9192 7.08076 20
      vertex 21.3 8 20
    endloop
  endfacet
  facet normal 0 0 -1
    outer loop
      vertex 20 5.3 20
      vertex 20.9192 7.08076 20
      vertex 20.9192 4.91924 20
    endloop
  endfacet
  facet normal 0 0 -1
    outer loop
      vertex 20 5.3 20
      vertex 20 6.7 20
      vertex 20.9192 7.08076 20
    endloop
  endfacet
  facet normal 0 0 -1
    outer loop
      vertex 19.0808 4.91924 20
      vertex 20 6.7 20
      vertex 20 5.3 20
    endloop
  endfacet
  facet normal 0 0 -1
    outer loop
      vertex 19.0808 4.91924 20
      vertex 19.0808 7.08076 20
      vertex 20 6.7 20
    endloop
  endfacet
  facet normal 0 0 -1
    outer loop
      vertex 18.7 4 20
      vertex 19.0808 7.08076 20
      vertex 19.0808 4.91924 20
    endloop
  endfacet
  facet normal -0 0 -1
    outer loop
      vertex 19.0808 7.08076 20
      vertex 18.7 4 20
      vertex 18.7 8 20
    endloop
  endfacet
  facet normal 0 0 -1
    outer loop
      vertex 20.9192 8.91924 20
      vertex 21.3 12 20
      vertex 21.3 8 20
    endloop
  endfacet
  facet normal 0 0 -1
    outer loop
      vertex 20.9192 8.91924 20
      vertex 20.9192 11.0808 20
      vertex 21.3 12 20
    endloop
  endfacet
  facet normal 0 0 -1
    outer loop
      vertex 20 9.3 20
      vertex 20.9192 11.0808 20
      vertex 20.9192 8.91924 20
    endloop
  endfacet
  facet normal 0 0 -1
    outer loop
      vertex 20 9.3 20
      vertex 20 10.7 20
      vertex 20.9192 11.0808 20
    endloop
  endfacet
  facet normal 0 0 -1
    outer loop
      vertex 19.0808 8.91924 20
      vertex 20 10.7 20
      vertex 20 9.3 20
    endloop
  endfacet
  facet normal 0 0 -1
    outer loop
      vertex 19.0808 8.91924 20
      vertex 19.0808 11.0808 20
      vertex 20 10.7 20
    endloop
  endfacet
  facet normal 0 0 -1
    outer loop
      vertex 18.7 8 20
      vertex 19.0808 11.0808 20
      vertex 19.0808 8.91924 20
    endloop
  endfacet
  facet normal -0 0 -1
    outer loop
      vertex 19.0808 11.0808 20
      vertex 18.7 8 20
      vertex 18.7 12 20
    endloop
  endfacet
  facet normal 0 0 -1
    outer loop
      vertex 20.9192 12.9192 20
      vertex 21.3 16 20
      vertex 21.3 12 20
    endloop
  endfacet
  facet normal 0 0 -1
    outer loop
      vertex 20.9192 12.9192 20
      vertex 20.9192 15.0808 20
      vertex 21.3 16 20
    endloop
  endfacet
  facet normal 0 0 -1
    outer loop
      vertex 20 13.3 20
      vertex 20.9192 15.0808 20
      vertex 20.9192 12.9192 20
    endloop
  endfacet
  facet normal 0 0 -1
    outer loop
      vertex 20 13.3 20
      vertex 20 14.7 20
      vertex 20.9192 15.0808 20
    endloop
  endfacet
  facet normal 0 0 -1
    outer loop
      vertex 19.0808 12.9192 20
      vertex 20 14.7 20
      vertex 20 13.3 20
    endloop
  endfacet
  facet normal 0 0 -1
    outer loop
      vertex 19.0808 12.9192 20
      vertex 19.0808 15.0808 20
      vertex 20 14.7 20
    endloop
  endfacet
  facet normal 0 0 -1
    outer loop
      vertex 18.7 12 20
      vertex 19.0808 15.0808 20
      vertex 19.0808 12.9192 20
    endloop
  endfacet
  facet normal -0 0 -1
    outer loop
      vertex 19.0808 15.0808 20
      vertex 18.7 12 20
      vertex 18.7 16 20
    endloop
  endfacet
  facet normal 0 0 -1
    outer loop
      vertex 19.0808 16.9192 20
      vertex 20 20.5 20
      vertex 20 17.3 20
    endloop
  endfacet
  facet normal 0 0 -1
    outer loop
      vertex 13.2804 15.0805 20
      vertex 19.0808 16.9192 20
      vertex 18.7 16 20
    endloop
  endfacet
  facet normal 0 0 -1
    outer loop
      vertex 12.8684 -3.46731 20
      vertex 17.5612 -8.39754 20
      vertex 15.65 -9.78609 20
    endloop
  endfacet
  facet normal -0 0 -1
    outer loop
      vertex 18.7 8 20
      vertex 14.5 0 20
      vertex 14.5 12 20
    endloop
  endfacet
  facet normal 0 0 -1
    outer loop
      vertex 14.4645 12.564 20
      vertex 18.7 12 20
      vertex 14.5 12 20
    endloop
  endfacet
  facet normal 0 0 -1
    outer loop
      vertex 14.3586 13.1191 20
      vertex 18.7 12 20
      vertex 14.4645 12.564 20
    endloop
  endfacet
  facet normal 0 0 -1
    outer loop
      vertex 18.7 12 20
      vertex 14.3586 13.1191 20
      vertex 18.7 16 20
    endloop
  endfacet
  facet normal 0 0 -1
    outer loop
      vertex 14.184 13.6566 20
      vertex 18.7 16 20
      vertex 14.3586 13.1191 20
    endloop
  endfacet
  facet normal 0 0 -1
    outer loop
      vertex 13.9434 14.1679 20
      vertex 18.7 16 20
      vertex 14.184 13.6566 20
    endloop
  endfacet
  facet normal 0 0 -1
    outer loop
      vertex 13.6406 14.645 20
      vertex 18.7 16 20
      vertex 13.9434 14.1679 20
    endloop
  endfacet
  facet normal 0 0 -1
    outer loop
      vertex 13.2804 15.0805 20
      vertex 18.7 16 20
      vertex 13.6406 14.645 20
    endloop
  endfacet
  facet normal 0 0 -1
    outer loop
      vertex 19.0808 16.9192 20
      vertex 13.2804 15.0805 20
      vertex 12.8684 15.4673 20
    endloop
  endfacet
  facet normal 0 0 -1
    outer loop
      vertex 12.4112 15.7995 20
      vertex 19.0808 16.9192 20
      vertex 12.8684 15.4673 20
    endloop
  endfacet
  facet normal -0 0 -1
    outer loop
      vertex 19.0808 16.9192 20
      vertex 12.4112 15.7995 20
      vertex 20 20.5 20
    endloop
  endfacet
  facet normal 0 0 -1
    outer loop
      vertex 11.916 16.0717 20
      vertex 20 20.5 20
      vertex 12.4112 15.7995 20
    endloop
  endfacet
  facet normal 0 0 -1
    outer loop
      vertex 11.3906 16.2798 20
      vertex 20 20.5 20
      vertex 11.916 16.0717 20
    endloop
  endfacet
  facet normal 0 0 -1
    outer loop
      vertex 10.8432 16.4203 20
      vertex 20 20.5 20
      vertex 11.3906 16.2798 20
    endloop
  endfacet
  facet normal 0 0 -1
    outer loop
      vertex 10.2826 16.4911 20
      vertex 20 20.5 20
      vertex 10.8432 16.4203 20
    endloop
  endfacet
  facet normal 0 0 -1
    outer loop
      vertex 9.71744 16.4911 20
      vertex 20 20.5 20
      vertex 10.2826 16.4911 20
    endloop
  endfacet
  facet normal 0 0 -1
    outer loop
      vertex 0 20.5 20
      vertex 9.71744 16.4911 20
      vertex 9.15678 16.4203 20
    endloop
  endfacet
  facet normal 0 0 -1
    outer loop
      vertex 0 20.5 20
      vertex 9.15678 16.4203 20
      vertex 8.60942 16.2798 20
    endloop
  endfacet
  facet normal 0 -0 -1
    outer loop
      vertex 1.3 0 20
      vertex 5.64138 -1.1191 20
      vertex 0.919238 -0.919238 20
    endloop
  endfacet
  facet normal 0 0 -1
    outer loop
      vertex 0.919238 0.919238 20
      vertex 5.5 0 20
      vertex 1.3 0 20
    endloop
  endfacet
  facet normal 0 0 -1
    outer loop
      vertex 5.5 0 20
      vertex 1.3 4 20
      vertex 5.5 12 20
    endloop
  endfacet
  facet normal 0 0 -1
    outer loop
      vertex 1.3 8 20
      vertex 5.5 12 20
      vertex 1.3 4 20
    endloop
  endfacet
  facet normal 0 0 -1
    outer loop
      vertex 0.919238 8.91924 20
      vertex 5.5 12 20
      vertex 1.3 8 20
    endloop
  endfacet
  facet normal 0 0 -1
    outer loop
      vertex 0.919238 11.0808 20
      vertex 5.5 12 20
      vertex 0.919238 8.91924 20
    endloop
  endfacet
  facet normal 0 -0 -1
    outer loop
      vertex 1.3 12 20
      vertex 5.5 12 20
      vertex 0.919238 11.0808 20
    endloop
  endfacet
  facet normal 0 0 -1
    outer loop
      vertex 5.5 12 20
      vertex 1.3 12 20
      vertex 5.53548 12.564 20
    endloop
  endfacet
  facet normal 0 0 -1
    outer loop
      vertex 0.919238 15.0808 20
      vertex 5.64138 13.1191 20
      vertex 0.919238 12.9192 20
    endloop
  endfacet
  facet normal 0 0 -1
    outer loop
      vertex 5.64138 13.1191 20
      vertex 0.919238 15.0808 20
      vertex 5.81601 13.6566 20
    endloop
  endfacet
  facet normal 0 -0 -1
    outer loop
      vertex 1.3 16 20
      vertex 5.81601 13.6566 20
      vertex 0.919238 15.0808 20
    endloop
  endfacet
  facet normal 0 0 -1
    outer loop
      vertex 5.81601 13.6566 20
      vertex 1.3 16 20
      vertex 6.05662 14.1679 20
    endloop
  endfacet
  facet normal 0 0 -1
    outer loop
      vertex 6.05662 14.1679 20
      vertex 1.3 16 20
      vertex 6.35942 14.645 20
    endloop
  endfacet
  facet normal 0 0 -1
    outer loop
      vertex 6.35942 14.645 20
      vertex 1.3 16 20
      vertex 6.71964 15.0805 20
    endloop
  endfacet
  facet normal 0 0 -1
    outer loop
      vertex 7.13159 15.4673 20
      vertex 0.919238 16.9192 20
      vertex 7.58878 15.7995 20
    endloop
  endfacet
  facet normal 0 0 -1
    outer loop
      vertex 0 20.5 20
      vertex 7.58878 15.7995 20
      vertex 0.919238 16.9192 20
    endloop
  endfacet
  facet normal 0 0 -1
    outer loop
      vertex 7.58878 15.7995 20
      vertex 0 20.5 20
      vertex 8.08399 16.0717 20
    endloop
  endfacet
  facet normal 0 0 -1
    outer loop
      vertex 8.08399 16.0717 20
      vertex 0 20.5 20
      vertex 8.60942 16.2798 20
    endloop
  endfacet
  facet normal 0 0 -1
    outer loop
      vertex 0 20.5 20
      vertex 0.919238 16.9192 20
      vertex 0 17.3 20
    endloop
  endfacet
  facet normal 0 0 -1
    outer loop
      vertex 9.71744 16.4911 20
      vertex 0 20.5 20
      vertex 20 20.5 20
    endloop
  endfacet
  facet normal 0 0 -1
    outer loop
      vertex -0.919238 16.9192 20
      vertex 0 20.5 20
      vertex 0 17.3 20
    endloop
  endfacet
  facet normal -0 0 -1
    outer loop
      vertex 0 20.5 20
      vertex -0.919238 16.9192 20
      vertex -1.3 25 20
    endloop
  endfacet
  facet normal 0 0 -1
    outer loop
      vertex -1.3 25 20
      vertex -0.919238 16.9192 20
      vertex -1.3 16 20
    endloop
  endfacet
  facet normal 0 0 -1
    outer loop
      vertex 0 20.5 20
      vertex -1.3 25 20
      vertex 0 25 20
    endloop
  endfacet
  facet normal 0 0 -1
    outer loop
      vertex 20.9192 16.9192 20
      vertex 21.3 25 20
      vertex 21.3 16 20
    endloop
  endfacet
  facet normal 0 0 -1
    outer loop
      vertex 20 20.5 20
      vertex 20.9192 16.9192 20
      vertex 20 17.3 20
    endloop
  endfacet
  facet normal 0 0 -1
    outer loop
      vertex 20.9192 16.9192 20
      vertex 20 20.5 20
      vertex 21.3 25 20
    endloop
  endfacet
  facet normal -0 0 -1
    outer loop
      vertex 21.3 25 20
      vertex 20 20.5 20
      vertex 20 25 20
    endloop
  endfacet
  facet normal 0 0 -1
    outer loop
      vertex 0.919238 16.9192 20
      vertex 6.71964 15.0805 20
      vertex 1.3 16 20
    endloop
  endfacet
  facet normal 0 0 -1
    outer loop
      vertex 6.71964 15.0805 20
      vertex 0.919238 16.9192 20
      vertex 7.13159 15.4673 20
    endloop
  endfacet
  facet normal 0 0 -1
    outer loop
      vertex 0 13.3 20
      vertex 0.919238 15.0808 20
      vertex 0.919238 12.9192 20
    endloop
  endfacet
  facet normal 0 0 -1
    outer loop
      vertex 0 13.3 20
      vertex 0 14.7 20
      vertex 0.919238 15.0808 20
    endloop
  endfacet
  facet normal 0 0 -1
    outer loop
      vertex -0.919238 12.9192 20
      vertex 0 14.7 20
      vertex 0 13.3 20
    endloop
  endfacet
  facet normal 0 0 -1
    outer loop
      vertex -0.919238 12.9192 20
      vertex -0.919238 15.0808 20
      vertex 0 14.7 20
    endloop
  endfacet
  facet normal 0 0 -1
    outer loop
      vertex -1.3 12 20
      vertex -0.919238 15.0808 20
      vertex -0.919238 12.9192 20
    endloop
  endfacet
  facet normal -0 0 -1
    outer loop
      vertex -0.919238 15.0808 20
      vertex -1.3 12 20
      vertex -1.3 16 20
    endloop
  endfacet
  facet normal -0 0 -1
    outer loop
      vertex 5.53548 12.564 20
      vertex 1.3 12 20
      vertex 5.64138 13.1191 20
    endloop
  endfacet
  facet normal 0 0 -1
    outer loop
      vertex 0.919238 12.9192 20
      vertex 5.64138 13.1191 20
      vertex 1.3 12 20
    endloop
  endfacet
  facet normal 0 0 -1
    outer loop
      vertex 0 9.3 20
      vertex 0.919238 11.0808 20
      vertex 0.919238 8.91924 20
    endloop
  endfacet
  facet normal 0 0 -1
    outer loop
      vertex 0 9.3 20
      vertex 0 10.7 20
      vertex 0.919238 11.0808 20
    endloop
  endfacet
  facet normal 0 0 -1
    outer loop
      vertex -0.919238 8.91924 20
      vertex 0 10.7 20
      vertex 0 9.3 20
    endloop
  endfacet
  facet normal 0 0 -1
    outer loop
      vertex -0.919238 8.91924 20
      vertex -0.919238 11.0808 20
      vertex 0 10.7 20
    endloop
  endfacet
  facet normal 0 0 -1
    outer loop
      vertex -1.3 8 20
      vertex -0.919238 11.0808 20
      vertex -0.919238 8.91924 20
    endloop
  endfacet
  facet normal -0 0 -1
    outer loop
      vertex -0.919238 11.0808 20
      vertex -1.3 8 20
      vertex -1.3 12 20
    endloop
  endfacet
  facet normal 0 0 -1
    outer loop
      vertex 0.919238 4.91924 20
      vertex 1.3 8 20
      vertex 1.3 4 20
    endloop
  endfacet
  facet normal 0 0 -1
    outer loop
      vertex 0.919238 4.91924 20
      vertex 0.919238 7.08076 20
      vertex 1.3 8 20
    endloop
  endfacet
  facet normal 0 0 -1
    outer loop
      vertex 0 5.3 20
      vertex 0.919238 7.08076 20
      vertex 0.919238 4.91924 20
    endloop
  endfacet
  facet normal 0 0 -1
    outer loop
      vertex 0 5.3 20
      vertex 0 6.7 20
      vertex 0.919238 7.08076 20
    endloop
  endfacet
  facet normal 0 0 -1
    outer loop
      vertex -0.919238 4.91924 20
      vertex 0 6.7 20
      vertex 0 5.3 20
    endloop
  endfacet
  facet normal 0 0 -1
    outer loop
      vertex -0.919238 4.91924 20
      vertex -0.919238 7.08076 20
      vertex 0 6.7 20
    endloop
  endfacet
  facet normal 0 0 -1
    outer loop
      vertex -1.3 4 20
      vertex -0.919238 7.08076 20
      vertex -0.919238 4.91924 20
    endloop
  endfacet
  facet normal -0 0 -1
    outer loop
      vertex -0.919238 7.08076 20
      vertex -1.3 4 20
      vertex -1.3 8 20
    endloop
  endfacet
  facet normal 0 0 -1
    outer loop
      vertex 0.919238 3.08076 20
      vertex 5.5 0 20
      vertex 0.919238 0.919238 20
    endloop
  endfacet
  facet normal 0 0 -1
    outer loop
      vertex 5.5 0 20
      vertex 0.919238 3.08076 20
      vertex 1.3 4 20
    endloop
  endfacet
  facet normal 0 0 -1
    outer loop
      vertex 0 1.3 20
      vertex 0.919238 3.08076 20
      vertex 0.919238 0.919238 20
    endloop
  endfacet
  facet normal 0 0 -1
    outer loop
      vertex 0 1.3 20
      vertex 0 2.7 20
      vertex 0.919238 3.08076 20
    endloop
  endfacet
  facet normal 0 0 -1
    outer loop
      vertex -0.919238 0.919238 20
      vertex 0 2.7 20
      vertex 0 1.3 20
    endloop
  endfacet
  facet normal 0 0 -1
    outer loop
      vertex -0.919238 0.919238 20
      vertex -0.919238 3.08076 20
      vertex 0 2.7 20
    endloop
  endfacet
  facet normal 0 0 -1
    outer loop
      vertex -1.3 0 20
      vertex -0.919238 3.08076 20
      vertex -0.919238 0.919238 20
    endloop
  endfacet
  facet normal -0 0 -1
    outer loop
      vertex -0.919238 3.08076 20
      vertex -1.3 0 20
      vertex -1.3 4 20
    endloop
  endfacet
  facet normal 0 0 -1
    outer loop
      vertex 5.53548 -0.563999 20
      vertex 1.3 0 20
      vertex 5.5 0 20
    endloop
  endfacet
  facet normal 0 0 -1
    outer loop
      vertex 5.64138 -1.1191 20
      vertex 1.3 0 20
      vertex 5.53548 -0.563999 20
    endloop
  endfacet
  facet normal 0 0 -1
    outer loop
      vertex -0.323063 -4.59612 20
      vertex 0.919238 -0.919238 20
      vertex 0.858108 -6.64197 20
    endloop
  endfacet
  facet normal 0 0 -1
    outer loop
      vertex 0.919238 -0.919238 20
      vertex -0.323063 -4.59612 20
      vertex 0 -1.3 20
    endloop
  endfacet
  facet normal 0 0 -1
    outer loop
      vertex -1.05307 -2.3494 20
      vertex 0 -1.3 20
      vertex -0.323063 -4.59612 20
    endloop
  endfacet
  facet normal -0 0 -1
    outer loop
      vertex 0 -1.3 20
      vertex -1.05307 -2.3494 20
      vertex -0.919238 -0.919238 20
    endloop
  endfacet
  facet normal -0 0 -1
    outer loop
      vertex -0.919238 -0.919238 20
      vertex -1.05307 -2.3494 20
      vertex -1.3 0 20
    endloop
  endfacet
  facet normal -0 0 -1
    outer loop
      vertex 18.7 0 20
      vertex 14.4645 -0.563999 20
      vertex 14.5 0 20
    endloop
  endfacet
  facet normal 0 0 -1
    outer loop
      vertex 18.7 0 20
      vertex 14.3586 -1.1191 20
      vertex 14.4645 -0.563999 20
    endloop
  endfacet
  facet normal -0 0 -1
    outer loop
      vertex 19.0808 -0.919238 20
      vertex 14.3586 -1.1191 20
      vertex 18.7 0 20
    endloop
  endfacet
  facet normal 0 -0 -1
    outer loop
      vertex 14.3586 -1.1191 20
      vertex 19.0808 -0.919238 20
      vertex 14.184 -1.65656 20
    endloop
  endfacet
  facet normal 0 0 -1
    outer loop
      vertex 17.5612 -8.39754 20
      vertex 13.6406 -2.64503 20
      vertex 13.9434 -2.16789 20
    endloop
  endfacet
  facet normal 0 0 -1
    outer loop
      vertex 11.916 -4.07172 20
      vertex 15.65 -9.78609 20
      vertex 13.4919 -10.7469 20
    endloop
  endfacet
  facet normal 0 0 -1
    outer loop
      vertex 17.5612 -8.39754 20
      vertex 13.2804 -3.08046 20
      vertex 13.6406 -2.64503 20
    endloop
  endfacet
  facet normal 0 0 -1
    outer loop
      vertex 17.5612 -8.39754 20
      vertex 12.8684 -3.46731 20
      vertex 13.2804 -3.08046 20
    endloop
  endfacet
  facet normal 0 0 -1
    outer loop
      vertex 15.65 -9.78609 20
      vertex 12.4112 -3.79947 20
      vertex 12.8684 -3.46731 20
    endloop
  endfacet
  facet normal 0 0 -1
    outer loop
      vertex 15.65 -9.78609 20
      vertex 11.916 -4.07172 20
      vertex 12.4112 -3.79947 20
    endloop
  endfacet
  facet normal 0 0 -1
    outer loop
      vertex 13.4919 -10.7469 20
      vertex 11.3906 -4.27975 20
      vertex 11.916 -4.07172 20
    endloop
  endfacet
  facet normal 0 0 -1
    outer loop
      vertex 10.8432 -4.42029 20
      vertex 13.4919 -10.7469 20
      vertex 11.1812 -11.2381 20
    endloop
  endfacet
  facet normal 0 0 -1
    outer loop
      vertex 13.4919 -10.7469 20
      vertex 10.8432 -4.42029 20
      vertex 11.3906 -4.27975 20
    endloop
  endfacet
  facet normal 0 0 -1
    outer loop
      vertex 11.1812 -11.2381 20
      vertex 10.2826 -4.49112 20
      vertex 10.8432 -4.42029 20
    endloop
  endfacet
  facet normal 0 0 -1
    outer loop
      vertex 11.1812 -11.2381 20
      vertex 9.71744 -4.49112 20
      vertex 10.2826 -4.49112 20
    endloop
  endfacet
  facet normal 0 0 -1
    outer loop
      vertex 8.81883 -11.2381 20
      vertex 9.71744 -4.49112 20
      vertex 11.1812 -11.2381 20
    endloop
  endfacet
  facet normal -0 0 -1
    outer loop
      vertex 9.71744 -4.49112 20
      vertex 8.81883 -11.2381 20
      vertex 9.15678 -4.42029 20
    endloop
  endfacet
  facet normal 0 0 -1
    outer loop
      vertex 6.50811 -10.7469 20
      vertex 9.15678 -4.42029 20
      vertex 8.81883 -11.2381 20
    endloop
  endfacet
  facet normal -0 0 -1
    outer loop
      vertex 9.15678 -4.42029 20
      vertex 6.50811 -10.7469 20
      vertex 8.60942 -4.27975 20
    endloop
  endfacet
  facet normal -0 0 -1
    outer loop
      vertex 8.60942 -4.27975 20
      vertex 6.50811 -10.7469 20
      vertex 8.08399 -4.07172 20
    endloop
  endfacet
  facet normal 0 0 -1
    outer loop
      vertex 4.35 -9.78609 20
      vertex 8.08399 -4.07172 20
      vertex 6.50811 -10.7469 20
    endloop
  endfacet
  facet normal -0 0 -1
    outer loop
      vertex 8.08399 -4.07172 20
      vertex 4.35 -9.78609 20
      vertex 7.58878 -3.79947 20
    endloop
  endfacet
  facet normal -0 0 -1
    outer loop
      vertex 7.58878 -3.79947 20
      vertex 4.35 -9.78609 20
      vertex 7.13159 -3.46731 20
    endloop
  endfacet
  facet normal 0 0 -1
    outer loop
      vertex 2.43882 -8.39754 20
      vertex 7.13159 -3.46731 20
      vertex 4.35 -9.78609 20
    endloop
  endfacet
  facet normal -0 0 -1
    outer loop
      vertex 7.13159 -3.46731 20
      vertex 2.43882 -8.39754 20
      vertex 6.71964 -3.08046 20
    endloop
  endfacet
  facet normal 0 0 -1
    outer loop
      vertex 0.858108 -6.64197 20
      vertex 6.71964 -3.08046 20
      vertex 2.43882 -8.39754 20
    endloop
  endfacet
  facet normal -0 0 -1
    outer loop
      vertex 6.71964 -3.08046 20
      vertex 0.858108 -6.64197 20
      vertex 6.35942 -2.64503 20
    endloop
  endfacet
  facet normal -0 0 -1
    outer loop
      vertex 6.35942 -2.64503 20
      vertex 0.858108 -6.64197 20
      vertex 6.05662 -2.16789 20
    endloop
  endfacet
  facet normal 0 0 -1
    outer loop
      vertex 5.81601 -1.65656 20
      vertex 0.919238 -0.919238 20
      vertex 5.64138 -1.1191 20
    endloop
  endfacet
  facet normal 0 0 -1
    outer loop
      vertex 6.05662 -2.16789 20
      vertex 0.919238 -0.919238 20
      vertex 5.81601 -1.65656 20
    endloop
  endfacet
  facet normal 0 -0 -1
    outer loop
      vertex 0.919238 -0.919238 20
      vertex 6.05662 -2.16789 20
      vertex 0.858108 -6.64197 20
    endloop
  endfacet
  facet normal 0.92388 0.382683 0
    outer loop
      vertex 21.3 0 20
      vertex 20.9192 0.919238 17
      vertex 20.9192 0.919238 20
    endloop
  endfacet
  facet normal 0.92388 0.382683 0
    outer loop
      vertex 20.9192 0.919238 17
      vertex 21.3 0 20
      vertex 21.3 0 17
    endloop
  endfacet
  facet normal -0.92388 0.382683 0
    outer loop
      vertex 18.7 0 17
      vertex 19.0808 0.919238 20
      vertex 19.0808 0.919238 17
    endloop
  endfacet
  facet normal -0.92388 0.382683 0
    outer loop
      vertex 19.0808 0.919238 20
      vertex 18.7 0 17
      vertex 18.7 0 20
    endloop
  endfacet
  facet normal 0.382683 0.92388 -0
    outer loop
      vertex 20.9192 0.919238 17
      vertex 20 1.3 20
      vertex 20.9192 0.919238 20
    endloop
  endfacet
  facet normal 0.382683 0.92388 0
    outer loop
      vertex 20 1.3 20
      vertex 20.9192 0.919238 17
      vertex 20 1.3 17
    endloop
  endfacet
  facet normal 0 0 -1
    outer loop
      vertex 20.9192 -0.919238 17
      vertex 20.9192 0.919238 17
      vertex 21.3 0 17
    endloop
  endfacet
  facet normal 0 0 -1
    outer loop
      vertex 20 -1.3 17
      vertex 20.9192 0.919238 17
      vertex 20.9192 -0.919238 17
    endloop
  endfacet
  facet normal 0 0 -1
    outer loop
      vertex 20 -1.3 17
      vertex 20 1.3 17
      vertex 20.9192 0.919238 17
    endloop
  endfacet
  facet normal 0 0 -1
    outer loop
      vertex 19.0808 -0.919238 17
      vertex 20 1.3 17
      vertex 20 -1.3 17
    endloop
  endfacet
  facet normal 0 0 -1
    outer loop
      vertex 19.0808 -0.919238 17
      vertex 19.0808 0.919238 17
      vertex 20 1.3 17
    endloop
  endfacet
  facet normal 0 -0 -1
    outer loop
      vertex 19.0808 0.919238 17
      vertex 19.0808 -0.919238 17
      vertex 18.7 0 17
    endloop
  endfacet
  facet normal -0.382683 0.92388 0
    outer loop
      vertex 20 1.3 17
      vertex 19.0808 0.919238 20
      vertex 20 1.3 20
    endloop
  endfacet
  facet normal -0.382683 0.92388 0
    outer loop
      vertex 19.0808 0.919238 20
      vertex 20 1.3 17
      vertex 19.0808 0.919238 17
    endloop
  endfacet
  facet normal 0.382683 -0.92388 0
    outer loop
      vertex 20 -1.3 17
      vertex 20.9192 -0.919238 20
      vertex 20 -1.3 20
    endloop
  endfacet
  facet normal 0.382683 -0.92388 0
    outer loop
      vertex 20.9192 -0.919238 20
      vertex 20 -1.3 17
      vertex 20.9192 -0.919238 17
    endloop
  endfacet
  facet normal -0.92388 -0.382683 0
    outer loop
      vertex 19.0808 -0.919238 17
      vertex 18.7 0 20
      vertex 18.7 0 17
    endloop
  endfacet
  facet normal -0.92388 -0.382683 0
    outer loop
      vertex 18.7 0 20
      vertex 19.0808 -0.919238 17
      vertex 19.0808 -0.919238 20
    endloop
  endfacet
  facet normal 0.92388 -0.382683 0
    outer loop
      vertex 20.9192 -0.919238 20
      vertex 21.3 0 17
      vertex 21.3 0 20
    endloop
  endfacet
  facet normal 0.92388 -0.382683 0
    outer loop
      vertex 21.3 0 17
      vertex 20.9192 -0.919238 20
      vertex 20.9192 -0.919238 17
    endloop
  endfacet
  facet normal -0.382683 -0.92388 0
    outer loop
      vertex 19.0808 -0.919238 17
      vertex 20 -1.3 20
      vertex 19.0808 -0.919238 20
    endloop
  endfacet
  facet normal -0.382683 -0.92388 -0
    outer loop
      vertex 20 -1.3 20
      vertex 19.0808 -0.919238 17
      vertex 20 -1.3 17
    endloop
  endfacet
  facet normal 0.923879 0.382684 0
    outer loop
      vertex 1.3 4 20
      vertex 0.919238 4.91924 17
      vertex 0.919238 4.91924 20
    endloop
  endfacet
  facet normal 0.923879 0.382684 0
    outer loop
      vertex 0.919238 4.91924 17
      vertex 1.3 4 20
      vertex 1.3 4 17
    endloop
  endfacet
  facet normal -0.382684 0.923879 0
    outer loop
      vertex 0 5.3 17
      vertex -0.919238 4.91924 20
      vertex 0 5.3 20
    endloop
  endfacet
  facet normal -0.382684 0.923879 0
    outer loop
      vertex -0.919238 4.91924 20
      vertex 0 5.3 17
      vertex -0.919238 4.91924 17
    endloop
  endfacet
  facet normal 0.382684 0.923879 -0
    outer loop
      vertex 0.919238 4.91924 17
      vertex 0 5.3 20
      vertex 0.919238 4.91924 20
    endloop
  endfacet
  facet normal 0.382684 0.923879 0
    outer loop
      vertex 0 5.3 20
      vertex 0.919238 4.91924 17
      vertex 0 5.3 17
    endloop
  endfacet
  facet normal -0.923879 0.382684 0
    outer loop
      vertex -1.3 4 17
      vertex -0.919238 4.91924 20
      vertex -0.919238 4.91924 17
    endloop
  endfacet
  facet normal -0.923879 0.382684 0
    outer loop
      vertex -0.919238 4.91924 20
      vertex -1.3 4 17
      vertex -1.3 4 20
    endloop
  endfacet
  facet normal 0 0 -1
    outer loop
      vertex 0.919238 3.08076 17
      vertex 0.919238 4.91924 17
      vertex 1.3 4 17
    endloop
  endfacet
  facet normal 0 0 -1
    outer loop
      vertex 0 2.7 17
      vertex 0.919238 4.91924 17
      vertex 0.919238 3.08076 17
    endloop
  endfacet
  facet normal 0 0 -1
    outer loop
      vertex 0 2.7 17
      vertex 0 5.3 17
      vertex 0.919238 4.91924 17
    endloop
  endfacet
  facet normal 0 0 -1
    outer loop
      vertex -0.919238 3.08076 17
      vertex 0 5.3 17
      vertex 0 2.7 17
    endloop
  endfacet
  facet normal 0 0 -1
    outer loop
      vertex -0.919238 3.08076 17
      vertex -0.919238 4.91924 17
      vertex 0 5.3 17
    endloop
  endfacet
  facet normal 0 -0 -1
    outer loop
      vertex -0.919238 4.91924 17
      vertex -0.919238 3.08076 17
      vertex -1.3 4 17
    endloop
  endfacet
  facet normal 0.92388 -0.382683 0
    outer loop
      vertex 0.919238 3.08076 20
      vertex 1.3 4 17
      vertex 1.3 4 20
    endloop
  endfacet
  facet normal 0.92388 -0.382683 0
    outer loop
      vertex 1.3 4 17
      vertex 0.919238 3.08076 20
      vertex 0.919238 3.08076 17
    endloop
  endfacet
  facet normal -0.382684 -0.923879 0
    outer loop
      vertex -0.919238 3.08076 17
      vertex 0 2.7 20
      vertex -0.919238 3.08076 20
    endloop
  endfacet
  facet normal -0.382684 -0.923879 -0
    outer loop
      vertex 0 2.7 20
      vertex -0.919238 3.08076 17
      vertex 0 2.7 17
    endloop
  endfacet
  facet normal -0.92388 -0.382683 0
    outer loop
      vertex -0.919238 3.08076 17
      vertex -1.3 4 20
      vertex -1.3 4 17
    endloop
  endfacet
  facet normal -0.92388 -0.382683 0
    outer loop
      vertex -1.3 4 20
      vertex -0.919238 3.08076 17
      vertex -0.919238 3.08076 20
    endloop
  endfacet
  facet normal 0.382684 -0.923879 0
    outer loop
      vertex 0 2.7 17
      vertex 0.919238 3.08076 20
      vertex 0 2.7 20
    endloop
  endfacet
  facet normal 0.382684 -0.923879 0
    outer loop
      vertex 0.919238 3.08076 20
      vertex 0 2.7 17
      vertex 0.919238 3.08076 17
    endloop
  endfacet
  facet normal 0.92388 0.382683 0
    outer loop
      vertex 21.3 4 20
      vertex 20.9192 4.91924 17
      vertex 20.9192 4.91924 20
    endloop
  endfacet
  facet normal 0.92388 0.382683 0
    outer loop
      vertex 20.9192 4.91924 17
      vertex 21.3 4 20
      vertex 21.3 4 17
    endloop
  endfacet
  facet normal -0.382683 0.92388 0
    outer loop
      vertex 20 5.3 17
      vertex 19.0808 4.91924 20
      vertex 20 5.3 20
    endloop
  endfacet
  facet normal -0.382683 0.92388 0
    outer loop
      vertex 19.0808 4.91924 20
      vertex 20 5.3 17
      vertex 19.0808 4.91924 17
    endloop
  endfacet
  facet normal 0.382683 0.92388 -0
    outer loop
      vertex 20.9192 4.91924 17
      vertex 20 5.3 20
      vertex 20.9192 4.91924 20
    endloop
  endfacet
  facet normal 0.382683 0.92388 0
    outer loop
      vertex 20 5.3 20
      vertex 20.9192 4.91924 17
      vertex 20 5.3 17
    endloop
  endfacet
  facet normal -0.92388 0.382683 0
    outer loop
      vertex 18.7 4 17
      vertex 19.0808 4.91924 20
      vertex 19.0808 4.91924 17
    endloop
  endfacet
  facet normal -0.92388 0.382683 0
    outer loop
      vertex 19.0808 4.91924 20
      vertex 18.7 4 17
      vertex 18.7 4 20
    endloop
  endfacet
  facet normal 0 0 -1
    outer loop
      vertex 20.9192 3.08076 17
      vertex 20.9192 4.91924 17
      vertex 21.3 4 17
    endloop
  endfacet
  facet normal 0 0 -1
    outer loop
      vertex 20 2.7 17
      vertex 20.9192 4.91924 17
      vertex 20.9192 3.08076 17
    endloop
  endfacet
  facet normal 0 0 -1
    outer loop
      vertex 20 2.7 17
      vertex 20 5.3 17
      vertex 20.9192 4.91924 17
    endloop
  endfacet
  facet normal 0 0 -1
    outer loop
      vertex 19.0808 3.08076 17
      vertex 20 5.3 17
      vertex 20 2.7 17
    endloop
  endfacet
  facet normal 0 0 -1
    outer loop
      vertex 19.0808 3.08076 17
      vertex 19.0808 4.91924 17
      vertex 20 5.3 17
    endloop
  endfacet
  facet normal 0 -0 -1
    outer loop
      vertex 19.0808 4.91924 17
      vertex 19.0808 3.08076 17
      vertex 18.7 4 17
    endloop
  endfacet
  facet normal -0.92388 -0.382683 0
    outer loop
      vertex 19.0808 3.08076 17
      vertex 18.7 4 20
      vertex 18.7 4 17
    endloop
  endfacet
  facet normal -0.92388 -0.382683 0
    outer loop
      vertex 18.7 4 20
      vertex 19.0808 3.08076 17
      vertex 19.0808 3.08076 20
    endloop
  endfacet
  facet normal 0.382683 -0.92388 0
    outer loop
      vertex 20 2.7 17
      vertex 20.9192 3.08076 20
      vertex 20 2.7 20
    endloop
  endfacet
  facet normal 0.382683 -0.92388 0
    outer loop
      vertex 20.9192 3.08076 20
      vertex 20 2.7 17
      vertex 20.9192 3.08076 17
    endloop
  endfacet
  facet normal -0.382683 -0.92388 0
    outer loop
      vertex 19.0808 3.08076 17
      vertex 20 2.7 20
      vertex 19.0808 3.08076 20
    endloop
  endfacet
  facet normal -0.382683 -0.92388 -0
    outer loop
      vertex 20 2.7 20
      vertex 19.0808 3.08076 17
      vertex 20 2.7 17
    endloop
  endfacet
  facet normal 0.92388 -0.382683 0
    outer loop
      vertex 20.9192 3.08076 20
      vertex 21.3 4 17
      vertex 21.3 4 20
    endloop
  endfacet
  facet normal 0.92388 -0.382683 0
    outer loop
      vertex 21.3 4 17
      vertex 20.9192 3.08076 20
      vertex 20.9192 3.08076 17
    endloop
  endfacet
  facet normal 0.923879 0.382684 0
    outer loop
      vertex 1.3 8 20
      vertex 0.919238 8.91924 17
      vertex 0.919238 8.91924 20
    endloop
  endfacet
  facet normal 0.923879 0.382684 0
    outer loop
      vertex 0.919238 8.91924 17
      vertex 1.3 8 20
      vertex 1.3 8 17
    endloop
  endfacet
  facet normal -0.382684 0.923879 0
    outer loop
      vertex 0 9.3 17
      vertex -0.919238 8.91924 20
      vertex 0 9.3 20
    endloop
  endfacet
  facet normal -0.382684 0.923879 0
    outer loop
      vertex -0.919238 8.91924 20
      vertex 0 9.3 17
      vertex -0.919238 8.91924 17
    endloop
  endfacet
  facet normal 0.382684 0.923879 -0
    outer loop
      vertex 0.919238 8.91924 17
      vertex 0 9.3 20
      vertex 0.919238 8.91924 20
    endloop
  endfacet
  facet normal 0.382684 0.923879 0
    outer loop
      vertex 0 9.3 20
      vertex 0.919238 8.91924 17
      vertex 0 9.3 17
    endloop
  endfacet
  facet normal -0.923879 0.382684 0
    outer loop
      vertex -1.3 8 17
      vertex -0.919238 8.91924 20
      vertex -0.919238 8.91924 17
    endloop
  endfacet
  facet normal -0.923879 0.382684 0
    outer loop
      vertex -0.919238 8.91924 20
      vertex -1.3 8 17
      vertex -1.3 8 20
    endloop
  endfacet
  facet normal 0 0 -1
    outer loop
      vertex 0.919238 7.08076 17
      vertex 0.919238 8.91924 17
      vertex 1.3 8 17
    endloop
  endfacet
  facet normal 0 0 -1
    outer loop
      vertex 0 6.7 17
      vertex 0.919238 8.91924 17
      vertex 0.919238 7.08076 17
    endloop
  endfacet
  facet normal 0 0 -1
    outer loop
      vertex 0 6.7 17
      vertex 0 9.3 17
      vertex 0.919238 8.91924 17
    endloop
  endfacet
  facet normal 0 0 -1
    outer loop
      vertex -0.919238 7.08076 17
      vertex 0 9.3 17
      vertex 0 6.7 17
    endloop
  endfacet
  facet normal 0 0 -1
    outer loop
      vertex -0.919238 7.08076 17
      vertex -0.919238 8.91924 17
      vertex 0 9.3 17
    endloop
  endfacet
  facet normal 0 -0 -1
    outer loop
      vertex -0.919238 8.91924 17
      vertex -0.919238 7.08076 17
      vertex -1.3 8 17
    endloop
  endfacet
  facet normal 0.92388 -0.382683 0
    outer loop
      vertex 0.919238 7.08076 20
      vertex 1.3 8 17
      vertex 1.3 8 20
    endloop
  endfacet
  facet normal 0.92388 -0.382683 0
    outer loop
      vertex 1.3 8 17
      vertex 0.919238 7.08076 20
      vertex 0.919238 7.08076 17
    endloop
  endfacet
  facet normal -0.382684 -0.923879 0
    outer loop
      vertex -0.919238 7.08076 17
      vertex 0 6.7 20
      vertex -0.919238 7.08076 20
    endloop
  endfacet
  facet normal -0.382684 -0.923879 -0
    outer loop
      vertex 0 6.7 20
      vertex -0.919238 7.08076 17
      vertex 0 6.7 17
    endloop
  endfacet
  facet normal -0.92388 -0.382683 0
    outer loop
      vertex -0.919238 7.08076 17
      vertex -1.3 8 20
      vertex -1.3 8 17
    endloop
  endfacet
  facet normal -0.92388 -0.382683 0
    outer loop
      vertex -1.3 8 20
      vertex -0.919238 7.08076 17
      vertex -0.919238 7.08076 20
    endloop
  endfacet
  facet normal 0.382684 -0.923879 0
    outer loop
      vertex 0 6.7 17
      vertex 0.919238 7.08076 20
      vertex 0 6.7 20
    endloop
  endfacet
  facet normal 0.382684 -0.923879 0
    outer loop
      vertex 0.919238 7.08076 20
      vertex 0 6.7 17
      vertex 0.919238 7.08076 17
    endloop
  endfacet
  facet normal 0.92388 0.382683 0
    outer loop
      vertex 21.3 8 20
      vertex 20.9192 8.91924 17
      vertex 20.9192 8.91924 20
    endloop
  endfacet
  facet normal 0.92388 0.382683 0
    outer loop
      vertex 20.9192 8.91924 17
      vertex 21.3 8 20
      vertex 21.3 8 17
    endloop
  endfacet
  facet normal -0.92388 -0.382683 0
    outer loop
      vertex 19.0808 7.08076 17
      vertex 18.7 8 20
      vertex 18.7 8 17
    endloop
  endfacet
  facet normal -0.92388 -0.382683 0
    outer loop
      vertex 18.7 8 20
      vertex 19.0808 7.08076 17
      vertex 19.0808 7.08076 20
    endloop
  endfacet
  facet normal -0.382683 -0.92388 0
    outer loop
      vertex 19.0808 7.08076 17
      vertex 20 6.7 20
      vertex 19.0808 7.08076 20
    endloop
  endfacet
  facet normal -0.382683 -0.92388 -0
    outer loop
      vertex 20 6.7 20
      vertex 19.0808 7.08076 17
      vertex 20 6.7 17
    endloop
  endfacet
  facet normal -0.382683 0.92388 0
    outer loop
      vertex 20 9.3 17
      vertex 19.0808 8.91924 20
      vertex 20 9.3 20
    endloop
  endfacet
  facet normal -0.382683 0.92388 0
    outer loop
      vertex 19.0808 8.91924 20
      vertex 20 9.3 17
      vertex 19.0808 8.91924 17
    endloop
  endfacet
  facet normal 0.382683 0.92388 -0
    outer loop
      vertex 20.9192 8.91924 17
      vertex 20 9.3 20
      vertex 20.9192 8.91924 20
    endloop
  endfacet
  facet normal 0.382683 0.92388 0
    outer loop
      vertex 20 9.3 20
      vertex 20.9192 8.91924 17
      vertex 20 9.3 17
    endloop
  endfacet
  facet normal -0.92388 0.382683 0
    outer loop
      vertex 18.7 8 17
      vertex 19.0808 8.91924 20
      vertex 19.0808 8.91924 17
    endloop
  endfacet
  facet normal -0.92388 0.382683 0
    outer loop
      vertex 19.0808 8.91924 20
      vertex 18.7 8 17
      vertex 18.7 8 20
    endloop
  endfacet
  facet normal 0 0 -1
    outer loop
      vertex 20.9192 7.08076 17
      vertex 20.9192 8.91924 17
      vertex 21.3 8 17
    endloop
  endfacet
  facet normal 0 0 -1
    outer loop
      vertex 20 6.7 17
      vertex 20.9192 8.91924 17
      vertex 20.9192 7.08076 17
    endloop
  endfacet
  facet normal 0 0 -1
    outer loop
      vertex 20 6.7 17
      vertex 20 9.3 17
      vertex 20.9192 8.91924 17
    endloop
  endfacet
  facet normal 0 0 -1
    outer loop
      vertex 19.0808 7.08076 17
      vertex 20 9.3 17
      vertex 20 6.7 17
    endloop
  endfacet
  facet normal 0 0 -1
    outer loop
      vertex 19.0808 7.08076 17
      vertex 19.0808 8.91924 17
      vertex 20 9.3 17
    endloop
  endfacet
  facet normal 0 -0 -1
    outer loop
      vertex 19.0808 8.91924 17
      vertex 19.0808 7.08076 17
      vertex 18.7 8 17
    endloop
  endfacet
  facet normal 0.92388 -0.382683 0
    outer loop
      vertex 20.9192 7.08076 20
      vertex 21.3 8 17
      vertex 21.3 8 20
    endloop
  endfacet
  facet normal 0.92388 -0.382683 0
    outer loop
      vertex 21.3 8 17
      vertex 20.9192 7.08076 20
      vertex 20.9192 7.08076 17
    endloop
  endfacet
  facet normal 0.382683 -0.92388 0
    outer loop
      vertex 20 6.7 17
      vertex 20.9192 7.08076 20
      vertex 20 6.7 20
    endloop
  endfacet
  facet normal 0.382683 -0.92388 0
    outer loop
      vertex 20.9192 7.08076 20
      vertex 20 6.7 17
      vertex 20.9192 7.08076 17
    endloop
  endfacet
  facet normal 0.923879 0.382684 0
    outer loop
      vertex 1.3 12 20
      vertex 0.919238 12.9192 17
      vertex 0.919238 12.9192 20
    endloop
  endfacet
  facet normal 0.923879 0.382684 0
    outer loop
      vertex 0.919238 12.9192 17
      vertex 1.3 12 20
      vertex 1.3 12 17
    endloop
  endfacet
  facet normal -0.382684 0.923879 0
    outer loop
      vertex 0 13.3 17
      vertex -0.919238 12.9192 20
      vertex 0 13.3 20
    endloop
  endfacet
  facet normal -0.382684 0.923879 0
    outer loop
      vertex -0.919238 12.9192 20
      vertex 0 13.3 17
      vertex -0.919238 12.9192 17
    endloop
  endfacet
  facet normal 0.382684 0.923879 -0
    outer loop
      vertex 0.919238 12.9192 17
      vertex 0 13.3 20
      vertex 0.919238 12.9192 20
    endloop
  endfacet
  facet normal 0.382684 0.923879 0
    outer loop
      vertex 0 13.3 20
      vertex 0.919238 12.9192 17
      vertex 0 13.3 17
    endloop
  endfacet
  facet normal -0.923879 0.382684 0
    outer loop
      vertex -1.3 12 17
      vertex -0.919238 12.9192 20
      vertex -0.919238 12.9192 17
    endloop
  endfacet
  facet normal -0.923879 0.382684 0
    outer loop
      vertex -0.919238 12.9192 20
      vertex -1.3 12 17
      vertex -1.3 12 20
    endloop
  endfacet
  facet normal 0 0 -1
    outer loop
      vertex 0.919238 11.0808 17
      vertex 0.919238 12.9192 17
      vertex 1.3 12 17
    endloop
  endfacet
  facet normal 0 0 -1
    outer loop
      vertex 0 10.7 17
      vertex 0.919238 12.9192 17
      vertex 0.919238 11.0808 17
    endloop
  endfacet
  facet normal 0 0 -1
    outer loop
      vertex 0 10.7 17
      vertex 0 13.3 17
      vertex 0.919238 12.9192 17
    endloop
  endfacet
  facet normal 0 0 -1
    outer loop
      vertex -0.919238 11.0808 17
      vertex 0 13.3 17
      vertex 0 10.7 17
    endloop
  endfacet
  facet normal 0 0 -1
    outer loop
      vertex -0.919238 11.0808 17
      vertex -0.919238 12.9192 17
      vertex 0 13.3 17
    endloop
  endfacet
  facet normal 0 -0 -1
    outer loop
      vertex -0.919238 12.9192 17
      vertex -0.919238 11.0808 17
      vertex -1.3 12 17
    endloop
  endfacet
  facet normal 0.92388 -0.382683 0
    outer loop
      vertex 0.919238 11.0808 20
      vertex 1.3 12 17
      vertex 1.3 12 20
    endloop
  endfacet
  facet normal 0.92388 -0.382683 0
    outer loop
      vertex 1.3 12 17
      vertex 0.919238 11.0808 20
      vertex 0.919238 11.0808 17
    endloop
  endfacet
  facet normal -0.382684 -0.923879 0
    outer loop
      vertex -0.919238 11.0808 17
      vertex 0 10.7 20
      vertex -0.919238 11.0808 20
    endloop
  endfacet
  facet normal -0.382684 -0.923879 -0
    outer loop
      vertex 0 10.7 20
      vertex -0.919238 11.0808 17
      vertex 0 10.7 17
    endloop
  endfacet
  facet normal -0.92388 -0.382683 0
    outer loop
      vertex -0.919238 11.0808 17
      vertex -1.3 12 20
      vertex -1.3 12 17
    endloop
  endfacet
  facet normal -0.92388 -0.382683 0
    outer loop
      vertex -1.3 12 20
      vertex -0.919238 11.0808 17
      vertex -0.919238 11.0808 20
    endloop
  endfacet
  facet normal 0.382684 -0.923879 0
    outer loop
      vertex 0 10.7 17
      vertex 0.919238 11.0808 20
      vertex 0 10.7 20
    endloop
  endfacet
  facet normal 0.382684 -0.923879 0
    outer loop
      vertex 0.919238 11.0808 20
      vertex 0 10.7 17
      vertex 0.919238 11.0808 17
    endloop
  endfacet
  facet normal 0.92388 0.382683 0
    outer loop
      vertex 21.3 12 20
      vertex 20.9192 12.9192 17
      vertex 20.9192 12.9192 20
    endloop
  endfacet
  facet normal 0.92388 0.382683 0
    outer loop
      vertex 20.9192 12.9192 17
      vertex 21.3 12 20
      vertex 21.3 12 17
    endloop
  endfacet
  facet normal -0.382683 -0.92388 0
    outer loop
      vertex 19.0808 11.0808 17
      vertex 20 10.7 20
      vertex 19.0808 11.0808 20
    endloop
  endfacet
  facet normal -0.382683 -0.92388 -0
    outer loop
      vertex 20 10.7 20
      vertex 19.0808 11.0808 17
      vertex 20 10.7 17
    endloop
  endfacet
  facet normal -0.382683 0.92388 0
    outer loop
      vertex 20 13.3 17
      vertex 19.0808 12.9192 20
      vertex 20 13.3 20
    endloop
  endfacet
  facet normal -0.382683 0.92388 0
    outer loop
      vertex 19.0808 12.9192 20
      vertex 20 13.3 17
      vertex 19.0808 12.9192 17
    endloop
  endfacet
  facet normal 0.382683 0.92388 -0
    outer loop
      vertex 20.9192 12.9192 17
      vertex 20 13.3 20
      vertex 20.9192 12.9192 20
    endloop
  endfacet
  facet normal 0.382683 0.92388 0
    outer loop
      vertex 20 13.3 20
      vertex 20.9192 12.9192 17
      vertex 20 13.3 17
    endloop
  endfacet
  facet normal -0.92388 0.382683 0
    outer loop
      vertex 18.7 12 17
      vertex 19.0808 12.9192 20
      vertex 19.0808 12.9192 17
    endloop
  endfacet
  facet normal -0.92388 0.382683 0
    outer loop
      vertex 19.0808 12.9192 20
      vertex 18.7 12 17
      vertex 18.7 12 20
    endloop
  endfacet
  facet normal 0 0 -1
    outer loop
      vertex 20.9192 11.0808 17
      vertex 20.9192 12.9192 17
      vertex 21.3 12 17
    endloop
  endfacet
  facet normal 0 0 -1
    outer loop
      vertex 20 10.7 17
      vertex 20.9192 12.9192 17
      vertex 20.9192 11.0808 17
    endloop
  endfacet
  facet normal 0 0 -1
    outer loop
      vertex 20 10.7 17
      vertex 20 13.3 17
      vertex 20.9192 12.9192 17
    endloop
  endfacet
  facet normal 0 0 -1
    outer loop
      vertex 19.0808 11.0808 17
      vertex 20 13.3 17
      vertex 20 10.7 17
    endloop
  endfacet
  facet normal 0 0 -1
    outer loop
      vertex 19.0808 11.0808 17
      vertex 19.0808 12.9192 17
      vertex 20 13.3 17
    endloop
  endfacet
  facet normal 0 -0 -1
    outer loop
      vertex 19.0808 12.9192 17
      vertex 19.0808 11.0808 17
      vertex 18.7 12 17
    endloop
  endfacet
  facet normal 0.92388 -0.382683 0
    outer loop
      vertex 20.9192 11.0808 20
      vertex 21.3 12 17
      vertex 21.3 12 20
    endloop
  endfacet
  facet normal 0.92388 -0.382683 0
    outer loop
      vertex 21.3 12 17
      vertex 20.9192 11.0808 20
      vertex 20.9192 11.0808 17
    endloop
  endfacet
  facet normal -0.92388 -0.382683 0
    outer loop
      vertex 19.0808 11.0808 17
      vertex 18.7 12 20
      vertex 18.7 12 17
    endloop
  endfacet
  facet normal -0.92388 -0.382683 0
    outer loop
      vertex 18.7 12 20
      vertex 19.0808 11.0808 17
      vertex 19.0808 11.0808 20
    endloop
  endfacet
  facet normal 0.382683 -0.92388 0
    outer loop
      vertex 20 10.7 17
      vertex 20.9192 11.0808 20
      vertex 20 10.7 20
    endloop
  endfacet
  facet normal 0.382683 -0.92388 0
    outer loop
      vertex 20.9192 11.0808 20
      vertex 20 10.7 17
      vertex 20.9192 11.0808 17
    endloop
  endfacet
  facet normal 0.92388 0.382683 0
    outer loop
      vertex 1.3 16 20
      vertex 0.919238 16.9192 17
      vertex 0.919238 16.9192 20
    endloop
  endfacet
  facet normal 0.92388 0.382683 0
    outer loop
      vertex 0.919238 16.9192 17
      vertex 1.3 16 20
      vertex 1.3 16 17
    endloop
  endfacet
  facet normal -0.382683 0.92388 0
    outer loop
      vertex 0 17.3 17
      vertex -0.919238 16.9192 20
      vertex 0 17.3 20
    endloop
  endfacet
  facet normal -0.382683 0.92388 0
    outer loop
      vertex -0.919238 16.9192 20
      vertex 0 17.3 17
      vertex -0.919238 16.9192 17
    endloop
  endfacet
  facet normal 0.382683 0.92388 -0
    outer loop
      vertex 0.919238 16.9192 17
      vertex 0 17.3 20
      vertex 0.919238 16.9192 20
    endloop
  endfacet
  facet normal 0.382683 0.92388 0
    outer loop
      vertex 0 17.3 20
      vertex 0.919238 16.9192 17
      vertex 0 17.3 17
    endloop
  endfacet
  facet normal -0.92388 0.382683 0
    outer loop
      vertex -1.3 16 17
      vertex -0.919238 16.9192 20
      vertex -0.919238 16.9192 17
    endloop
  endfacet
  facet normal -0.92388 0.382683 0
    outer loop
      vertex -0.919238 16.9192 20
      vertex -1.3 16 17
      vertex -1.3 16 20
    endloop
  endfacet
  facet normal 0 0 -1
    outer loop
      vertex 0.919238 15.0808 17
      vertex 0.919238 16.9192 17
      vertex 1.3 16 17
    endloop
  endfacet
  facet normal 0 0 -1
    outer loop
      vertex 0 14.7 17
      vertex 0.919238 16.9192 17
      vertex 0.919238 15.0808 17
    endloop
  endfacet
  facet normal 0 0 -1
    outer loop
      vertex 0 14.7 17
      vertex 0 17.3 17
      vertex 0.919238 16.9192 17
    endloop
  endfacet
  facet normal 0 0 -1
    outer loop
      vertex -0.919238 15.0808 17
      vertex 0 17.3 17
      vertex 0 14.7 17
    endloop
  endfacet
  facet normal 0 0 -1
    outer loop
      vertex -0.919238 15.0808 17
      vertex -0.919238 16.9192 17
      vertex 0 17.3 17
    endloop
  endfacet
  facet normal 0 -0 -1
    outer loop
      vertex -0.919238 16.9192 17
      vertex -0.919238 15.0808 17
      vertex -1.3 16 17
    endloop
  endfacet
  facet normal 0.92388 -0.382683 0
    outer loop
      vertex 0.919238 15.0808 20
      vertex 1.3 16 17
      vertex 1.3 16 20
    endloop
  endfacet
  facet normal 0.92388 -0.382683 0
    outer loop
      vertex 1.3 16 17
      vertex 0.919238 15.0808 20
      vertex 0.919238 15.0808 17
    endloop
  endfacet
  facet normal -0.382684 -0.923879 0
    outer loop
      vertex -0.919238 15.0808 17
      vertex 0 14.7 20
      vertex -0.919238 15.0808 20
    endloop
  endfacet
  facet normal -0.382684 -0.923879 -0
    outer loop
      vertex 0 14.7 20
      vertex -0.919238 15.0808 17
      vertex 0 14.7 17
    endloop
  endfacet
  facet normal -0.92388 -0.382683 0
    outer loop
      vertex -0.919238 15.0808 17
      vertex -1.3 16 20
      vertex -1.3 16 17
    endloop
  endfacet
  facet normal -0.92388 -0.382683 0
    outer loop
      vertex -1.3 16 20
      vertex -0.919238 15.0808 17
      vertex -0.919238 15.0808 20
    endloop
  endfacet
  facet normal 0.382684 -0.923879 0
    outer loop
      vertex 0 14.7 17
      vertex 0.919238 15.0808 20
      vertex 0 14.7 20
    endloop
  endfacet
  facet normal 0.382684 -0.923879 0
    outer loop
      vertex 0.919238 15.0808 20
      vertex 0 14.7 17
      vertex 0.919238 15.0808 17
    endloop
  endfacet
  facet normal 0.92388 0.382683 0
    outer loop
      vertex 21.3 16 20
      vertex 20.9192 16.9192 17
      vertex 20.9192 16.9192 20
    endloop
  endfacet
  facet normal 0.92388 0.382683 0
    outer loop
      vertex 20.9192 16.9192 17
      vertex 21.3 16 20
      vertex 21.3 16 17
    endloop
  endfacet
  facet normal -0.382683 0.92388 0
    outer loop
      vertex 20 17.3 17
      vertex 19.0808 16.9192 20
      vertex 20 17.3 20
    endloop
  endfacet
  facet normal -0.382683 0.92388 0
    outer loop
      vertex 19.0808 16.9192 20
      vertex 20 17.3 17
      vertex 19.0808 16.9192 17
    endloop
  endfacet
  facet normal 0.382683 0.92388 -0
    outer loop
      vertex 20.9192 16.9192 17
      vertex 20 17.3 20
      vertex 20.9192 16.9192 20
    endloop
  endfacet
  facet normal 0.382683 0.92388 0
    outer loop
      vertex 20 17.3 20
      vertex 20.9192 16.9192 17
      vertex 20 17.3 17
    endloop
  endfacet
  facet normal -0.92388 0.382683 0
    outer loop
      vertex 18.7 16 17
      vertex 19.0808 16.9192 20
      vertex 19.0808 16.9192 17
    endloop
  endfacet
  facet normal -0.92388 0.382683 0
    outer loop
      vertex 19.0808 16.9192 20
      vertex 18.7 16 17
      vertex 18.7 16 20
    endloop
  endfacet
  facet normal 0 0 -1
    outer loop
      vertex 20.9192 15.0808 17
      vertex 20.9192 16.9192 17
      vertex 21.3 16 17
    endloop
  endfacet
  facet normal 0 0 -1
    outer loop
      vertex 20 14.7 17
      vertex 20.9192 16.9192 17
      vertex 20.9192 15.0808 17
    endloop
  endfacet
  facet normal 0 0 -1
    outer loop
      vertex 20 14.7 17
      vertex 20 17.3 17
      vertex 20.9192 16.9192 17
    endloop
  endfacet
  facet normal 0 0 -1
    outer loop
      vertex 19.0808 15.0808 17
      vertex 20 17.3 17
      vertex 20 14.7 17
    endloop
  endfacet
  facet normal 0 0 -1
    outer loop
      vertex 19.0808 15.0808 17
      vertex 19.0808 16.9192 17
      vertex 20 17.3 17
    endloop
  endfacet
  facet normal 0 -0 -1
    outer loop
      vertex 19.0808 16.9192 17
      vertex 19.0808 15.0808 17
      vertex 18.7 16 17
    endloop
  endfacet
  facet normal -0.92388 -0.382683 0
    outer loop
      vertex 19.0808 15.0808 17
      vertex 18.7 16 20
      vertex 18.7 16 17
    endloop
  endfacet
  facet normal -0.92388 -0.382683 0
    outer loop
      vertex 18.7 16 20
      vertex 19.0808 15.0808 17
      vertex 19.0808 15.0808 20
    endloop
  endfacet
  facet normal 0.382683 -0.92388 0
    outer loop
      vertex 20 14.7 17
      vertex 20.9192 15.0808 20
      vertex 20 14.7 20
    endloop
  endfacet
  facet normal 0.382683 -0.92388 0
    outer loop
      vertex 20.9192 15.0808 20
      vertex 20 14.7 17
      vertex 20.9192 15.0808 17
    endloop
  endfacet
  facet normal -0.382683 -0.92388 0
    outer loop
      vertex 19.0808 15.0808 17
      vertex 20 14.7 20
      vertex 19.0808 15.0808 20
    endloop
  endfacet
  facet normal -0.382683 -0.92388 -0
    outer loop
      vertex 20 14.7 20
      vertex 19.0808 15.0808 17
      vertex 20 14.7 17
    endloop
  endfacet
  facet normal 0.92388 -0.382683 0
    outer loop
      vertex 20.9192 15.0808 20
      vertex 21.3 16 17
      vertex 21.3 16 20
    endloop
  endfacet
  facet normal 0.92388 -0.382683 0
    outer loop
      vertex 21.3 16 17
      vertex 20.9192 15.0808 20
      vertex 20.9192 15.0808 17
    endloop
  endfacet
  facet normal -1 0 0
    outer loop
      vertex -1.3 16 20
      vertex -1.3 25 23
      vertex -1.3 25 20
    endloop
  endfacet
  facet normal -1 0 0
    outer loop
      vertex -1.3 12 20
      vertex -1.3 25 23
      vertex -1.3 16 20
    endloop
  endfacet
  facet normal -1 0 0
    outer loop
      vertex -1.3 0 23
      vertex -1.3 12 20
      vertex -1.3 8 20
    endloop
  endfacet
  facet normal -1 0 0
    outer loop
      vertex -1.3 0 23
      vertex -1.3 8 20
      vertex -1.3 4 20
    endloop
  endfacet
  facet normal -1 0 0
    outer loop
      vertex -1.3 0 23
      vertex -1.3 4 20
      vertex -1.3 0 20
    endloop
  endfacet
  facet normal -1 0 0
    outer loop
      vertex -1.3 12 20
      vertex -1.3 0 23
      vertex -1.3 25 23
    endloop
  endfacet
  facet normal -0 0 1
    outer loop
      vertex 14.5 12 23
      vertex 21.3 0 23
      vertex 21.3 25 23
    endloop
  endfacet
  facet normal 0 0 1
    outer loop
      vertex 14.5 0 23
      vertex 21.3 0 23
      vertex 14.5 12 23
    endloop
  endfacet
  facet normal 0 0 1
    outer loop
      vertex 14.4645 -0.563999 23
      vertex 21.3 0 23
      vertex 14.5 0 23
    endloop
  endfacet
  facet normal 0 0 1
    outer loop
      vertex 21.3 0 23
      vertex 14.4645 -0.563999 23
      vertex 21.0531 -2.3494 23
    endloop
  endfacet
  facet normal 0 0 1
    outer loop
      vertex 21.0531 -2.3494 23
      vertex 14.3586 -1.1191 23
      vertex 20.3231 -4.59612 23
    endloop
  endfacet
  facet normal -0 0 1
    outer loop
      vertex 14.3586 -1.1191 23
      vertex 21.0531 -2.3494 23
      vertex 14.4645 -0.563999 23
    endloop
  endfacet
  facet normal 0 0 1
    outer loop
      vertex 21.3 25 23
      vertex 14.4645 12.564 23
      vertex 14.5 12 23
    endloop
  endfacet
  facet normal 0 0 1
    outer loop
      vertex 21.3 25 23
      vertex 14.3586 13.1191 23
      vertex 14.4645 12.564 23
    endloop
  endfacet
  facet normal 0 0 1
    outer loop
      vertex 21.3 25 23
      vertex 14.184 13.6566 23
      vertex 14.3586 13.1191 23
    endloop
  endfacet
  facet normal 0 0 1
    outer loop
      vertex 21.3 25 23
      vertex 13.9434 14.1679 23
      vertex 14.184 13.6566 23
    endloop
  endfacet
  facet normal 0 0 1
    outer loop
      vertex 21.3 25 23
      vertex 13.6406 14.645 23
      vertex 13.9434 14.1679 23
    endloop
  endfacet
  facet normal 0 0 1
    outer loop
      vertex 21.3 25 23
      vertex 13.2804 15.0805 23
      vertex 13.6406 14.645 23
    endloop
  endfacet
  facet normal 0 0 1
    outer loop
      vertex 21.3 25 23
      vertex 12.8684 15.4673 23
      vertex 13.2804 15.0805 23
    endloop
  endfacet
  facet normal 0 0 1
    outer loop
      vertex 21.3 25 23
      vertex 12.4112 15.7995 23
      vertex 12.8684 15.4673 23
    endloop
  endfacet
  facet normal 0 0 1
    outer loop
      vertex 21.3 25 23
      vertex 11.916 16.0717 23
      vertex 12.4112 15.7995 23
    endloop
  endfacet
  facet normal 0 0 1
    outer loop
      vertex 21.3 25 23
      vertex 11.3906 16.2798 23
      vertex 11.916 16.0717 23
    endloop
  endfacet
  facet normal 0 0 1
    outer loop
      vertex 21.3 25 23
      vertex 10.8432 16.4203 23
      vertex 11.3906 16.2798 23
    endloop
  endfacet
  facet normal 0 0 1
    outer loop
      vertex 21.3 25 23
      vertex 10.2826 16.4911 23
      vertex 10.8432 16.4203 23
    endloop
  endfacet
  facet normal 0 0 1
    outer loop
      vertex 21.3 25 23
      vertex 9.71744 16.4911 23
      vertex 10.2826 16.4911 23
    endloop
  endfacet
  facet normal -0 0 1
    outer loop
      vertex -1.3 25 23
      vertex 9.71744 16.4911 23
      vertex 21.3 25 23
    endloop
  endfacet
  facet normal 0 0 1
    outer loop
      vertex 9.71744 16.4911 23
      vertex -1.3 25 23
      vertex 9.15678 16.4203 23
    endloop
  endfacet
  facet normal 0 0 1
    outer loop
      vertex 9.15678 16.4203 23
      vertex -1.3 25 23
      vertex 8.60942 16.2798 23
    endloop
  endfacet
  facet normal 0 0 1
    outer loop
      vertex 8.60942 16.2798 23
      vertex -1.3 25 23
      vertex 8.08399 16.0717 23
    endloop
  endfacet
  facet normal 0 0 1
    outer loop
      vertex -1.3 0 23
      vertex 5.5 0 23
      vertex 5.5 12 23
    endloop
  endfacet
  facet normal 0 -0 1
    outer loop
      vertex -1.05307 -2.3494 23
      vertex 5.5 0 23
      vertex -1.3 0 23
    endloop
  endfacet
  facet normal 0 0 1
    outer loop
      vertex -1.3 25 23
      vertex 5.5 12 23
      vertex 5.53548 12.564 23
    endloop
  endfacet
  facet normal 0 0 1
    outer loop
      vertex 5.5 0 23
      vertex 2.43882 -8.39754 23
      vertex 4.35 -9.78609 23
    endloop
  endfacet
  facet normal 0 0 1
    outer loop
      vertex -1.3 25 23
      vertex 5.53548 12.564 23
      vertex 5.64138 13.1191 23
    endloop
  endfacet
  facet normal 0 0 1
    outer loop
      vertex 5.5 0 23
      vertex 0.858108 -6.64197 23
      vertex 2.43882 -8.39754 23
    endloop
  endfacet
  facet normal 0 0 1
    outer loop
      vertex -1.3 25 23
      vertex 5.64138 13.1191 23
      vertex 5.81601 13.6566 23
    endloop
  endfacet
  facet normal 0 0 1
    outer loop
      vertex 5.5 0 23
      vertex -0.323063 -4.59612 23
      vertex 0.858108 -6.64197 23
    endloop
  endfacet
  facet normal 0 0 1
    outer loop
      vertex 8.08399 16.0717 23
      vertex -1.3 25 23
      vertex 7.58878 15.7995 23
    endloop
  endfacet
  facet normal 0 0 1
    outer loop
      vertex -1.3 25 23
      vertex 7.13159 15.4673 23
      vertex 7.58878 15.7995 23
    endloop
  endfacet
  facet normal 0 0 1
    outer loop
      vertex -1.3 25 23
      vertex 6.71964 15.0805 23
      vertex 7.13159 15.4673 23
    endloop
  endfacet
  facet normal 0 0 1
    outer loop
      vertex -1.3 25 23
      vertex 6.35942 14.645 23
      vertex 6.71964 15.0805 23
    endloop
  endfacet
  facet normal 0 0 1
    outer loop
      vertex -1.3 25 23
      vertex 6.05662 14.1679 23
      vertex 6.35942 14.645 23
    endloop
  endfacet
  facet normal 0 0 1
    outer loop
      vertex -1.3 25 23
      vertex 5.81601 13.6566 23
      vertex 6.05662 14.1679 23
    endloop
  endfacet
  facet normal 0 0 1
    outer loop
      vertex 5.5 12 23
      vertex -1.3 25 23
      vertex -1.3 0 23
    endloop
  endfacet
  facet normal 0 0 1
    outer loop
      vertex 5.5 0 23
      vertex -1.05307 -2.3494 23
      vertex -0.323063 -4.59612 23
    endloop
  endfacet
  facet normal -0 0 1
    outer loop
      vertex 14.184 -1.65656 23
      vertex 20.3231 -4.59612 23
      vertex 14.3586 -1.1191 23
    endloop
  endfacet
  facet normal -0 0 1
    outer loop
      vertex 13.9434 -2.16789 23
      vertex 20.3231 -4.59612 23
      vertex 14.184 -1.65656 23
    endloop
  endfacet
  facet normal 0 0 1
    outer loop
      vertex 20.3231 -4.59612 23
      vertex 13.9434 -2.16789 23
      vertex 19.1419 -6.64197 23
    endloop
  endfacet
  facet normal -0 0 1
    outer loop
      vertex 13.6406 -2.64503 23
      vertex 19.1419 -6.64197 23
      vertex 13.9434 -2.16789 23
    endloop
  endfacet
  facet normal -0 0 1
    outer loop
      vertex 13.2804 -3.08046 23
      vertex 19.1419 -6.64197 23
      vertex 13.6406 -2.64503 23
    endloop
  endfacet
  facet normal 0 0 1
    outer loop
      vertex 19.1419 -6.64197 23
      vertex 13.2804 -3.08046 23
      vertex 17.5612 -8.39754 23
    endloop
  endfacet
  facet normal -0 0 1
    outer loop
      vertex 12.8684 -3.46731 23
      vertex 17.5612 -8.39754 23
      vertex 13.2804 -3.08046 23
    endloop
  endfacet
  facet normal 0 0 1
    outer loop
      vertex 17.5612 -8.39754 23
      vertex 12.8684 -3.46731 23
      vertex 15.65 -9.78609 23
    endloop
  endfacet
  facet normal -0 0 1
    outer loop
      vertex 12.4112 -3.79947 23
      vertex 15.65 -9.78609 23
      vertex 12.8684 -3.46731 23
    endloop
  endfacet
  facet normal -0 0 1
    outer loop
      vertex 11.916 -4.07172 23
      vertex 15.65 -9.78609 23
      vertex 12.4112 -3.79947 23
    endloop
  endfacet
  facet normal 0 0 1
    outer loop
      vertex 15.65 -9.78609 23
      vertex 11.916 -4.07172 23
      vertex 13.4919 -10.7469 23
    endloop
  endfacet
  facet normal -0 0 1
    outer loop
      vertex 11.3906 -4.27975 23
      vertex 13.4919 -10.7469 23
      vertex 11.916 -4.07172 23
    endloop
  endfacet
  facet normal -0 0 1
    outer loop
      vertex 10.8432 -4.42029 23
      vertex 13.4919 -10.7469 23
      vertex 11.3906 -4.27975 23
    endloop
  endfacet
  facet normal 0 0 1
    outer loop
      vertex 13.4919 -10.7469 23
      vertex 10.8432 -4.42029 23
      vertex 11.1812 -11.2381 23
    endloop
  endfacet
  facet normal -0 0 1
    outer loop
      vertex 10.2826 -4.49112 23
      vertex 11.1812 -11.2381 23
      vertex 10.8432 -4.42029 23
    endloop
  endfacet
  facet normal -0 0 1
    outer loop
      vertex 9.71744 -4.49112 23
      vertex 11.1812 -11.2381 23
      vertex 10.2826 -4.49112 23
    endloop
  endfacet
  facet normal 0 0 1
    outer loop
      vertex 8.81883 -11.2381 23
      vertex 9.71744 -4.49112 23
      vertex 9.15678 -4.42029 23
    endloop
  endfacet
  facet normal 0 0 1
    outer loop
      vertex 9.71744 -4.49112 23
      vertex 8.81883 -11.2381 23
      vertex 11.1812 -11.2381 23
    endloop
  endfacet
  facet normal 0 0 1
    outer loop
      vertex 6.50811 -10.7469 23
      vertex 9.15678 -4.42029 23
      vertex 8.60942 -4.27975 23
    endloop
  endfacet
  facet normal 0 0 1
    outer loop
      vertex 6.50811 -10.7469 23
      vertex 8.60942 -4.27975 23
      vertex 8.08399 -4.07172 23
    endloop
  endfacet
  facet normal 0 0 1
    outer loop
      vertex 4.35 -9.78609 23
      vertex 8.08399 -4.07172 23
      vertex 7.58878 -3.79947 23
    endloop
  endfacet
  facet normal 0 0 1
    outer loop
      vertex 4.35 -9.78609 23
      vertex 7.58878 -3.79947 23
      vertex 7.13159 -3.46731 23
    endloop
  endfacet
  facet normal 0 0 1
    outer loop
      vertex 4.35 -9.78609 23
      vertex 7.13159 -3.46731 23
      vertex 6.71964 -3.08046 23
    endloop
  endfacet
  facet normal 0 0 1
    outer loop
      vertex 9.15678 -4.42029 23
      vertex 6.50811 -10.7469 23
      vertex 8.81883 -11.2381 23
    endloop
  endfacet
  facet normal 0 0 1
    outer loop
      vertex 4.35 -9.78609 23
      vertex 6.71964 -3.08046 23
      vertex 6.35942 -2.64503 23
    endloop
  endfacet
  facet normal 0 0 1
    outer loop
      vertex 4.35 -9.78609 23
      vertex 6.35942 -2.64503 23
      vertex 6.05662 -2.16789 23
    endloop
  endfacet
  facet normal 0 0 1
    outer loop
      vertex 4.35 -9.78609 23
      vertex 6.05662 -2.16789 23
      vertex 5.81601 -1.65656 23
    endloop
  endfacet
  facet normal 0 0 1
    outer loop
      vertex 4.35 -9.78609 23
      vertex 5.81601 -1.65656 23
      vertex 5.64138 -1.1191 23
    endloop
  endfacet
  facet normal 0 0 1
    outer loop
      vertex 4.35 -9.78609 23
      vertex 5.64138 -1.1191 23
      vertex 5.53548 -0.563999 23
    endloop
  endfacet
  facet normal 0 0 1
    outer loop
      vertex 8.08399 -4.07172 23
      vertex 4.35 -9.78609 23
      vertex 6.50811 -10.7469 23
    endloop
  endfacet
  facet normal 0 0 1
    outer loop
      vertex 4.35 -9.78609 23
      vertex 5.53548 -0.563999 23
      vertex 5.5 0 23
    endloop
  endfacet
  facet normal 1 0 0
    outer loop
      vertex 21.3 25 23
      vertex 21.3 16 20
      vertex 21.3 25 20
    endloop
  endfacet
  facet normal 1 0 0
    outer loop
      vertex 21.3 25 23
      vertex 21.3 12 20
      vertex 21.3 16 20
    endloop
  endfacet
  facet normal 1 -0 0
    outer loop
      vertex 21.3 0 23
      vertex 21.3 12 20
      vertex 21.3 25 23
    endloop
  endfacet
  facet normal 1 0 0
    outer loop
      vertex 21.3 12 20
      vertex 21.3 0 23
      vertex 21.3 8 20
    endloop
  endfacet
  facet normal 1 0 0
    outer loop
      vertex 21.3 8 20
      vertex 21.3 0 23
      vertex 21.3 4 20
    endloop
  endfacet
  facet normal 1 0 0
    outer loop
      vertex 21.3 4 20
      vertex 21.3 0 23
      vertex 21.3 0 20
    endloop
  endfacet
  facet normal 0 1 -0
    outer loop
      vertex 20 25 16.5
      vertex 0 25 20
      vertex 20 25 20
    endloop
  endfacet
  facet normal 0 1 0
    outer loop
      vertex 0 25 20
      vertex 20 25 16.5
      vertex 0 25 16.5
    endloop
  endfacet
  facet normal 0 1 0
    outer loop
      vertex 20 25 20
      vertex 21.3 25 23
      vertex 21.3 25 20
    endloop
  endfacet
  facet normal 0 1 0
    outer loop
      vertex 21.3 25 23
      vertex 20 25 20
      vertex -1.3 25 23
    endloop
  endfacet
  facet normal 0 1 -0
    outer loop
      vertex 0 25 20
      vertex -1.3 25 23
      vertex 20 25 20
    endloop
  endfacet
  facet normal 0 1 0
    outer loop
      vertex -1.3 25 23
      vertex 0 25 20
      vertex -1.3 25 20
    endloop
  endfacet
  facet normal -1 0 0
    outer loop
      vertex 0 20.5 16.5
      vertex 0 25 20
      vertex 0 25 16.5
    endloop
  endfacet
  facet normal -1 -0 0
    outer loop
      vertex 0 25 20
      vertex 0 20.5 16.5
      vertex 0 20.5 20
    endloop
  endfacet
  facet normal 1 -0 0
    outer loop
      vertex 20 20.5 20
      vertex 20 25 16.5
      vertex 20 25 20
    endloop
  endfacet
  facet normal 1 0 0
    outer loop
      vertex 20 25 16.5
      vertex 20 20.5 20
      vertex 20 20.5 16.5
    endloop
  endfacet
  facet normal 0 0 -1
    outer loop
      vertex 0 20.5 16.5
      vertex 20 25 16.5
      vertex 20 20.5 16.5
    endloop
  endfacet
  facet normal -0 0 -1
    outer loop
      vertex 20 25 16.5
      vertex 0 20.5 16.5
      vertex 0 25 16.5
    endloop
  endfacet
  facet normal 0 -1 0
    outer loop
      vertex 0 20.5 16.5
      vertex 20 20.5 20
      vertex 0 20.5 20
    endloop
  endfacet
  facet normal 0 -1 -0
    outer loop
      vertex 20 20.5 20
      vertex 0 20.5 16.5
      vertex 20 20.5 16.5
    endloop
  endfacet
  facet normal 0 -1 0
    outer loop
      vertex 8.81883 -11.2381 20
      vertex 11.1812 -11.2381 23
      vertex 8.81883 -11.2381 23
    endloop
  endfacet
  facet normal 0 -1 -0
    outer loop
      vertex 11.1812 -11.2381 23
      vertex 8.81883 -11.2381 20
      vertex 11.1812 -11.2381 20
    endloop
  endfacet
  facet normal 0.866025 -0.5 0
    outer loop
      vertex 19.1419 -6.64197 23
      vertex 20.3231 -4.59612 20
      vertex 20.3231 -4.59612 23
    endloop
  endfacet
  facet normal 0.866025 -0.5 0
    outer loop
      vertex 20.3231 -4.59612 20
      vertex 19.1419 -6.64197 23
      vertex 19.1419 -6.64197 20
    endloop
  endfacet
  facet normal 0.994522 -0.104529 0
    outer loop
      vertex 21.0531 -2.3494 23
      vertex 21.3 0 20
      vertex 21.3 0 23
    endloop
  endfacet
  facet normal 0.994522 -0.104529 0
    outer loop
      vertex 21.3 0 20
      vertex 21.0531 -2.3494 23
      vertex 21.0531 -2.3494 20
    endloop
  endfacet
  facet normal 0.587785 -0.809017 0
    outer loop
      vertex 15.65 -9.78609 20
      vertex 17.5612 -8.39754 23
      vertex 15.65 -9.78609 23
    endloop
  endfacet
  facet normal 0.587785 -0.809017 0
    outer loop
      vertex 17.5612 -8.39754 23
      vertex 15.65 -9.78609 20
      vertex 17.5612 -8.39754 20
    endloop
  endfacet
  facet normal 0.743145 -0.66913 0
    outer loop
      vertex 17.5612 -8.39754 23
      vertex 19.1419 -6.64197 20
      vertex 19.1419 -6.64197 23
    endloop
  endfacet
  facet normal 0.743145 -0.66913 0
    outer loop
      vertex 19.1419 -6.64197 20
      vertex 17.5612 -8.39754 23
      vertex 17.5612 -8.39754 20
    endloop
  endfacet
  facet normal 0.951057 -0.309017 0
    outer loop
      vertex 20.3231 -4.59612 23
      vertex 21.0531 -2.3494 20
      vertex 21.0531 -2.3494 23
    endloop
  endfacet
  facet normal 0.951057 -0.309017 0
    outer loop
      vertex 21.0531 -2.3494 20
      vertex 20.3231 -4.59612 23
      vertex 20.3231 -4.59612 20
    endloop
  endfacet
  facet normal -0.587785 -0.809017 0
    outer loop
      vertex 2.43882 -8.39754 20
      vertex 4.35 -9.78609 23
      vertex 2.43882 -8.39754 23
    endloop
  endfacet
  facet normal -0.587785 -0.809017 -0
    outer loop
      vertex 4.35 -9.78609 23
      vertex 2.43882 -8.39754 20
      vertex 4.35 -9.78609 20
    endloop
  endfacet
  facet normal -0.866026 -0.5 0
    outer loop
      vertex 0.858108 -6.64197 20
      vertex -0.323063 -4.59612 23
      vertex -0.323063 -4.59612 20
    endloop
  endfacet
  facet normal -0.866026 -0.5 0
    outer loop
      vertex -0.323063 -4.59612 23
      vertex 0.858108 -6.64197 20
      vertex 0.858108 -6.64197 23
    endloop
  endfacet
  facet normal -0.743145 -0.66913 0
    outer loop
      vertex 2.43882 -8.39754 20
      vertex 0.858108 -6.64197 23
      vertex 0.858108 -6.64197 20
    endloop
  endfacet
  facet normal -0.743145 -0.66913 0
    outer loop
      vertex 0.858108 -6.64197 23
      vertex 2.43882 -8.39754 20
      vertex 2.43882 -8.39754 23
    endloop
  endfacet
  facet normal -0.994522 -0.104528 0
    outer loop
      vertex -1.05307 -2.3494 20
      vertex -1.3 0 23
      vertex -1.3 0 20
    endloop
  endfacet
  facet normal -0.994522 -0.104528 0
    outer loop
      vertex -1.3 0 23
      vertex -1.05307 -2.3494 20
      vertex -1.05307 -2.3494 23
    endloop
  endfacet
  facet normal -0.207912 -0.978148 0
    outer loop
      vertex 6.50811 -10.7469 20
      vertex 8.81883 -11.2381 23
      vertex 6.50811 -10.7469 23
    endloop
  endfacet
  facet normal -0.207912 -0.978148 -0
    outer loop
      vertex 8.81883 -11.2381 23
      vertex 6.50811 -10.7469 20
      vertex 8.81883 -11.2381 20
    endloop
  endfacet
  facet normal -0.951057 -0.309017 0
    outer loop
      vertex -0.323063 -4.59612 20
      vertex -1.05307 -2.3494 23
      vertex -1.05307 -2.3494 20
    endloop
  endfacet
  facet normal -0.951057 -0.309017 0
    outer loop
      vertex -1.05307 -2.3494 23
      vertex -0.323063 -4.59612 20
      vertex -0.323063 -4.59612 23
    endloop
  endfacet
  facet normal 0.406736 -0.913546 0
    outer loop
      vertex 13.4919 -10.7469 20
      vertex 15.65 -9.78609 23
      vertex 13.4919 -10.7469 23
    endloop
  endfacet
  facet normal 0.406736 -0.913546 0
    outer loop
      vertex 15.65 -9.78609 23
      vertex 13.4919 -10.7469 20
      vertex 15.65 -9.78609 20
    endloop
  endfacet
  facet normal 0.207912 -0.978148 0
    outer loop
      vertex 11.1812 -11.2381 20
      vertex 13.4919 -10.7469 23
      vertex 11.1812 -11.2381 23
    endloop
  endfacet
  facet normal 0.207912 -0.978148 0
    outer loop
      vertex 13.4919 -10.7469 23
      vertex 11.1812 -11.2381 20
      vertex 13.4919 -10.7469 20
    endloop
  endfacet
  facet normal -0.406736 -0.913546 0
    outer loop
      vertex 4.35 -9.78609 20
      vertex 6.50811 -10.7469 23
      vertex 4.35 -9.78609 23
    endloop
  endfacet
  facet normal -0.406736 -0.913546 -0
    outer loop
      vertex 6.50811 -10.7469 23
      vertex 4.35 -9.78609 20
      vertex 6.50811 -10.7469 20
    endloop
  endfacet
  facet normal 0.982287 0.187382 0
    outer loop
      vertex 5.64138 -1.1191 23
      vertex 5.53548 -0.563999 20
      vertex 5.53548 -0.563999 23
    endloop
  endfacet
  facet normal 0.982287 0.187382 0
    outer loop
      vertex 5.53548 -0.563999 20
      vertex 5.64138 -1.1191 23
      vertex 5.64138 -1.1191 20
    endloop
  endfacet
  facet normal 0.998027 -0.0627897 0
    outer loop
      vertex 5.5 12 23
      vertex 5.53548 12.564 20
      vertex 5.53548 12.564 23
    endloop
  endfacet
  facet normal 0.998027 -0.0627897 0
    outer loop
      vertex 5.53548 12.564 20
      vertex 5.5 12 23
      vertex 5.5 12 20
    endloop
  endfacet
  facet normal -0.998027 -0.0627914 0
    outer loop
      vertex 14.5 12 20
      vertex 14.4645 12.564 23
      vertex 14.4645 12.564 20
    endloop
  endfacet
  facet normal -0.998027 -0.0627914 0
    outer loop
      vertex 14.4645 12.564 23
      vertex 14.5 12 20
      vertex 14.5 12 23
    endloop
  endfacet
  facet normal -0.125333 -0.992115 0
    outer loop
      vertex 10.2826 16.4911 20
      vertex 10.8432 16.4203 23
      vertex 10.2826 16.4911 23
    endloop
  endfacet
  facet normal -0.125333 -0.992115 -0
    outer loop
      vertex 10.8432 16.4203 23
      vertex 10.2826 16.4911 20
      vertex 10.8432 16.4203 20
    endloop
  endfacet
  facet normal 1 -0 0
    outer loop
      vertex 5.5 0 23
      vertex 5.5 12 20
      vertex 5.5 12 23
    endloop
  endfacet
  facet normal 1 0 0
    outer loop
      vertex 5.5 12 20
      vertex 5.5 0 23
      vertex 5.5 0 20
    endloop
  endfacet
  facet normal 0.951056 -0.309017 0
    outer loop
      vertex 5.64138 13.1191 23
      vertex 5.81601 13.6566 20
      vertex 5.81601 13.6566 23
    endloop
  endfacet
  facet normal 0.951056 -0.309017 0
    outer loop
      vertex 5.81601 13.6566 20
      vertex 5.64138 13.1191 23
      vertex 5.64138 13.1191 20
    endloop
  endfacet
  facet normal -0.982287 -0.187382 0
    outer loop
      vertex 14.4645 12.564 20
      vertex 14.3586 13.1191 23
      vertex 14.3586 13.1191 20
    endloop
  endfacet
  facet normal -0.982287 -0.187382 0
    outer loop
      vertex 14.3586 13.1191 23
      vertex 14.4645 12.564 20
      vertex 14.4645 12.564 23
    endloop
  endfacet
  facet normal -1 0 0
    outer loop
      vertex 14.5 0 20
      vertex 14.5 12 23
      vertex 14.5 12 20
    endloop
  endfacet
  facet normal -1 -0 0
    outer loop
      vertex 14.5 12 23
      vertex 14.5 0 20
      vertex 14.5 0 23
    endloop
  endfacet
  facet normal -0.770513 0.637424 0
    outer loop
      vertex 13.2804 -3.08046 20
      vertex 13.6406 -2.64503 23
      vertex 13.6406 -2.64503 20
    endloop
  endfacet
  facet normal -0.770513 0.637424 0
    outer loop
      vertex 13.6406 -2.64503 23
      vertex 13.2804 -3.08046 20
      vertex 13.2804 -3.08046 23
    endloop
  endfacet
  facet normal 0.844328 0.535827 0
    outer loop
      vertex 6.35942 -2.64503 23
      vertex 6.05662 -2.16789 20
      vertex 6.05662 -2.16789 23
    endloop
  endfacet
  facet normal 0.844328 0.535827 0
    outer loop
      vertex 6.05662 -2.16789 20
      vertex 6.35942 -2.64503 23
      vertex 6.35942 -2.64503 20
    endloop
  endfacet
  facet normal 0.770513 0.637424 0
    outer loop
      vertex 6.71964 -3.08046 23
      vertex 6.35942 -2.64503 20
      vertex 6.35942 -2.64503 23
    endloop
  endfacet
  facet normal 0.770513 0.637424 0
    outer loop
      vertex 6.35942 -2.64503 20
      vertex 6.71964 -3.08046 23
      vertex 6.71964 -3.08046 20
    endloop
  endfacet
  facet normal 0.684547 0.728969 -0
    outer loop
      vertex 7.13159 -3.46731 20
      vertex 6.71964 -3.08046 23
      vertex 7.13159 -3.46731 23
    endloop
  endfacet
  facet normal 0.684547 0.728969 0
    outer loop
      vertex 6.71964 -3.08046 23
      vertex 7.13159 -3.46731 20
      vertex 6.71964 -3.08046 20
    endloop
  endfacet
  facet normal 0.982287 -0.187382 0
    outer loop
      vertex 5.53548 12.564 23
      vertex 5.64138 13.1191 20
      vertex 5.64138 13.1191 23
    endloop
  endfacet
  facet normal 0.982287 -0.187382 0
    outer loop
      vertex 5.64138 13.1191 20
      vertex 5.53548 12.564 23
      vertex 5.53548 12.564 20
    endloop
  endfacet
  facet normal 0.844328 -0.535827 0
    outer loop
      vertex 6.05662 14.1679 23
      vertex 6.35942 14.645 20
      vertex 6.35942 14.645 23
    endloop
  endfacet
  facet normal 0.844328 -0.535827 0
    outer loop
      vertex 6.35942 14.645 20
      vertex 6.05662 14.1679 23
      vertex 6.05662 14.1679 20
    endloop
  endfacet
  facet normal 0.998027 0.0627897 0
    outer loop
      vertex 5.53548 -0.563999 23
      vertex 5.5 0 20
      vertex 5.5 0 23
    endloop
  endfacet
  facet normal 0.998027 0.0627897 0
    outer loop
      vertex 5.5 0 20
      vertex 5.53548 -0.563999 23
      vertex 5.53548 -0.563999 20
    endloop
  endfacet
  facet normal 0.368128 -0.929775 0
    outer loop
      vertex 8.08399 16.0717 20
      vertex 8.60942 16.2798 23
      vertex 8.08399 16.0717 23
    endloop
  endfacet
  facet normal 0.368128 -0.929775 0
    outer loop
      vertex 8.60942 16.2798 23
      vertex 8.08399 16.0717 20
      vertex 8.60942 16.2798 20
    endloop
  endfacet
  facet normal -0.904827 0.425779 0
    outer loop
      vertex 13.9434 -2.16789 20
      vertex 14.184 -1.65656 23
      vertex 14.184 -1.65656 20
    endloop
  endfacet
  facet normal -0.904827 0.425779 0
    outer loop
      vertex 14.184 -1.65656 23
      vertex 13.9434 -2.16789 20
      vertex 13.9434 -2.16789 23
    endloop
  endfacet
  facet normal -0.982287 0.187382 0
    outer loop
      vertex 14.3586 -1.1191 20
      vertex 14.4645 -0.563999 23
      vertex 14.4645 -0.563999 20
    endloop
  endfacet
  facet normal -0.982287 0.187382 0
    outer loop
      vertex 14.4645 -0.563999 23
      vertex 14.3586 -1.1191 20
      vertex 14.3586 -1.1191 23
    endloop
  endfacet
  facet normal -0.998027 0.0627914 0
    outer loop
      vertex 14.4645 -0.563999 20
      vertex 14.5 0 23
      vertex 14.5 0 20
    endloop
  endfacet
  facet normal -0.998027 0.0627914 0
    outer loop
      vertex 14.5 0 23
      vertex 14.4645 -0.563999 20
      vertex 14.4645 -0.563999 23
    endloop
  endfacet
  facet normal -0.248689 0.968583 0
    outer loop
      vertex 11.3906 -4.27975 20
      vertex 10.8432 -4.42029 23
      vertex 11.3906 -4.27975 23
    endloop
  endfacet
  facet normal -0.248689 0.968583 0
    outer loop
      vertex 10.8432 -4.42029 23
      vertex 11.3906 -4.27975 20
      vertex 10.8432 -4.42029 20
    endloop
  endfacet
  facet normal -0.368125 0.929776 0
    outer loop
      vertex 11.916 -4.07172 20
      vertex 11.3906 -4.27975 23
      vertex 11.916 -4.07172 23
    endloop
  endfacet
  facet normal -0.368125 0.929776 0
    outer loop
      vertex 11.3906 -4.27975 23
      vertex 11.916 -4.07172 20
      vertex 11.3906 -4.27975 20
    endloop
  endfacet
  facet normal -0.481754 0.876307 0
    outer loop
      vertex 12.4112 -3.79947 20
      vertex 11.916 -4.07172 23
      vertex 12.4112 -3.79947 23
    endloop
  endfacet
  facet normal -0.481754 0.876307 0
    outer loop
      vertex 11.916 -4.07172 23
      vertex 12.4112 -3.79947 20
      vertex 11.916 -4.07172 20
    endloop
  endfacet
  facet normal 0.481754 0.876307 -0
    outer loop
      vertex 8.08399 -4.07172 20
      vertex 7.58878 -3.79947 23
      vertex 8.08399 -4.07172 23
    endloop
  endfacet
  facet normal 0.481754 0.876307 0
    outer loop
      vertex 7.58878 -3.79947 23
      vertex 8.08399 -4.07172 20
      vertex 7.58878 -3.79947 20
    endloop
  endfacet
  facet normal 0.368125 0.929776 -0
    outer loop
      vertex 8.60942 -4.27975 20
      vertex 8.08399 -4.07172 23
      vertex 8.60942 -4.27975 23
    endloop
  endfacet
  facet normal 0.368125 0.929776 0
    outer loop
      vertex 8.08399 -4.07172 23
      vertex 8.60942 -4.27975 20
      vertex 8.08399 -4.07172 20
    endloop
  endfacet
  facet normal -0.844328 0.535827 0
    outer loop
      vertex 13.6406 -2.64503 20
      vertex 13.9434 -2.16789 23
      vertex 13.9434 -2.16789 20
    endloop
  endfacet
  facet normal -0.844328 0.535827 0
    outer loop
      vertex 13.9434 -2.16789 23
      vertex 13.6406 -2.64503 20
      vertex 13.6406 -2.64503 23
    endloop
  endfacet
  facet normal -0.587785 0.809017 0
    outer loop
      vertex 12.8684 -3.46731 20
      vertex 12.4112 -3.79947 23
      vertex 12.8684 -3.46731 23
    endloop
  endfacet
  facet normal -0.587785 0.809017 0
    outer loop
      vertex 12.4112 -3.79947 23
      vertex 12.8684 -3.46731 20
      vertex 12.4112 -3.79947 20
    endloop
  endfacet
  facet normal 0.587785 0.809017 -0
    outer loop
      vertex 7.58878 -3.79947 20
      vertex 7.13159 -3.46731 23
      vertex 7.58878 -3.79947 23
    endloop
  endfacet
  facet normal 0.587785 0.809017 0
    outer loop
      vertex 7.13159 -3.46731 23
      vertex 7.58878 -3.79947 20
      vertex 7.13159 -3.46731 20
    endloop
  endfacet
  facet normal 0.904827 0.425779 0
    outer loop
      vertex 6.05662 -2.16789 23
      vertex 5.81601 -1.65656 20
      vertex 5.81601 -1.65656 23
    endloop
  endfacet
  facet normal 0.904827 0.425779 0
    outer loop
      vertex 5.81601 -1.65656 20
      vertex 6.05662 -2.16789 23
      vertex 6.05662 -2.16789 20
    endloop
  endfacet
  facet normal 0.904827 -0.425779 0
    outer loop
      vertex 5.81601 13.6566 23
      vertex 6.05662 14.1679 20
      vertex 6.05662 14.1679 23
    endloop
  endfacet
  facet normal 0.904827 -0.425779 0
    outer loop
      vertex 6.05662 14.1679 20
      vertex 5.81601 13.6566 23
      vertex 5.81601 13.6566 20
    endloop
  endfacet
  facet normal 0.770513 -0.637424 0
    outer loop
      vertex 6.35942 14.645 23
      vertex 6.71964 15.0805 20
      vertex 6.71964 15.0805 23
    endloop
  endfacet
  facet normal 0.770513 -0.637424 0
    outer loop
      vertex 6.71964 15.0805 20
      vertex 6.35942 14.645 23
      vertex 6.35942 14.645 20
    endloop
  endfacet
  facet normal 0.125333 -0.992115 0
    outer loop
      vertex 9.15678 16.4203 20
      vertex 9.71744 16.4911 23
      vertex 9.15678 16.4203 23
    endloop
  endfacet
  facet normal 0.125333 -0.992115 0
    outer loop
      vertex 9.71744 16.4911 23
      vertex 9.15678 16.4203 20
      vertex 9.71744 16.4911 20
    endloop
  endfacet
  facet normal 0 -1 0
    outer loop
      vertex 9.71744 16.4911 20
      vertex 10.2826 16.4911 23
      vertex 9.71744 16.4911 23
    endloop
  endfacet
  facet normal 0 -1 -0
    outer loop
      vertex 10.2826 16.4911 23
      vertex 9.71744 16.4911 20
      vertex 10.2826 16.4911 20
    endloop
  endfacet
  facet normal 0.481752 -0.876307 0
    outer loop
      vertex 7.58878 15.7995 20
      vertex 8.08399 16.0717 23
      vertex 7.58878 15.7995 23
    endloop
  endfacet
  facet normal 0.481752 -0.876307 0
    outer loop
      vertex 8.08399 16.0717 23
      vertex 7.58878 15.7995 20
      vertex 8.08399 16.0717 20
    endloop
  endfacet
  facet normal 0.587785 -0.809017 0
    outer loop
      vertex 7.13159 15.4673 20
      vertex 7.58878 15.7995 23
      vertex 7.13159 15.4673 23
    endloop
  endfacet
  facet normal 0.587785 -0.809017 0
    outer loop
      vertex 7.58878 15.7995 23
      vertex 7.13159 15.4673 20
      vertex 7.58878 15.7995 20
    endloop
  endfacet
  facet normal 0.248688 -0.968584 0
    outer loop
      vertex 8.60942 16.2798 20
      vertex 9.15678 16.4203 23
      vertex 8.60942 16.2798 23
    endloop
  endfacet
  facet normal 0.248688 -0.968584 0
    outer loop
      vertex 9.15678 16.4203 23
      vertex 8.60942 16.2798 20
      vertex 9.15678 16.4203 20
    endloop
  endfacet
  facet normal -0.951056 -0.309017 0
    outer loop
      vertex 14.3586 13.1191 20
      vertex 14.184 13.6566 23
      vertex 14.184 13.6566 20
    endloop
  endfacet
  facet normal -0.951056 -0.309017 0
    outer loop
      vertex 14.184 13.6566 23
      vertex 14.3586 13.1191 20
      vertex 14.3586 13.1191 23
    endloop
  endfacet
  facet normal 0.125333 0.992115 -0
    outer loop
      vertex 9.71744 -4.49112 20
      vertex 9.15678 -4.42029 23
      vertex 9.71744 -4.49112 23
    endloop
  endfacet
  facet normal 0.125333 0.992115 0
    outer loop
      vertex 9.15678 -4.42029 23
      vertex 9.71744 -4.49112 20
      vertex 9.15678 -4.42029 20
    endloop
  endfacet
  facet normal -0.684547 0.728969 0
    outer loop
      vertex 13.2804 -3.08046 20
      vertex 12.8684 -3.46731 23
      vertex 13.2804 -3.08046 23
    endloop
  endfacet
  facet normal -0.684547 0.728969 0
    outer loop
      vertex 12.8684 -3.46731 23
      vertex 13.2804 -3.08046 20
      vertex 12.8684 -3.46731 20
    endloop
  endfacet
  facet normal 0.951056 0.309017 0
    outer loop
      vertex 5.81601 -1.65656 23
      vertex 5.64138 -1.1191 20
      vertex 5.64138 -1.1191 23
    endloop
  endfacet
  facet normal 0.951056 0.309017 0
    outer loop
      vertex 5.64138 -1.1191 20
      vertex 5.81601 -1.65656 23
      vertex 5.81601 -1.65656 20
    endloop
  endfacet
  facet normal 0.684547 -0.728969 0
    outer loop
      vertex 6.71964 15.0805 20
      vertex 7.13159 15.4673 23
      vertex 6.71964 15.0805 23
    endloop
  endfacet
  facet normal 0.684547 -0.728969 0
    outer loop
      vertex 7.13159 15.4673 23
      vertex 6.71964 15.0805 20
      vertex 7.13159 15.4673 20
    endloop
  endfacet
  facet normal -0.770513 -0.637424 0
    outer loop
      vertex 13.6406 14.645 20
      vertex 13.2804 15.0805 23
      vertex 13.2804 15.0805 20
    endloop
  endfacet
  facet normal -0.770513 -0.637424 0
    outer loop
      vertex 13.2804 15.0805 23
      vertex 13.6406 14.645 20
      vertex 13.6406 14.645 23
    endloop
  endfacet
  facet normal -0.481752 -0.876307 0
    outer loop
      vertex 11.916 16.0717 20
      vertex 12.4112 15.7995 23
      vertex 11.916 16.0717 23
    endloop
  endfacet
  facet normal -0.481752 -0.876307 -0
    outer loop
      vertex 12.4112 15.7995 23
      vertex 11.916 16.0717 20
      vertex 12.4112 15.7995 20
    endloop
  endfacet
  facet normal -0.904827 -0.425779 0
    outer loop
      vertex 14.184 13.6566 20
      vertex 13.9434 14.1679 23
      vertex 13.9434 14.1679 20
    endloop
  endfacet
  facet normal -0.904827 -0.425779 0
    outer loop
      vertex 13.9434 14.1679 23
      vertex 14.184 13.6566 20
      vertex 14.184 13.6566 23
    endloop
  endfacet
  facet normal -0.951056 0.309017 0
    outer loop
      vertex 14.184 -1.65656 20
      vertex 14.3586 -1.1191 23
      vertex 14.3586 -1.1191 20
    endloop
  endfacet
  facet normal -0.951056 0.309017 0
    outer loop
      vertex 14.3586 -1.1191 23
      vertex 14.184 -1.65656 20
      vertex 14.184 -1.65656 23
    endloop
  endfacet
  facet normal 0.248689 0.968583 -0
    outer loop
      vertex 9.15678 -4.42029 20
      vertex 8.60942 -4.27975 23
      vertex 9.15678 -4.42029 23
    endloop
  endfacet
  facet normal 0.248689 0.968583 0
    outer loop
      vertex 8.60942 -4.27975 23
      vertex 9.15678 -4.42029 20
      vertex 8.60942 -4.27975 20
    endloop
  endfacet
  facet normal 0 1 -0
    outer loop
      vertex 10.2826 -4.49112 20
      vertex 9.71744 -4.49112 23
      vertex 10.2826 -4.49112 23
    endloop
  endfacet
  facet normal 0 1 0
    outer loop
      vertex 9.71744 -4.49112 23
      vertex 10.2826 -4.49112 20
      vertex 9.71744 -4.49112 20
    endloop
  endfacet
  facet normal -0.125333 0.992115 0
    outer loop
      vertex 10.8432 -4.42029 20
      vertex 10.2826 -4.49112 23
      vertex 10.8432 -4.42029 23
    endloop
  endfacet
  facet normal -0.125333 0.992115 0
    outer loop
      vertex 10.2826 -4.49112 23
      vertex 10.8432 -4.42029 20
      vertex 10.2826 -4.49112 20
    endloop
  endfacet
  facet normal -0.248688 -0.968584 0
    outer loop
      vertex 10.8432 16.4203 20
      vertex 11.3906 16.2798 23
      vertex 10.8432 16.4203 23
    endloop
  endfacet
  facet normal -0.248688 -0.968584 -0
    outer loop
      vertex 11.3906 16.2798 23
      vertex 10.8432 16.4203 20
      vertex 11.3906 16.2798 20
    endloop
  endfacet
  facet normal -0.844328 -0.535827 0
    outer loop
      vertex 13.9434 14.1679 20
      vertex 13.6406 14.645 23
      vertex 13.6406 14.645 20
    endloop
  endfacet
  facet normal -0.844328 -0.535827 0
    outer loop
      vertex 13.6406 14.645 23
      vertex 13.9434 14.1679 20
      vertex 13.9434 14.1679 23
    endloop
  endfacet
  facet normal -0.368128 -0.929775 0
    outer loop
      vertex 11.3906 16.2798 20
      vertex 11.916 16.0717 23
      vertex 11.3906 16.2798 23
    endloop
  endfacet
  facet normal -0.368128 -0.929775 -0
    outer loop
      vertex 11.916 16.0717 23
      vertex 11.3906 16.2798 20
      vertex 11.916 16.0717 20
    endloop
  endfacet
  facet normal -0.587785 -0.809017 0
    outer loop
      vertex 12.4112 15.7995 20
      vertex 12.8684 15.4673 23
      vertex 12.4112 15.7995 23
    endloop
  endfacet
  facet normal -0.587785 -0.809017 -0
    outer loop
      vertex 12.8684 15.4673 23
      vertex 12.4112 15.7995 20
      vertex 12.8684 15.4673 20
    endloop
  endfacet
  facet normal -0.684547 -0.728969 0
    outer loop
      vertex 12.8684 15.4673 20
      vertex 13.2804 15.0805 23
      vertex 12.8684 15.4673 23
    endloop
  endfacet
  facet normal -0.684547 -0.728969 -0
    outer loop
      vertex 13.2804 15.0805 23
      vertex 12.8684 15.4673 20
      vertex 13.2804 15.0805 20
    endloop
  endfacet
endsolid OpenSCAD_Model
