<?xml version="1.0" encoding="UTF-8" standalone="no"?>
<!-- Created with Inkscape (http://www.inkscape.org/) -->

<svg
   version="1.1"
   id="svg4549"
   width="125.07045mm"
   height="142.41049mm"
   viewBox="0 0 472.70724 538.24436"
   sodipodi:docname="led_streifen_cutout.svg"
   inkscape:version="1.1.2 (0a00cf5339, 2022-02-04)"
   xmlns:inkscape="http://www.inkscape.org/namespaces/inkscape"
   xmlns:sodipodi="http://sodipodi.sourceforge.net/DTD/sodipodi-0.dtd"
   xmlns="http://www.w3.org/2000/svg"
   xmlns:svg="http://www.w3.org/2000/svg">
  <defs
     id="defs4553" />
  <sodipodi:namedview
     id="namedview4551"
     pagecolor="#ffffff"
     bordercolor="#666666"
     borderopacity="1.0"
     inkscape:pageshadow="2"
     inkscape:pageopacity="0.0"
     inkscape:pagecheckerboard="0"
     showgrid="false"
     inkscape:zoom="2.148769"
     inkscape:cx="102.84958"
     inkscape:cy="367.88505"
     inkscape:window-width="3020"
     inkscape:window-height="1928"
     inkscape:window-x="957"
     inkscape:window-y="106"
     inkscape:window-maximized="0"
     inkscape:current-layer="g4555"
     fit-margin-top="0"
     fit-margin-left="0"
     fit-margin-right="0"
     fit-margin-bottom="0"
     units="mm"
     inkscape:document-units="mm" />
  <g
     inkscape:groupmode="layer"
     inkscape:label="Image"
     id="g4555"
     transform="translate(-2070.0644,-1644.2106)">
    <path
       id="rect6200-2-7-7"
       style="opacity:0.320746;fill:#6200ff;fill-opacity:0.999465;stroke-width:4.92246"
       d="m 2241.5457,1644.2117 v 213.1227 h 35.0566 v 64.1782 60.9521 h -0.257 v 13.5163 h -3.9791 v -9.6408 h -63.4325 v -2.1332 h -4.6726 v -63.8607 h -9.9731 v -13.1471 h 0.1021 v -39.1907 h -51.0754 v -15.236 h -73.2503 v 67.5957 h 73.2503 v -13.169 h 11.7815 v 13.1471 h -10.0985 v 64.2224 h 12.5125 v 50.1525 h 0.5904 v 14.4022 h -8.8434 v 64.2222 h 8.1717 v 13.2653 h -10.6594 v -11.752 h -73.2431 v 67.5961 h 73.2431 v -16.6538 h 50.8241 v -39.1903 h -0.9744 v -13.2653 h 11.8999 v -62.8713 h 0.4131 v -4.8722 h 63.4325 v -10.4308 h 16.6761 v 0.6939 h 49.8939 v 9.8846 h 62.9454 v 2.8642 h 5.8835 v 64.0822 h 10.5117 v 13.0141 h -0.068 v 39.1831 h 50.507 v 16.7645 h 73.2431 v -67.5961 h -73.2431 v 11.6485 h -11.2573 v -13.0141 h 9.5671 v -64.2153 h -10.4013 v -50.4918 h -0.094 v -12.5348 h 10.4308 v -64.2221 h -9.2939 v -14.3581 h 11.8628 v 15.1922 h 73.2431 v -67.5961 h -73.2431 v 13.2136 h -50.5217 v 2.9012 h -0.5317 v 50.6472 h -10.7774 v 63.3955 h -5.817 v 1.8603 h -62.9454 v 10.1945 h -2.3029 v -10.7482 h 0.5979 v -64.2149 h -1.3659 v -0.2079 -64.1783 h 36.4297 v -213.1226 z" />
  </g>
</svg>
